{"glyphs":{"0":{"ha":892,"x_min":97,"x_max":794,"o":"m 446 -21 q 265 24 344 -21 q 142 147 187 69 q 97 328 97 226 l 97 672 q 142 853 97 774 q 265 976 187 931 q 446 1021 344 1021 q 626 976 548 1021 q 750 853 705 931 q 794 672 794 774 l 794 328 q 750 147 794 226 q 626 24 705 69 q 446 -21 548 -21 m 446 118 q 547 145 501 118 q 619 217 592 172 q 647 319 647 263 l 647 683 q 619 784 647 738 q 547 856 592 829 q 446 883 501 883 q 345 856 390 883 q 272 784 299 829 q 245 683 245 738 l 245 319 q 272 217 245 263 q 345 145 299 172 q 446 118 390 118 z "},"1":{"ha":586,"x_min":83,"x_max":419,"o":"m 272 0 l 272 840 l 83 726 l 83 888 l 272 1000 l 419 1000 l 419 0 l 272 0 z "},"2":{"ha":815,"x_min":69,"x_max":746,"o":"m 69 1 l 70 130 l 506 520 q 577 609 558 567 q 597 694 597 651 q 573 790 597 747 q 508 858 549 833 q 412 883 466 883 q 313 857 356 883 q 245 788 269 831 q 222 694 221 744 l 73 694 q 117 865 73 792 q 238 980 161 938 q 415 1021 315 1021 q 584 978 509 1021 q 702 861 659 935 q 746 692 746 787 q 728 575 746 623 q 674 486 710 527 q 583 397 638 445 l 247 97 l 231 139 l 746 139 l 746 1 l 69 1 z "},"3":{"ha":794,"x_min":56,"x_max":711,"o":"m 377 -19 q 238 9 303 -19 q 125 90 172 38 q 56 213 77 142 l 196 251 q 266 152 216 187 q 377 119 316 118 q 474 144 432 119 q 539 212 515 169 q 563 310 563 255 q 511 448 563 394 q 376 502 459 502 q 327 495 352 502 q 281 477 303 488 l 213 592 l 566 903 l 581 862 l 95 862 l 95 1000 l 697 1000 l 697 862 l 403 580 l 402 627 q 566 585 497 627 q 673 471 635 543 q 711 310 711 399 q 666 140 711 215 q 546 24 622 66 q 377 -19 471 -19 z "},"4":{"ha":837,"x_min":69,"x_max":767,"o":"m 521 0 l 521 174 l 69 174 l 69 312 l 394 1000 l 560 1000 l 235 312 l 521 312 l 521 583 l 668 583 l 668 312 l 767 312 l 767 174 l 668 174 l 668 0 l 521 0 z "},"5":{"ha":810,"x_min":69,"x_max":741,"o":"m 394 -21 q 250 11 317 -21 q 137 98 184 42 q 69 227 90 154 l 209 265 q 250 188 221 220 q 317 137 278 155 q 398 119 356 119 q 498 146 453 119 q 568 217 542 172 q 594 315 594 261 q 568 414 594 369 q 496 484 541 458 q 398 510 451 510 q 294 486 337 510 q 228 430 252 462 l 102 474 l 133 1000 l 672 1000 l 672 863 l 207 863 l 266 918 l 242 524 l 213 561 q 308 622 253 601 q 417 642 363 642 q 583 599 510 642 q 699 482 656 556 q 741 315 741 408 q 693 145 741 222 q 566 24 645 69 q 394 -21 487 -21 z "},"6":{"ha":863,"x_min":97,"x_max":784,"o":"m 441 -21 q 266 25 344 -21 q 143 152 188 72 q 97 335 97 233 l 97 654 q 143 846 97 763 q 269 974 188 928 q 456 1020 350 1020 q 604 990 535 1020 q 724 901 674 960 l 618 802 q 547 861 590 839 q 456 883 504 883 q 346 853 393 883 q 272 776 299 824 q 245 673 245 728 l 245 490 l 217 522 q 324 610 260 578 q 460 643 388 643 q 627 600 553 643 q 742 482 700 556 q 784 315 784 408 q 737 145 784 221 q 612 24 690 69 q 441 -21 534 -21 m 441 119 q 540 145 495 119 q 610 216 584 172 q 637 315 637 260 q 611 413 637 369 q 540 484 585 458 q 442 510 496 510 q 343 484 388 510 q 272 413 298 458 q 245 315 245 369 q 272 217 245 261 q 342 145 298 172 q 441 119 387 119 z "},"7":{"ha":726,"x_min":56,"x_max":657,"o":"m 149 0 l 501 862 l 56 862 l 56 1000 l 657 1000 l 657 862 l 306 0 l 149 0 z "},"8":{"ha":835,"x_min":83,"x_max":752,"o":"m 417 -21 q 244 18 319 -21 q 126 128 169 58 q 83 290 83 198 q 124 448 83 376 q 244 560 164 519 l 241 510 q 143 609 177 550 q 108 742 108 669 q 148 890 108 828 q 257 987 188 953 q 417 1021 327 1021 q 577 987 508 1021 q 686 890 647 953 q 726 742 726 828 q 693 610 726 669 q 593 510 660 551 l 591 559 q 711 448 670 520 q 752 290 752 376 q 709 128 752 198 q 590 18 666 58 q 417 -21 515 -21 m 417 117 q 548 161 498 117 q 598 290 598 206 q 548 420 598 375 q 417 465 499 465 q 286 420 336 465 q 237 290 237 375 q 287 161 237 206 q 417 117 337 117 m 417 603 q 529 638 486 603 q 572 742 572 672 q 529 848 572 813 q 417 883 486 883 q 306 848 349 883 q 263 742 263 813 q 306 638 263 672 q 417 603 349 603 z "},"9":{"ha":863,"x_min":78,"x_max":766,"o":"m 422 1020 q 597 974 519 1020 q 720 847 674 928 q 766 663 766 767 l 766 345 q 720 153 766 235 q 594 25 675 71 q 408 -21 513 -21 q 259 9 328 -21 q 138 98 190 39 l 245 197 q 317 138 274 160 q 408 116 360 116 q 517 146 469 116 q 591 224 565 176 q 617 326 617 272 l 617 510 l 647 478 q 540 389 603 422 q 403 356 476 356 q 236 399 309 356 q 121 517 163 442 q 78 685 78 591 q 126 854 78 778 q 251 975 173 930 q 422 1020 328 1020 m 422 880 q 323 854 368 880 q 252 783 278 828 q 226 685 226 739 q 252 586 226 631 q 323 515 278 541 q 422 488 367 488 q 520 515 476 488 q 591 586 565 541 q 617 685 617 631 q 591 783 617 738 q 521 853 565 827 q 422 880 476 880 z "},"A":{"ha":915,"x_min":28,"x_max":887,"o":"m 28 0 l 353 1000 l 562 1000 l 887 0 l 736 0 l 437 913 l 474 913 l 178 0 l 28 0 m 197 226 l 197 362 l 719 362 l 719 226 l 197 226 z "},"Á":{"ha":915,"x_min":28,"x_max":887,"o":"m 528 1111 l 415 1111 l 514 1354 l 628 1354 l 528 1111 m 28 0 l 353 1000 l 562 1000 l 887 0 l 736 0 l 437 913 l 474 913 l 178 0 l 28 0 m 197 226 l 197 362 l 719 362 l 719 226 l 197 226 z "},"Ă":{"ha":915,"x_min":28,"x_max":887,"o":"m 458 1086 q 357 1113 403 1086 q 285 1185 312 1140 q 258 1286 258 1231 l 373 1286 q 398 1226 373 1251 q 458 1201 423 1201 q 518 1226 493 1201 q 542 1286 542 1251 l 658 1286 q 631 1185 658 1231 q 559 1113 604 1140 q 458 1086 513 1086 m 28 0 l 353 1000 l 562 1000 l 887 0 l 736 0 l 437 913 l 474 913 l 178 0 l 28 0 m 197 226 l 197 362 l 719 362 l 719 226 l 197 226 z "},"Ắ":{"ha":915,"x_min":28,"x_max":887,"o":"m 457 1086 q 357 1113 402 1086 q 284 1185 311 1140 q 257 1286 257 1231 l 372 1286 q 397 1226 372 1251 q 457 1201 422 1201 q 517 1226 492 1201 q 542 1286 542 1251 l 657 1286 q 630 1185 657 1231 q 558 1113 603 1140 q 457 1086 513 1086 m 515 1340 l 401 1340 l 501 1583 l 615 1583 l 515 1340 m 28 0 l 353 1000 l 562 1000 l 887 0 l 736 0 l 437 913 l 474 913 l 178 0 l 28 0 m 197 226 l 197 362 l 719 362 l 719 226 l 197 226 z "},"Ặ":{"ha":915,"x_min":28,"x_max":887,"o":"m 381 -269 l 381 -128 l 534 -128 l 534 -269 l 381 -269 m 458 1086 q 357 1113 403 1086 q 285 1185 312 1140 q 258 1286 258 1231 l 373 1286 q 398 1226 373 1251 q 458 1201 423 1201 q 518 1226 494 1201 q 542 1286 542 1251 l 658 1286 q 631 1185 658 1231 q 559 1113 604 1140 q 458 1086 513 1086 m 28 0 l 353 1000 l 562 1000 l 887 0 l 736 0 l 437 913 l 474 913 l 178 0 l 28 0 m 197 226 l 197 362 l 719 362 l 719 226 l 197 226 z "},"Ằ":{"ha":915,"x_min":28,"x_max":887,"o":"m 457 1086 q 357 1113 402 1086 q 284 1185 311 1140 q 257 1286 257 1231 l 372 1286 q 397 1226 372 1251 q 457 1201 422 1201 q 517 1226 492 1201 q 542 1286 542 1251 l 657 1286 q 630 1185 657 1231 q 558 1113 603 1140 q 457 1086 513 1086 m 399 1340 l 300 1583 l 414 1583 l 513 1340 l 399 1340 m 28 0 l 353 1000 l 562 1000 l 887 0 l 736 0 l 437 913 l 474 913 l 178 0 l 28 0 m 197 226 l 197 362 l 719 362 l 719 226 l 197 226 z "},"Ẳ":{"ha":915,"x_min":28,"x_max":887,"o":"m 457 1086 q 357 1113 402 1086 q 284 1185 311 1140 q 257 1286 257 1231 l 372 1286 q 397 1226 372 1251 q 457 1201 422 1201 q 517 1226 492 1201 q 542 1286 542 1251 l 657 1286 q 630 1185 657 1231 q 558 1113 603 1140 q 457 1086 513 1086 m 347 1506 l 307 1578 q 391 1622 343 1611 q 482 1615 438 1632 q 549 1545 526 1597 q 563 1468 567 1503 q 538 1403 558 1432 q 488 1356 518 1374 q 426 1331 458 1338 l 395 1393 q 457 1436 435 1408 q 461 1501 479 1465 q 429 1529 449 1524 q 387 1527 409 1534 q 347 1506 365 1519 m 28 0 l 353 1000 l 562 1000 l 887 0 l 736 0 l 437 913 l 474 913 l 178 0 l 28 0 m 197 226 l 197 362 l 719 362 l 719 226 l 197 226 z "},"Ẵ":{"ha":915,"x_min":28,"x_max":887,"o":"m 557 1331 q 496 1345 526 1331 q 440 1376 467 1358 q 389 1408 413 1394 q 344 1422 365 1422 q 313 1399 321 1422 q 314 1347 306 1377 l 219 1347 q 230 1477 201 1424 q 333 1530 259 1530 q 394 1516 365 1530 q 451 1485 424 1503 q 502 1453 478 1467 q 546 1440 526 1440 q 577 1461 569 1440 q 577 1515 586 1483 l 672 1515 q 661 1385 690 1439 q 557 1331 632 1331 m 443 1086 q 342 1113 388 1086 q 270 1185 297 1140 q 243 1286 243 1231 l 358 1286 q 383 1226 358 1251 q 443 1201 408 1201 q 503 1226 478 1201 q 528 1286 528 1251 l 643 1286 q 616 1185 643 1231 q 544 1113 589 1140 q 443 1086 499 1086 m 28 0 l 353 1000 l 562 1000 l 887 0 l 736 0 l 437 913 l 474 913 l 178 0 l 28 0 m 197 226 l 197 362 l 719 362 l 719 226 l 197 226 z "},"Â":{"ha":915,"x_min":28,"x_max":887,"o":"m 214 1111 l 394 1319 l 519 1319 l 698 1111 l 559 1111 l 456 1234 l 353 1111 l 214 1111 m 28 0 l 353 1000 l 562 1000 l 887 0 l 736 0 l 437 913 l 474 913 l 178 0 l 28 0 m 197 226 l 197 362 l 719 362 l 719 226 l 197 226 z "},"Ấ":{"ha":915,"x_min":28,"x_max":887,"o":"m 213 1111 l 393 1319 l 518 1319 l 697 1111 l 558 1111 l 456 1234 l 352 1111 l 213 1111 m 783 1257 l 669 1257 l 768 1500 l 882 1500 l 783 1257 m 28 0 l 353 1000 l 562 1000 l 887 0 l 736 0 l 437 913 l 474 913 l 178 0 l 28 0 m 197 226 l 197 362 l 719 362 l 719 226 l 197 226 z "},"Ậ":{"ha":915,"x_min":28,"x_max":887,"o":"m 381 -269 l 381 -128 l 534 -128 l 534 -269 l 381 -269 m 214 1111 l 394 1319 l 519 1319 l 698 1111 l 559 1111 l 456 1234 l 353 1111 l 214 1111 m 28 0 l 353 1000 l 562 1000 l 887 0 l 736 0 l 437 913 l 474 913 l 178 0 l 28 0 m 197 226 l 197 362 l 719 362 l 719 226 l 197 226 z "},"Ầ":{"ha":915,"x_min":28,"x_max":887,"o":"m 213 1111 l 393 1319 l 518 1319 l 697 1111 l 558 1111 l 456 1234 l 352 1111 l 213 1111 m 674 1257 l 575 1500 l 689 1500 l 788 1257 l 674 1257 m 28 0 l 353 1000 l 562 1000 l 887 0 l 736 0 l 437 913 l 474 913 l 178 0 l 28 0 m 197 226 l 197 362 l 719 362 l 719 226 l 197 226 z "},"Ẩ":{"ha":915,"x_min":28,"x_max":900,"o":"m 214 1111 l 394 1319 l 519 1319 l 698 1111 l 559 1111 l 456 1234 l 353 1111 l 214 1111 m 680 1292 l 640 1365 q 724 1408 676 1398 q 815 1401 772 1419 q 882 1332 858 1384 q 896 1255 900 1290 q 872 1190 892 1219 q 822 1143 851 1161 q 760 1118 792 1124 l 728 1180 q 790 1223 768 1194 q 794 1288 812 1251 q 762 1316 782 1311 q 720 1314 742 1321 q 680 1292 698 1306 m 28 0 l 353 1000 l 562 1000 l 887 0 l 736 0 l 437 913 l 474 913 l 178 0 l 28 0 m 197 226 l 197 362 l 719 362 l 719 226 l 197 226 z "},"Ẫ":{"ha":915,"x_min":28,"x_max":887,"o":"m 213 1111 l 392 1319 l 517 1319 l 697 1111 l 558 1111 l 455 1234 l 351 1111 l 213 1111 m 573 1354 q 512 1368 542 1354 q 456 1400 483 1382 q 405 1431 428 1417 q 360 1445 381 1445 q 329 1423 337 1445 q 330 1370 322 1400 l 235 1370 q 246 1500 217 1447 q 349 1553 275 1553 q 410 1540 381 1553 q 467 1508 440 1526 q 518 1476 494 1490 q 562 1463 542 1463 q 593 1484 585 1463 q 593 1538 602 1506 l 688 1538 q 677 1408 706 1463 q 573 1354 648 1354 m 28 0 l 353 1000 l 562 1000 l 887 0 l 736 0 l 437 913 l 474 913 l 178 0 l 28 0 m 197 226 l 197 362 l 719 362 l 719 226 l 197 226 z "},"Ä":{"ha":915,"x_min":28,"x_max":887,"o":"m 528 1126 l 528 1265 l 667 1265 l 667 1126 l 528 1126 m 249 1126 l 249 1265 l 388 1265 l 388 1126 l 249 1126 m 28 0 l 353 1000 l 562 1000 l 887 0 l 736 0 l 437 913 l 474 913 l 178 0 l 28 0 m 197 226 l 197 362 l 719 362 l 719 226 l 197 226 z "},"Ạ":{"ha":915,"x_min":28,"x_max":887,"o":"m 381 -269 l 381 -128 l 534 -128 l 534 -269 l 381 -269 m 28 0 l 353 1000 l 562 1000 l 887 0 l 736 0 l 437 913 l 474 913 l 178 0 l 28 0 m 197 226 l 197 362 l 719 362 l 719 226 l 197 226 z "},"À":{"ha":915,"x_min":28,"x_max":887,"o":"m 385 1111 l 287 1354 l 401 1354 l 499 1111 l 385 1111 m 887 0 l 736 0 l 440 913 l 478 913 l 178 0 l 28 0 l 353 1000 l 562 1000 l 887 0 m 718 226 l 196 226 l 196 362 l 718 362 l 718 226 z "},"Ả":{"ha":915,"x_min":28,"x_max":887,"o":"m 363 1292 l 323 1365 q 407 1408 359 1398 q 498 1401 454 1419 q 565 1332 542 1384 q 579 1255 583 1290 q 554 1190 574 1219 q 504 1143 534 1161 q 442 1118 474 1124 l 411 1180 q 473 1223 451 1194 q 477 1288 495 1251 q 445 1316 465 1311 q 403 1314 425 1321 q 363 1292 381 1306 m 28 0 l 353 1000 l 562 1000 l 887 0 l 736 0 l 437 913 l 474 913 l 178 0 l 28 0 m 197 226 l 197 362 l 719 362 l 719 226 l 197 226 z "},"Ā":{"ha":915,"x_min":28,"x_max":887,"o":"m 276 1167 l 276 1283 l 640 1283 l 640 1167 l 276 1167 m 28 0 l 353 1000 l 562 1000 l 887 0 l 736 0 l 437 913 l 474 913 l 178 0 l 28 0 m 197 226 l 197 362 l 719 362 l 719 226 l 197 226 z "},"Ą":{"ha":915,"x_min":28,"x_max":887,"o":"m 758 -333 q 684 -313 717 -333 q 633 -259 652 -292 q 615 -187 615 -226 q 642 -90 615 -139 q 716 3 669 -40 q 819 76 762 46 l 887 0 q 809 -55 844 -24 q 752 -119 774 -87 q 731 -177 731 -151 q 744 -210 731 -197 q 776 -223 758 -223 q 803 -216 789 -223 q 831 -196 818 -208 l 887 -266 q 828 -316 863 -299 q 758 -333 794 -333 m 28 0 l 353 1000 l 562 1000 l 887 0 l 736 0 l 437 913 l 474 913 l 178 0 l 28 0 m 197 226 l 197 362 l 719 362 l 719 226 l 197 226 z "},"Å":{"ha":915,"x_min":28,"x_max":887,"o":"m 458 1078 q 373 1101 411 1078 q 311 1163 334 1124 q 288 1249 288 1202 q 311 1334 288 1296 q 373 1395 334 1372 q 458 1419 411 1419 q 543 1395 505 1419 q 605 1334 582 1372 q 628 1249 628 1296 q 605 1163 628 1202 q 543 1101 582 1124 q 458 1078 505 1078 m 458 1172 q 512 1195 490 1172 q 534 1249 534 1217 q 512 1303 534 1281 q 458 1325 490 1325 q 404 1303 426 1325 q 381 1249 381 1281 q 404 1195 381 1217 q 458 1172 426 1172 m 28 0 l 353 1000 l 562 1000 l 887 0 l 736 0 l 437 913 l 474 913 l 178 0 l 28 0 m 197 226 l 197 362 l 719 362 l 719 226 l 197 226 z "},"Ã":{"ha":915,"x_min":28,"x_max":887,"o":"m 569 1149 q 508 1163 538 1149 q 452 1194 479 1176 q 401 1226 425 1212 q 357 1240 377 1240 q 325 1217 333 1240 q 326 1165 317 1194 l 231 1165 q 242 1295 213 1242 q 345 1348 271 1348 q 407 1334 377 1348 q 463 1302 436 1320 q 514 1271 490 1285 q 558 1257 538 1257 q 590 1279 581 1257 q 590 1333 599 1301 l 684 1333 q 674 1203 703 1257 q 569 1149 644 1149 m 28 0 l 353 1000 l 562 1000 l 887 0 l 736 0 l 437 913 l 474 913 l 178 0 l 28 0 m 197 226 l 197 362 l 719 362 l 719 226 l 197 226 z "},"Æ":{"ha":1294,"x_min":28,"x_max":1224,"o":"m 28 0 l 353 1000 l 637 1000 l 637 863 l 406 863 l 474 913 l 178 0 l 28 0 m 197 226 l 197 362 l 695 362 l 695 226 l 197 226 m 585 0 l 585 1000 l 1224 1000 l 1224 863 l 731 863 l 731 583 l 1141 583 l 1141 446 l 731 446 l 731 137 l 1224 137 l 1224 0 l 585 0 z "},"B":{"ha":868,"x_min":97,"x_max":827,"o":"m 97 0 l 97 1000 l 490 1000 q 650 961 585 1000 q 747 861 715 922 q 780 731 780 799 q 739 590 780 649 q 630 509 699 531 l 628 543 q 776 451 724 519 q 827 292 827 383 q 792 138 827 203 q 690 36 757 73 q 528 0 623 0 l 97 0 m 244 138 l 506 138 q 594 157 555 138 q 656 211 633 176 q 678 294 678 246 q 659 376 678 340 q 602 434 639 413 q 515 455 565 455 l 244 455 l 244 138 m 244 592 l 488 592 q 561 608 528 592 q 612 655 593 624 q 631 730 631 686 q 592 826 631 788 q 488 863 553 863 l 244 863 l 244 592 z "},"C":{"ha":1015,"x_min":42,"x_max":959,"o":"m 515 -21 q 259 45 365 -21 q 98 228 153 110 q 42 500 42 345 q 98 772 42 655 q 259 955 153 890 q 515 1021 365 1021 q 801 933 688 1021 q 959 698 915 846 l 812 658 q 708 823 783 763 q 515 883 633 883 q 338 835 408 883 q 231 701 267 787 q 195 500 195 615 q 230 299 194 385 q 337 165 266 213 q 515 117 408 117 q 708 177 633 117 q 812 342 783 238 l 959 302 q 801 67 915 154 q 515 -21 688 -21 z "},"Ć":{"ha":1015,"x_min":42,"x_max":959,"o":"m 585 1111 l 471 1111 l 570 1354 l 684 1354 l 585 1111 m 515 -21 q 259 45 365 -21 q 98 228 153 110 q 42 500 42 345 q 98 772 42 655 q 259 955 153 890 q 515 1021 365 1021 q 801 933 688 1021 q 959 698 915 846 l 812 658 q 708 823 783 763 q 515 883 633 883 q 338 835 408 883 q 231 701 267 787 q 195 500 195 615 q 230 299 194 385 q 337 165 266 213 q 515 117 408 117 q 708 177 633 117 q 812 342 783 238 l 959 302 q 801 67 915 154 q 515 -21 688 -21 z "},"Č":{"ha":1015,"x_min":42,"x_max":959,"o":"m 281 1319 l 420 1319 l 523 1197 l 626 1319 l 765 1319 l 585 1111 l 460 1111 l 281 1319 m 515 -21 q 259 45 365 -21 q 98 228 153 110 q 42 500 42 345 q 98 772 42 655 q 259 955 153 890 q 515 1021 365 1021 q 801 933 688 1021 q 959 698 915 846 l 812 658 q 708 823 783 763 q 515 883 633 883 q 338 835 408 883 q 231 701 267 787 q 195 500 195 615 q 230 299 194 385 q 337 165 266 213 q 515 117 408 117 q 708 177 633 117 q 812 342 783 238 l 959 302 q 801 67 915 154 q 515 -21 688 -21 z "},"Ç":{"ha":1015,"x_min":42,"x_max":959,"o":"m 501 -335 q 451 -328 474 -335 q 408 -310 428 -321 l 441 -222 q 488 -231 470 -231 q 524 -218 511 -231 q 536 -188 536 -204 q 509 -147 536 -160 q 445 -123 481 -134 l 495 19 l 588 20 l 558 -66 q 619 -116 597 -85 q 642 -192 642 -147 q 600 -295 642 -255 q 501 -335 558 -335 m 515 -21 q 259 45 365 -21 q 98 228 153 110 q 42 500 42 345 q 98 772 42 655 q 259 955 153 890 q 515 1021 365 1021 q 801 933 688 1021 q 959 698 915 846 l 812 658 q 708 823 783 763 q 515 883 633 883 q 338 835 408 883 q 231 701 267 787 q 195 500 195 615 q 230 299 194 385 q 337 165 266 213 q 515 117 408 117 q 708 177 633 117 q 812 342 783 238 l 959 302 q 801 67 915 154 q 515 -21 688 -21 z "},"Ĉ":{"ha":1015,"x_min":42,"x_max":959,"o":"m 271 1111 l 450 1319 l 575 1319 l 755 1111 l 616 1111 l 513 1234 l 410 1111 l 271 1111 m 515 -21 q 259 45 365 -21 q 98 228 153 110 q 42 500 42 345 q 98 772 42 655 q 259 955 153 890 q 515 1021 365 1021 q 801 933 688 1021 q 959 698 915 846 l 812 658 q 708 823 783 763 q 515 883 633 883 q 338 835 408 883 q 231 701 267 787 q 195 500 195 615 q 230 299 194 385 q 337 165 266 213 q 515 117 408 117 q 708 177 633 117 q 812 342 783 238 l 959 302 q 801 67 915 154 q 515 -21 688 -21 z "},"Ċ":{"ha":1015,"x_min":42,"x_max":959,"o":"m 446 1152 l 446 1306 l 599 1306 l 599 1152 l 446 1152 m 515 -21 q 259 45 365 -21 q 98 228 153 110 q 42 500 42 345 q 98 772 42 655 q 259 955 153 890 q 515 1021 365 1021 q 801 933 688 1021 q 959 698 915 846 l 812 658 q 708 823 783 763 q 515 883 633 883 q 338 835 408 883 q 231 701 267 787 q 195 500 195 615 q 230 299 194 385 q 337 165 266 213 q 515 117 408 117 q 708 177 633 117 q 812 342 783 238 l 959 302 q 801 67 915 154 q 515 -21 688 -21 z "},"D":{"ha":959,"x_min":97,"x_max":894,"o":"m 97 0 l 97 1000 l 410 1000 q 462 999 424 1000 q 535 994 500 999 q 732 910 652 979 q 853 734 813 840 q 894 500 894 627 q 853 266 894 372 q 732 90 813 159 q 535 6 652 21 q 462 1 500 1 q 410 0 424 0 l 97 0 m 246 138 l 410 138 q 467 140 434 138 q 524 145 499 141 q 648 211 601 160 q 718 339 696 263 q 740 500 740 415 q 717 664 740 588 q 647 790 694 739 q 524 855 599 841 q 466 861 499 860 q 410 862 433 862 l 246 862 l 246 138 z "},"Ð":{"ha":958,"x_min":14,"x_max":893,"o":"m 14 442 l 14 559 l 472 559 l 472 442 l 14 442 m 96 0 l 96 1000 l 409 1000 q 461 999 423 1000 q 533 994 499 999 q 731 910 651 979 q 852 734 811 840 q 893 500 893 627 q 852 266 893 372 q 731 90 811 159 q 533 6 651 21 q 461 1 499 1 q 409 0 423 0 l 96 0 m 244 138 l 409 138 q 465 140 433 138 q 523 145 498 141 q 647 211 599 160 q 717 339 694 263 q 739 500 739 415 q 716 664 739 588 q 645 790 693 739 q 523 855 598 841 q 465 861 498 860 q 409 862 432 862 l 244 862 l 244 138 z "},"Ď":{"ha":959,"x_min":97,"x_max":894,"o":"m 182 1319 l 321 1319 l 424 1197 l 527 1319 l 666 1319 l 487 1111 l 362 1111 l 182 1319 m 97 0 l 97 1000 l 410 1000 q 462 999 424 1000 q 535 994 500 999 q 732 910 652 979 q 853 734 813 840 q 894 500 894 627 q 853 266 894 372 q 732 90 813 159 q 535 6 652 21 q 462 1 500 1 q 410 0 424 0 l 97 0 m 246 138 l 410 138 q 467 140 434 138 q 524 145 499 141 q 648 211 601 160 q 718 339 696 263 q 740 500 740 415 q 717 664 740 588 q 647 790 694 739 q 524 855 599 841 q 466 861 499 860 q 410 862 433 862 l 246 862 l 246 138 z "},"Đ":{"ha":958,"x_min":14,"x_max":893,"o":"m 14 442 l 14 559 l 472 559 l 472 442 l 14 442 m 96 0 l 96 1000 l 409 1000 q 461 999 423 1000 q 533 994 499 999 q 731 910 651 979 q 852 734 811 840 q 893 500 893 627 q 852 266 893 372 q 731 90 811 159 q 533 6 651 21 q 461 1 499 1 q 409 0 423 0 l 96 0 m 244 138 l 409 138 q 465 140 433 138 q 523 145 498 141 q 647 211 599 160 q 717 339 694 263 q 739 500 739 415 q 716 664 739 588 q 645 790 693 739 q 523 855 598 841 q 465 861 498 860 q 409 862 432 862 l 244 862 l 244 138 z "},"E":{"ha":806,"x_min":97,"x_max":736,"o":"m 97 0 l 97 1000 l 736 1000 l 736 863 l 242 863 l 242 583 l 653 583 l 653 446 l 242 446 l 242 137 l 736 137 l 736 0 l 97 0 z "},"É":{"ha":806,"x_min":97,"x_max":736,"o":"m 492 1111 l 378 1111 l 477 1354 l 591 1354 l 492 1111 m 97 0 l 97 1000 l 736 1000 l 736 863 l 242 863 l 242 583 l 653 583 l 653 446 l 242 446 l 242 137 l 736 137 l 736 0 l 97 0 z "},"Ě":{"ha":806,"x_min":97,"x_max":736,"o":"m 178 1319 l 317 1319 l 421 1197 l 524 1319 l 663 1319 l 483 1111 l 358 1111 l 178 1319 m 97 0 l 97 1000 l 736 1000 l 736 863 l 242 863 l 242 583 l 653 583 l 653 446 l 242 446 l 242 137 l 736 137 l 736 0 l 97 0 z "},"Ê":{"ha":806,"x_min":97,"x_max":736,"o":"m 166 1111 l 345 1319 l 470 1319 l 650 1111 l 511 1111 l 408 1234 l 305 1111 l 166 1111 m 97 0 l 97 1000 l 736 1000 l 736 863 l 242 863 l 242 583 l 653 583 l 653 446 l 242 446 l 242 137 l 736 137 l 736 0 l 97 0 z "},"Ế":{"ha":806,"x_min":97,"x_max":842,"o":"m 174 1111 l 353 1319 l 478 1319 l 658 1111 l 519 1111 l 415 1234 l 313 1111 l 174 1111 m 743 1257 l 629 1257 l 728 1500 l 842 1500 l 743 1257 m 97 0 l 97 1000 l 736 1000 l 736 863 l 242 863 l 242 583 l 653 583 l 653 446 l 242 446 l 242 137 l 736 137 l 736 0 l 97 0 z "},"Ệ":{"ha":806,"x_min":97,"x_max":736,"o":"m 340 -269 l 340 -128 l 494 -128 l 494 -269 l 340 -269 m 166 1111 l 345 1319 l 470 1319 l 650 1111 l 511 1111 l 408 1234 l 305 1111 l 166 1111 m 97 0 l 97 1000 l 736 1000 l 736 863 l 242 863 l 242 583 l 653 583 l 653 446 l 242 446 l 242 137 l 736 137 l 736 0 l 97 0 z "},"Ề":{"ha":806,"x_min":97,"x_max":770,"o":"m 195 1111 l 375 1319 l 500 1319 l 680 1111 l 541 1111 l 438 1234 l 334 1111 l 195 1111 m 656 1257 l 558 1500 l 672 1500 l 770 1257 l 656 1257 m 97 0 l 97 1000 l 736 1000 l 736 863 l 242 863 l 242 583 l 653 583 l 653 446 l 242 446 l 242 137 l 736 137 l 736 0 l 97 0 z "},"Ể":{"ha":833,"x_min":97,"x_max":866,"o":"m 179 1111 l 359 1319 l 484 1319 l 664 1111 l 525 1111 l 422 1234 l 318 1111 l 179 1111 m 646 1292 l 606 1365 q 689 1408 642 1398 q 781 1401 737 1419 q 847 1332 824 1384 q 861 1255 866 1290 q 837 1190 857 1219 q 787 1143 817 1161 q 725 1118 757 1124 l 694 1180 q 756 1223 733 1194 q 760 1288 778 1251 q 728 1316 748 1311 q 686 1314 708 1321 q 646 1292 664 1306 m 97 0 l 97 1000 l 736 1000 l 736 863 l 242 863 l 242 583 l 653 583 l 653 446 l 242 446 l 242 137 l 736 137 l 736 0 l 97 0 z "},"Ễ":{"ha":806,"x_min":97,"x_max":736,"o":"m 172 1111 l 351 1319 l 476 1319 l 656 1111 l 517 1111 l 414 1234 l 310 1111 l 172 1111 m 532 1354 q 471 1368 501 1354 q 415 1400 442 1382 q 364 1431 388 1417 q 319 1445 340 1445 q 288 1423 296 1445 q 289 1370 281 1400 l 194 1370 q 205 1500 176 1447 q 308 1553 234 1553 q 369 1540 340 1553 q 426 1508 399 1526 q 477 1476 453 1490 q 521 1463 501 1463 q 552 1484 544 1463 q 552 1538 561 1506 l 647 1538 q 636 1408 665 1463 q 532 1354 607 1354 m 97 0 l 97 1000 l 736 1000 l 736 863 l 242 863 l 242 583 l 653 583 l 653 446 l 242 446 l 242 137 l 736 137 l 736 0 l 97 0 z "},"Ë":{"ha":806,"x_min":97,"x_max":736,"o":"m 479 1126 l 479 1265 l 618 1265 l 618 1126 l 479 1126 m 199 1126 l 199 1265 l 338 1265 l 338 1126 l 199 1126 m 97 0 l 97 1000 l 736 1000 l 736 863 l 242 863 l 242 583 l 653 583 l 653 446 l 242 446 l 242 137 l 736 137 l 736 0 l 97 0 z "},"Ė":{"ha":806,"x_min":97,"x_max":736,"o":"m 341 1152 l 341 1306 l 495 1306 l 495 1152 l 341 1152 m 97 0 l 97 1000 l 736 1000 l 736 863 l 242 863 l 242 583 l 653 583 l 653 446 l 242 446 l 242 137 l 736 137 l 736 0 l 97 0 z "},"Ẹ":{"ha":833,"x_min":97,"x_max":736,"o":"m 340 -269 l 340 -128 l 494 -128 l 494 -269 l 340 -269 m 97 0 l 97 1000 l 736 1000 l 736 863 l 242 863 l 242 583 l 653 583 l 653 446 l 242 446 l 242 137 l 736 137 l 736 0 l 97 0 z "},"È":{"ha":806,"x_min":97,"x_max":736,"o":"m 376 1111 l 277 1354 l 391 1354 l 490 1111 l 376 1111 m 97 0 l 97 1000 l 736 1000 l 736 863 l 242 863 l 242 583 l 653 583 l 653 446 l 242 446 l 242 137 l 736 137 l 736 0 l 97 0 z "},"Ẻ":{"ha":806,"x_min":97,"x_max":736,"o":"m 338 1292 l 298 1365 q 381 1408 333 1398 q 473 1401 429 1419 q 540 1332 516 1384 q 553 1255 558 1290 q 529 1190 549 1219 q 479 1143 509 1161 q 417 1118 449 1124 l 386 1180 q 448 1223 426 1194 q 451 1288 469 1251 q 420 1316 440 1311 q 378 1314 400 1321 q 338 1292 356 1306 m 97 0 l 97 1000 l 736 1000 l 736 863 l 242 863 l 242 583 l 653 583 l 653 446 l 242 446 l 242 137 l 736 137 l 736 0 l 97 0 z "},"Ē":{"ha":806,"x_min":97,"x_max":736,"o":"m 240 1167 l 240 1283 l 603 1283 l 603 1167 l 240 1167 m 97 0 l 97 1000 l 736 1000 l 736 863 l 242 863 l 242 583 l 653 583 l 653 446 l 242 446 l 242 137 l 736 137 l 736 0 l 97 0 z "},"Ę":{"ha":806,"x_min":97,"x_max":736,"o":"m 608 -333 q 534 -313 567 -333 q 483 -259 501 -292 q 465 -187 465 -226 q 492 -90 465 -139 q 565 3 519 -40 q 669 76 612 46 l 736 0 q 658 -55 694 -24 q 602 -119 623 -87 q 581 -177 581 -151 q 594 -210 581 -197 q 626 -223 608 -223 q 653 -216 639 -223 q 681 -196 667 -208 l 736 -266 q 678 -316 712 -299 q 608 -333 644 -333 m 97 0 l 97 1000 l 736 1000 l 736 863 l 242 863 l 242 583 l 653 583 l 653 446 l 242 446 l 242 137 l 736 137 l 736 0 l 97 0 z "},"Ẽ":{"ha":806,"x_min":97,"x_max":736,"o":"m 519 1114 q 458 1128 488 1114 q 402 1159 429 1142 q 351 1191 375 1177 q 307 1205 327 1205 q 275 1182 283 1205 q 276 1130 267 1160 l 181 1130 q 192 1260 163 1207 q 295 1313 221 1313 q 357 1299 327 1313 q 413 1268 386 1285 q 464 1236 440 1250 q 508 1222 488 1222 q 540 1244 531 1222 q 539 1298 549 1266 l 633 1298 q 624 1168 653 1222 q 519 1114 594 1114 m 97 0 l 97 1000 l 736 1000 l 736 863 l 242 863 l 242 583 l 653 583 l 653 446 l 242 446 l 242 137 l 736 137 l 736 0 l 97 0 z "},"F":{"ha":717,"x_min":97,"x_max":690,"o":"m 97 0 l 97 1000 l 690 1000 l 690 855 l 242 855 l 242 573 l 606 573 l 606 427 l 242 427 l 242 0 l 97 0 z "},"G":{"ha":1004,"x_min":42,"x_max":963,"o":"m 506 -21 q 321 14 406 -21 q 174 117 236 49 q 76 281 111 184 q 42 500 42 377 q 101 778 42 662 q 265 957 160 894 q 506 1020 369 1020 q 788 938 683 1020 q 931 712 893 856 l 784 685 q 685 828 753 775 q 515 883 617 882 q 338 835 408 883 q 232 701 267 788 q 196 500 197 615 q 231 300 195 385 q 337 166 266 214 q 515 117 408 118 q 661 149 600 116 q 759 246 723 182 q 806 403 795 310 l 611 403 l 611 519 l 960 519 q 962 486 961 507 q 963 460 963 466 q 909 213 963 322 q 753 41 856 103 q 506 -21 651 -21 z "},"Ğ":{"ha":1004,"x_min":42,"x_max":963,"o":"m 510 1086 q 409 1113 455 1086 q 337 1185 364 1140 q 310 1286 310 1231 l 425 1286 q 450 1226 425 1251 q 510 1201 475 1201 q 570 1226 545 1201 q 594 1286 594 1251 l 710 1286 q 683 1185 710 1231 q 611 1113 656 1140 q 510 1086 565 1086 m 506 -21 q 321 14 406 -21 q 174 117 236 49 q 76 281 111 184 q 42 500 42 377 q 101 778 42 662 q 265 957 160 894 q 506 1020 369 1020 q 788 938 683 1020 q 931 712 893 856 l 784 685 q 685 828 753 775 q 515 883 617 882 q 338 835 408 883 q 232 701 267 788 q 196 500 197 615 q 231 300 195 385 q 337 166 266 214 q 515 117 408 118 q 661 149 600 116 q 759 246 723 182 q 806 403 795 310 l 611 403 l 611 519 l 960 519 q 962 486 961 507 q 963 460 963 466 q 909 213 963 322 q 753 41 856 103 q 506 -21 651 -21 z "},"Ĝ":{"ha":1004,"x_min":42,"x_max":963,"o":"m 256 1111 l 435 1319 l 560 1319 l 740 1111 l 601 1111 l 498 1234 l 394 1111 l 256 1111 m 506 -21 q 321 14 406 -21 q 174 117 236 49 q 76 281 111 184 q 42 500 42 377 q 101 778 42 662 q 265 957 160 894 q 506 1020 369 1020 q 788 938 683 1020 q 931 712 893 856 l 784 685 q 685 828 753 775 q 515 883 617 882 q 338 835 408 883 q 232 701 267 788 q 196 500 197 615 q 231 300 195 385 q 337 166 266 214 q 515 117 408 118 q 661 149 600 116 q 759 246 723 182 q 806 403 795 310 l 611 403 l 611 519 l 960 519 q 962 486 961 507 q 963 460 963 466 q 909 213 963 322 q 753 41 856 103 q 506 -21 651 -21 z "},"Ģ":{"ha":1004,"x_min":42,"x_max":963,"o":"m 452 -410 l 452 -343 q 481 -338 462 -343 q 517 -319 501 -333 q 532 -274 533 -304 l 452 -274 l 452 -128 l 598 -128 l 598 -274 q 556 -374 598 -337 q 452 -410 513 -410 m 506 -21 q 321 14 406 -21 q 174 117 236 49 q 76 281 111 184 q 42 500 42 377 q 101 778 42 662 q 265 957 160 894 q 506 1020 369 1020 q 788 938 683 1020 q 931 712 893 856 l 784 685 q 685 828 753 775 q 515 883 617 882 q 338 835 408 883 q 232 701 267 788 q 196 500 197 615 q 231 300 195 385 q 337 166 266 214 q 515 117 408 118 q 661 149 600 116 q 759 246 723 182 q 806 403 795 310 l 611 403 l 611 519 l 960 519 q 962 486 961 507 q 963 460 963 466 q 909 213 963 322 q 753 41 856 103 q 506 -21 651 -21 z "},"Ġ":{"ha":1004,"x_min":42,"x_max":963,"o":"m 444 1152 l 444 1306 l 598 1306 l 598 1152 l 444 1152 m 506 -21 q 321 14 406 -21 q 174 117 236 49 q 76 281 111 184 q 42 500 42 377 q 101 778 42 662 q 265 957 160 894 q 506 1020 369 1020 q 788 938 683 1020 q 931 712 893 856 l 784 685 q 685 828 753 775 q 515 883 617 882 q 338 835 408 883 q 232 701 267 788 q 196 500 197 615 q 231 300 195 385 q 337 166 266 214 q 515 117 408 118 q 661 149 600 116 q 759 246 723 182 q 806 403 795 310 l 611 403 l 611 519 l 960 519 q 962 486 961 507 q 963 460 963 466 q 909 213 963 322 q 753 41 856 103 q 506 -21 651 -21 z "},"H":{"ha":985,"x_min":97,"x_max":888,"o":"m 97 0 l 97 1000 l 242 1000 l 242 569 l 742 569 l 742 1000 l 888 1000 l 888 0 l 742 0 l 742 432 l 242 432 l 242 0 l 97 0 z "},"Ħ":{"ha":1013,"x_min":14,"x_max":999,"o":"m 111 0 l 111 1000 l 256 1000 l 256 569 l 756 569 l 756 1000 l 902 1000 l 902 0 l 756 0 l 756 432 l 256 432 l 256 0 l 111 0 m 14 688 l 14 825 l 999 825 l 999 688 l 14 688 z "},"Ĥ":{"ha":985,"x_min":97,"x_max":888,"o":"m 249 1111 l 428 1319 l 553 1319 l 733 1111 l 594 1111 l 491 1234 l 388 1111 l 249 1111 m 97 0 l 97 1000 l 242 1000 l 242 569 l 742 569 l 742 1000 l 888 1000 l 888 0 l 742 0 l 742 432 l 242 432 l 242 0 l 97 0 z "},"I":{"ha":367,"x_min":111,"x_max":256,"o":"m 111 0 l 111 1000 l 256 1000 l 256 0 l 111 0 z "},"Í":{"ha":367,"x_min":111,"x_max":342,"o":"m 243 1111 l 129 1111 l 228 1354 l 342 1354 l 243 1111 m 111 0 l 111 1000 l 256 1000 l 256 0 l 111 0 z "},"Î":{"ha":367,"x_min":-60,"x_max":424,"o":"m -60 1111 l 119 1319 l 244 1319 l 424 1111 l 285 1111 l 182 1234 l 78 1111 l -60 1111 m 111 0 l 111 1000 l 256 1000 l 256 0 l 111 0 z "},"Ï":{"ha":367,"x_min":-26,"x_max":393,"o":"m 254 1126 l 254 1265 l 393 1265 l 393 1126 l 254 1126 m -26 1126 l -26 1265 l 113 1265 l 113 1126 l -26 1126 m 111 0 l 111 1000 l 256 1000 l 256 0 l 111 0 z "},"İ":{"ha":367,"x_min":107,"x_max":260,"o":"m 107 1152 l 107 1306 l 260 1306 l 260 1152 l 107 1152 m 111 0 l 111 1000 l 256 1000 l 256 0 l 111 0 z "},"Ị":{"ha":367,"x_min":107,"x_max":260,"o":"m 107 -269 l 107 -128 l 260 -128 l 260 -269 l 107 -269 m 111 0 l 111 1000 l 256 1000 l 256 0 l 111 0 z "},"Ì":{"ha":367,"x_min":26,"x_max":256,"o":"m 124 1111 l 26 1354 l 140 1354 l 238 1111 l 124 1111 m 111 0 l 111 1000 l 256 1000 l 256 0 l 111 0 z "},"Ỉ":{"ha":367,"x_min":42,"x_max":301,"o":"m 81 1292 l 42 1365 q 125 1408 77 1398 q 216 1401 173 1419 q 283 1332 260 1384 q 297 1255 301 1290 q 273 1190 293 1219 q 223 1143 253 1161 q 161 1118 193 1124 l 130 1180 q 191 1223 169 1194 q 195 1288 213 1251 q 164 1316 183 1311 q 122 1314 144 1321 q 81 1292 99 1306 m 111 0 l 111 1000 l 256 1000 l 256 0 l 111 0 z "},"Ī":{"ha":367,"x_min":2,"x_max":365,"o":"m 2 1167 l 2 1283 l 365 1283 l 365 1167 l 2 1167 m 111 0 l 111 1000 l 256 1000 l 256 0 l 111 0 z "},"Į":{"ha":367,"x_min":-15,"x_max":256,"o":"m 128 -333 q 55 -313 87 -333 q 3 -259 22 -292 q -15 -187 -15 -226 q 12 -90 -15 -139 q 86 3 40 -40 q 190 76 132 46 l 256 0 q 179 -55 214 -24 q 123 -119 144 -87 q 101 -177 101 -151 q 115 -210 101 -197 q 146 -223 128 -223 q 174 -216 159 -223 q 201 -196 188 -208 l 256 -266 q 198 -316 232 -299 q 128 -333 164 -333 m 111 0 l 111 1000 l 256 1000 l 256 0 l 111 0 z "},"Ĩ":{"ha":367,"x_min":-61,"x_max":429,"o":"m 296 1114 q 235 1128 264 1114 q 178 1159 206 1142 q 127 1191 151 1177 q 83 1205 103 1205 q 51 1182 59 1205 q 52 1130 44 1160 l -42 1130 q -32 1260 -61 1207 q 72 1313 -3 1313 q 133 1299 103 1313 q 190 1268 163 1285 q 240 1236 217 1250 q 285 1222 264 1222 q 316 1244 307 1222 q 315 1298 325 1266 l 410 1298 q 400 1168 429 1222 q 296 1114 371 1114 m 111 0 l 111 1000 l 256 1000 l 256 0 l 111 0 z "},"J":{"ha":678,"x_min":0,"x_max":567,"o":"m 288 -20 q 103 38 178 -20 q 0 195 28 97 l 144 229 q 193 150 153 183 q 283 117 233 117 q 351 133 315 117 q 403 188 386 150 q 417 245 415 213 q 419 320 419 277 l 419 1000 l 567 1000 l 567 320 q 566 241 567 276 q 559 176 566 206 q 534 113 553 145 q 430 12 494 44 q 288 -20 365 -20 z "},"Ĵ":{"ha":678,"x_min":0,"x_max":733,"o":"m 249 1111 l 428 1319 l 553 1319 l 733 1111 l 594 1111 l 491 1234 l 388 1111 l 249 1111 m 288 -20 q 103 38 178 -20 q 0 195 28 97 l 144 229 q 193 150 153 183 q 283 117 233 117 q 351 133 315 117 q 403 188 386 150 q 417 245 415 213 q 419 320 419 277 l 419 1000 l 567 1000 l 567 320 q 566 241 567 276 q 559 176 566 206 q 534 113 553 145 q 430 12 494 44 q 288 -20 365 -20 z "},"K":{"ha":874,"x_min":97,"x_max":874,"o":"m 97 0 l 97 1000 l 242 1000 l 242 533 l 661 1000 l 842 1000 l 399 512 l 874 0 l 688 0 l 242 478 l 242 0 l 97 0 z "},"Ķ":{"ha":874,"x_min":97,"x_max":874,"o":"m 392 -410 l 392 -343 q 422 -338 402 -343 q 457 -319 441 -333 q 473 -274 474 -304 l 392 -274 l 392 -128 l 539 -128 l 539 -274 q 496 -374 539 -337 q 392 -410 453 -410 m 97 0 l 97 1000 l 242 1000 l 242 533 l 661 1000 l 842 1000 l 399 512 l 874 0 l 688 0 l 242 478 l 242 0 l 97 0 z "},"L":{"ha":730,"x_min":111,"x_max":709,"o":"m 111 0 l 111 1000 l 256 1000 l 256 137 l 709 137 l 709 0 l 111 0 z "},"Ĺ":{"ha":730,"x_min":111,"x_max":709,"o":"m 243 1111 l 129 1111 l 228 1354 l 342 1354 l 243 1111 m 111 0 l 111 1000 l 256 1000 l 256 137 l 709 137 l 709 0 l 111 0 z "},"Ľ":{"ha":730,"x_min":111,"x_max":709,"o":"m 111 0 l 111 1000 l 256 1000 l 256 137 l 709 137 l 709 0 l 111 0 m 451 671 l 460 735 q 506 747 490 733 q 528 783 523 760 q 531 837 534 807 l 451 837 l 451 1004 l 604 1004 l 604 823 q 565 699 604 741 q 451 671 526 658 z "},"Ļ":{"ha":730,"x_min":111,"x_max":709,"o":"m 337 -410 l 337 -343 q 366 -338 347 -343 q 402 -319 385 -333 q 417 -274 418 -304 l 337 -274 l 337 -128 l 483 -128 l 483 -274 q 441 -374 483 -337 q 337 -410 398 -410 m 111 0 l 111 1000 l 256 1000 l 256 137 l 709 137 l 709 0 l 111 0 z "},"Ł":{"ha":749,"x_min":49,"x_max":728,"o":"m 49 253 l 49 412 l 503 673 l 503 515 l 49 253 m 130 0 l 130 1000 l 275 1000 l 275 137 l 728 137 l 728 0 l 130 0 z "},"M":{"ha":1181,"x_min":97,"x_max":1084,"o":"m 97 0 l 97 1000 l 228 1000 l 591 248 l 951 1000 l 1084 1000 l 1084 1 l 947 1 l 947 685 l 624 0 l 558 0 l 234 685 l 234 0 l 97 0 z "},"N":{"ha":981,"x_min":97,"x_max":884,"o":"m 97 0 l 97 1000 l 244 1000 l 737 257 l 737 1000 l 884 1000 l 884 0 l 737 0 l 244 744 l 244 0 l 97 0 z "},"Ń":{"ha":981,"x_min":97,"x_max":884,"o":"m 559 1111 l 445 1111 l 544 1354 l 658 1354 l 559 1111 m 97 0 l 97 1000 l 244 1000 l 737 257 l 737 1000 l 884 1000 l 884 0 l 737 0 l 244 744 l 244 0 l 97 0 z "},"Ň":{"ha":981,"x_min":97,"x_max":884,"o":"m 263 1319 l 402 1319 l 505 1197 l 608 1319 l 747 1319 l 567 1111 l 442 1111 l 263 1319 m 97 0 l 97 1000 l 244 1000 l 737 257 l 737 1000 l 884 1000 l 884 0 l 737 0 l 244 744 l 244 0 l 97 0 z "},"Ņ":{"ha":981,"x_min":97,"x_max":884,"o":"m 432 -410 l 432 -343 q 461 -338 442 -343 q 497 -319 481 -333 q 512 -274 513 -304 l 432 -274 l 432 -128 l 578 -128 l 578 -274 q 536 -374 578 -337 q 432 -410 493 -410 m 97 0 l 97 1000 l 244 1000 l 737 257 l 737 1000 l 884 1000 l 884 0 l 737 0 l 244 744 l 244 0 l 97 0 z "},"Ŋ":{"ha":981,"x_min":97,"x_max":884,"o":"m 737 1000 l 884 1000 l 884 -126 q 842 -260 884 -215 q 710 -304 799 -304 q 664 -301 688 -304 q 617 -292 641 -299 l 617 -181 q 649 -184 639 -183 q 669 -185 660 -185 q 739 -165 717 -185 q 761 -99 761 -145 q 747 -31 761 -66 q 697 62 733 4 l 244 744 l 244 0 l 97 0 l 97 1000 l 244 1000 l 737 257 l 737 1000 z "},"Ñ":{"ha":981,"x_min":97,"x_max":884,"o":"m 619 1114 q 558 1128 588 1114 q 501 1159 528 1142 q 451 1191 474 1177 q 406 1205 427 1205 q 375 1182 383 1205 q 376 1130 367 1160 l 281 1130 q 292 1260 263 1207 q 395 1313 321 1313 q 456 1299 427 1313 q 513 1268 485 1285 q 564 1236 540 1250 q 608 1222 588 1222 q 639 1244 631 1222 q 639 1298 648 1266 l 733 1298 q 723 1168 752 1222 q 619 1114 694 1114 m 97 0 l 97 1000 l 244 1000 l 737 257 l 737 1000 l 884 1000 l 884 0 l 737 0 l 244 744 l 244 0 l 97 0 z "},"O":{"ha":1028,"x_min":42,"x_max":987,"o":"m 515 -21 q 259 45 365 -21 q 98 228 153 110 q 42 500 42 345 q 98 772 42 655 q 259 955 153 890 q 515 1021 365 1021 q 770 955 664 1021 q 931 772 876 890 q 987 500 987 655 q 931 228 987 345 q 770 45 876 110 q 515 -21 664 -21 m 515 117 q 691 164 621 116 q 797 299 762 213 q 833 500 833 385 q 797 700 833 615 q 691 834 762 786 q 515 883 621 882 q 338 836 408 884 q 232 701 267 788 q 196 500 197 615 q 231 300 195 385 q 337 166 266 214 q 515 117 408 118 z "},"Ó":{"ha":1028,"x_min":42,"x_max":987,"o":"m 580 1111 l 466 1111 l 565 1354 l 679 1354 l 580 1111 m 515 -21 q 259 45 365 -21 q 98 228 153 110 q 42 500 42 345 q 98 772 42 655 q 259 955 153 890 q 515 1021 365 1021 q 770 955 664 1021 q 931 772 876 890 q 987 500 987 655 q 931 228 987 345 q 770 45 876 110 q 515 -21 664 -21 m 515 117 q 691 164 621 116 q 797 299 762 213 q 833 500 833 385 q 797 700 833 615 q 691 834 762 786 q 515 883 621 882 q 338 836 408 884 q 232 701 267 788 q 196 500 197 615 q 231 300 195 385 q 337 166 266 214 q 515 117 408 118 z "},"Ô":{"ha":1028,"x_min":42,"x_max":987,"o":"m 270 1111 l 450 1319 l 575 1319 l 755 1111 l 616 1111 l 513 1234 l 409 1111 l 270 1111 m 515 -21 q 259 45 365 -21 q 98 228 153 110 q 42 500 42 345 q 98 772 42 655 q 259 955 153 890 q 515 1021 365 1021 q 770 955 664 1021 q 931 772 876 890 q 987 500 987 655 q 931 228 987 345 q 770 45 876 110 q 515 -21 664 -21 m 515 117 q 691 164 621 116 q 797 299 762 213 q 833 500 833 385 q 797 700 833 615 q 691 834 762 786 q 515 883 621 882 q 338 836 408 884 q 232 701 267 788 q 196 500 197 615 q 231 300 195 385 q 337 166 266 214 q 515 117 408 118 z "},"Ố":{"ha":1028,"x_min":42,"x_max":987,"o":"m 282 1111 l 462 1319 l 587 1319 l 767 1111 l 628 1111 l 524 1234 l 421 1111 l 282 1111 m 851 1257 l 738 1257 l 837 1500 l 951 1500 l 851 1257 m 515 -21 q 259 45 365 -21 q 98 228 153 110 q 42 500 42 345 q 98 772 42 655 q 259 955 153 890 q 515 1021 365 1021 q 770 955 664 1021 q 931 772 876 890 q 987 500 987 655 q 931 228 987 345 q 770 45 876 110 q 515 -21 664 -21 m 515 117 q 691 164 621 116 q 797 299 762 213 q 833 500 833 385 q 797 700 833 615 q 691 834 762 786 q 515 883 621 882 q 338 836 408 884 q 232 701 267 788 q 196 500 197 615 q 231 300 195 385 q 337 166 266 214 q 515 117 408 118 z "},"Ộ":{"ha":1028,"x_min":42,"x_max":987,"o":"m 270 1111 l 450 1319 l 575 1319 l 755 1111 l 616 1111 l 513 1234 l 409 1111 l 270 1111 m 438 -269 l 438 -128 l 591 -128 l 591 -269 l 438 -269 m 515 -21 q 259 45 365 -21 q 98 228 153 110 q 42 500 42 345 q 98 772 42 655 q 259 955 153 890 q 515 1021 365 1021 q 770 955 664 1021 q 931 772 876 890 q 987 500 987 655 q 931 228 987 345 q 770 45 876 110 q 515 -21 664 -21 m 515 117 q 691 164 621 116 q 797 299 762 213 q 833 500 833 385 q 797 700 833 615 q 691 834 762 786 q 515 883 621 882 q 338 836 408 884 q 232 701 267 788 q 196 500 197 615 q 231 300 195 385 q 337 166 266 214 q 515 117 408 118 z "},"Ồ":{"ha":1028,"x_min":42,"x_max":987,"o":"m 271 1111 l 450 1319 l 575 1319 l 755 1111 l 616 1111 l 513 1234 l 410 1111 l 271 1111 m 732 1257 l 633 1500 l 747 1500 l 846 1257 l 732 1257 m 515 -21 q 259 45 365 -21 q 98 228 153 110 q 42 500 42 345 q 98 772 42 655 q 259 955 153 890 q 515 1021 365 1021 q 770 955 664 1021 q 931 772 876 890 q 987 500 987 655 q 931 228 987 345 q 770 45 876 110 q 515 -21 664 -21 m 515 117 q 691 164 621 116 q 797 299 762 213 q 833 500 833 385 q 797 700 833 615 q 691 834 762 786 q 515 883 621 882 q 338 836 408 884 q 232 701 267 788 q 196 500 197 615 q 231 300 195 385 q 337 166 266 214 q 515 117 408 118 z "},"Ổ":{"ha":1028,"x_min":42,"x_max":987,"o":"m 278 1111 l 458 1319 l 583 1319 l 763 1111 l 624 1111 l 521 1234 l 417 1111 l 278 1111 m 744 1292 l 705 1365 q 788 1408 740 1398 q 880 1401 836 1419 q 947 1332 923 1384 q 960 1255 965 1290 q 936 1190 956 1219 q 886 1143 916 1161 q 824 1118 856 1124 l 793 1180 q 855 1223 833 1194 q 858 1288 876 1251 q 827 1316 847 1311 q 785 1314 807 1321 q 744 1292 763 1306 m 515 -21 q 259 45 365 -21 q 98 228 153 110 q 42 500 42 345 q 98 772 42 655 q 259 955 153 890 q 515 1021 365 1021 q 770 955 664 1021 q 931 772 876 890 q 987 500 987 655 q 931 228 987 345 q 770 45 876 110 q 515 -21 664 -21 m 515 117 q 691 164 621 116 q 797 299 762 213 q 833 500 833 385 q 797 700 833 615 q 691 834 762 786 q 515 883 621 882 q 338 836 408 884 q 232 701 267 788 q 196 500 197 615 q 231 300 195 385 q 337 166 266 214 q 515 117 408 118 z "},"Ỗ":{"ha":1028,"x_min":42,"x_max":987,"o":"m 265 1111 l 445 1319 l 570 1319 l 750 1111 l 611 1111 l 508 1234 l 404 1111 l 265 1111 m 626 1354 q 565 1368 594 1354 q 509 1400 536 1382 q 458 1431 482 1417 q 414 1445 434 1445 q 382 1423 390 1445 q 383 1370 374 1400 l 288 1370 q 299 1500 269 1447 q 402 1553 328 1553 q 464 1540 434 1553 q 520 1508 493 1526 q 571 1476 547 1490 q 615 1463 594 1463 q 647 1484 638 1463 q 646 1538 656 1506 l 740 1538 q 731 1408 760 1463 q 626 1354 701 1354 m 515 -21 q 259 45 365 -21 q 98 228 153 110 q 42 500 42 345 q 98 772 42 655 q 259 955 153 890 q 515 1021 365 1021 q 770 955 664 1021 q 931 772 876 890 q 987 500 987 655 q 931 228 987 345 q 770 45 876 110 q 515 -21 664 -21 m 515 117 q 691 164 621 116 q 797 299 762 213 q 833 500 833 385 q 797 700 833 615 q 691 834 762 786 q 515 883 621 882 q 338 836 408 884 q 232 701 267 788 q 196 500 197 615 q 231 300 195 385 q 337 166 266 214 q 515 117 408 118 z "},"Ö":{"ha":1028,"x_min":42,"x_max":987,"o":"m 585 1126 l 585 1265 l 724 1265 l 724 1126 l 585 1126 m 305 1126 l 305 1265 l 444 1265 l 444 1126 l 305 1126 m 515 -21 q 259 45 365 -21 q 98 228 153 110 q 42 500 42 345 q 98 772 42 655 q 259 955 153 890 q 515 1021 365 1021 q 770 955 664 1021 q 931 772 876 890 q 987 500 987 655 q 931 228 987 345 q 770 45 876 110 q 515 -21 664 -21 m 515 117 q 691 164 621 116 q 797 299 762 213 q 833 500 833 385 q 797 700 833 615 q 691 834 762 786 q 515 883 621 882 q 338 836 408 884 q 232 701 267 788 q 196 500 197 615 q 231 300 195 385 q 337 166 266 214 q 515 117 408 118 z "},"Ọ":{"ha":1028,"x_min":42,"x_max":987,"o":"m 432 -269 l 432 -128 l 585 -128 l 585 -269 l 432 -269 m 515 -21 q 259 45 365 -21 q 98 228 153 110 q 42 500 42 345 q 98 772 42 655 q 259 955 153 890 q 515 1021 365 1021 q 770 955 664 1021 q 931 772 876 890 q 987 500 987 655 q 931 228 987 345 q 770 45 876 110 q 515 -21 664 -21 m 515 117 q 691 164 621 116 q 797 299 762 213 q 833 500 833 385 q 797 700 833 615 q 691 834 762 786 q 515 883 621 882 q 338 836 408 884 q 232 701 267 788 q 196 500 197 615 q 231 300 195 385 q 337 166 266 214 q 515 117 408 118 z "},"Ò":{"ha":1028,"x_min":42,"x_max":987,"o":"m 447 1111 l 347 1354 l 461 1354 l 560 1111 l 447 1111 m 515 -21 q 259 45 365 -21 q 98 228 153 110 q 42 500 42 345 q 98 772 42 655 q 259 955 153 890 q 515 1021 365 1021 q 770 955 664 1021 q 931 772 876 890 q 987 500 987 655 q 931 228 987 345 q 770 45 876 110 q 515 -21 664 -21 m 515 117 q 691 164 621 116 q 797 299 762 213 q 833 500 833 385 q 797 700 833 615 q 691 834 762 786 q 515 883 621 882 q 338 836 408 884 q 232 701 267 788 q 196 500 197 615 q 231 300 195 385 q 337 166 266 214 q 515 117 408 118 z "},"Ỏ":{"ha":1028,"x_min":42,"x_max":987,"o":"m 450 1292 l 410 1365 q 493 1408 446 1398 q 585 1401 541 1419 q 651 1332 628 1384 q 666 1255 670 1290 q 641 1190 661 1219 q 591 1143 621 1161 q 529 1118 561 1124 l 498 1180 q 560 1223 538 1194 q 564 1288 582 1251 q 532 1316 552 1311 q 490 1314 512 1321 q 450 1292 468 1306 m 515 -21 q 259 45 365 -21 q 98 228 153 110 q 42 500 42 345 q 98 772 42 655 q 259 955 153 890 q 515 1021 365 1021 q 770 955 664 1021 q 931 772 876 890 q 987 500 987 655 q 931 228 987 345 q 770 45 876 110 q 515 -21 664 -21 m 515 117 q 691 164 621 116 q 797 299 762 213 q 833 500 833 385 q 797 700 833 615 q 691 834 762 786 q 515 883 621 882 q 338 836 408 884 q 232 701 267 788 q 196 500 197 615 q 231 300 195 385 q 337 166 266 214 q 515 117 408 118 z "},"Ơ":{"ha":1028,"x_min":42,"x_max":987,"o":"m 784 1124 l 897 1125 q 891 1007 906 1056 q 833 935 876 959 q 738 915 793 914 q 640 942 683 916 l 640 1007 q 696 997 673 999 q 738 1004 719 995 q 780 1055 774 1022 q 784 1124 785 1088 m 515 -21 q 259 45 365 -21 q 98 228 153 110 q 42 500 42 345 q 98 772 42 655 q 259 955 153 890 q 515 1021 365 1021 q 770 955 664 1021 q 931 772 876 890 q 987 500 987 655 q 931 228 987 345 q 770 45 876 110 q 515 -21 664 -21 m 515 117 q 691 164 621 116 q 797 299 762 213 q 833 500 833 385 q 797 700 833 615 q 691 834 762 786 q 515 883 621 882 q 338 836 408 884 q 232 701 267 788 q 196 500 197 615 q 231 300 195 385 q 337 166 266 214 q 515 117 408 118 z "},"Ớ":{"ha":1028,"x_min":42,"x_max":987,"o":"m 784 1124 l 897 1125 q 891 1007 906 1056 q 833 935 876 959 q 738 915 793 914 q 640 942 683 916 l 640 1007 q 696 997 673 999 q 738 1004 719 995 q 780 1055 774 1022 q 784 1124 785 1088 m 580 1111 l 466 1111 l 565 1354 l 679 1354 l 580 1111 m 515 -21 q 259 45 365 -21 q 98 228 153 110 q 42 500 42 345 q 98 772 42 655 q 259 955 153 890 q 515 1021 365 1021 q 770 955 664 1021 q 931 772 876 890 q 987 500 987 655 q 931 228 987 345 q 770 45 876 110 q 515 -21 664 -21 m 515 117 q 691 164 621 116 q 797 299 762 213 q 833 500 833 385 q 797 700 833 615 q 691 834 762 786 q 515 883 621 882 q 338 836 408 884 q 232 701 267 788 q 196 500 197 615 q 231 300 195 385 q 337 166 266 214 q 515 117 408 118 z "},"Ợ":{"ha":1028,"x_min":42,"x_max":987,"o":"m 449 -269 l 449 -128 l 602 -128 l 602 -269 l 449 -269 m 784 1124 l 897 1125 q 891 1007 906 1056 q 833 935 876 959 q 738 915 793 914 q 640 942 683 916 l 640 1007 q 696 997 673 999 q 738 1004 719 995 q 780 1055 774 1022 q 784 1124 785 1088 m 515 -21 q 259 45 365 -21 q 98 228 153 110 q 42 500 42 345 q 98 772 42 655 q 259 955 153 890 q 515 1021 365 1021 q 770 955 664 1021 q 931 772 876 890 q 987 500 987 655 q 931 228 987 345 q 770 45 876 110 q 515 -21 664 -21 m 515 117 q 691 164 621 116 q 797 299 762 213 q 833 500 833 385 q 797 700 833 615 q 691 834 762 786 q 515 883 621 882 q 338 836 408 884 q 232 701 267 788 q 196 500 197 615 q 231 300 195 385 q 337 166 266 214 q 515 117 408 118 z "},"Ờ":{"ha":1028,"x_min":42,"x_max":987,"o":"m 784 1124 l 897 1125 q 891 1007 906 1056 q 833 935 876 959 q 738 915 793 914 q 640 942 683 916 l 640 1007 q 696 997 673 999 q 738 1004 719 995 q 780 1055 774 1022 q 784 1124 785 1088 m 447 1111 l 347 1354 l 461 1354 l 560 1111 l 447 1111 m 515 -21 q 259 45 365 -21 q 98 228 153 110 q 42 500 42 345 q 98 772 42 655 q 259 955 153 890 q 515 1021 365 1021 q 770 955 664 1021 q 931 772 876 890 q 987 500 987 655 q 931 228 987 345 q 770 45 876 110 q 515 -21 664 -21 m 515 117 q 691 164 621 116 q 797 299 762 213 q 833 500 833 385 q 797 700 833 615 q 691 834 762 786 q 515 883 621 882 q 338 836 408 884 q 232 701 267 788 q 196 500 197 615 q 231 300 195 385 q 337 166 266 214 q 515 117 408 118 z "},"Ở":{"ha":1028,"x_min":42,"x_max":987,"o":"m 784 1124 l 897 1125 q 891 1007 906 1056 q 833 935 876 959 q 738 915 793 914 q 640 942 683 916 l 640 1007 q 696 997 673 999 q 738 1004 719 995 q 780 1055 774 1022 q 784 1124 785 1088 m 450 1292 l 410 1365 q 493 1408 446 1398 q 585 1401 541 1419 q 651 1332 628 1384 q 666 1255 670 1290 q 641 1190 661 1219 q 591 1143 621 1161 q 529 1118 561 1124 l 498 1180 q 560 1223 538 1194 q 564 1288 582 1251 q 532 1316 552 1311 q 490 1314 512 1321 q 450 1292 468 1306 m 515 -21 q 259 45 365 -21 q 98 228 153 110 q 42 500 42 345 q 98 772 42 655 q 259 955 153 890 q 515 1021 365 1021 q 770 955 664 1021 q 931 772 876 890 q 987 500 987 655 q 931 228 987 345 q 770 45 876 110 q 515 -21 664 -21 m 515 117 q 691 164 621 116 q 797 299 762 213 q 833 500 833 385 q 797 700 833 615 q 691 834 762 786 q 515 883 621 882 q 338 836 408 884 q 232 701 267 788 q 196 500 197 615 q 231 300 195 385 q 337 166 266 214 q 515 117 408 118 z "},"Ỡ":{"ha":1028,"x_min":42,"x_max":987,"o":"m 784 1124 l 897 1125 q 891 1007 906 1056 q 833 935 876 959 q 738 915 793 914 q 640 942 683 916 l 640 1007 q 696 997 673 999 q 738 1004 719 995 q 780 1055 774 1022 q 784 1124 785 1088 m 515 -21 q 259 45 365 -21 q 98 228 153 110 q 42 500 42 345 q 98 772 42 655 q 259 955 153 890 q 515 1021 365 1021 q 770 955 664 1021 q 931 772 876 890 q 987 500 987 655 q 931 228 987 345 q 770 45 876 110 q 515 -21 664 -21 m 515 117 q 691 164 621 116 q 797 299 762 213 q 833 500 833 385 q 797 700 833 615 q 691 834 762 786 q 515 883 621 882 q 338 836 408 884 q 232 701 267 788 q 196 500 197 615 q 231 300 195 385 q 337 166 266 214 q 515 117 408 118 m 625 1114 q 564 1128 594 1114 q 508 1159 535 1142 q 457 1191 481 1177 q 413 1205 433 1205 q 381 1182 389 1205 q 382 1130 374 1160 l 288 1130 q 298 1260 269 1207 q 401 1313 327 1313 q 463 1299 433 1313 q 519 1268 492 1285 q 570 1236 546 1250 q 614 1222 594 1222 q 645 1244 637 1222 q 645 1298 654 1266 l 740 1298 q 729 1168 758 1222 q 625 1114 700 1114 z "},"Ő":{"ha":1028,"x_min":42,"x_max":987,"o":"m 701 1111 l 588 1111 l 687 1354 l 801 1354 l 701 1111 m 424 1111 l 310 1111 l 410 1354 l 524 1354 l 424 1111 m 515 -21 q 259 45 365 -21 q 98 228 153 110 q 42 500 42 345 q 98 772 42 655 q 259 955 153 890 q 515 1021 365 1021 q 770 955 664 1021 q 931 772 876 890 q 987 500 987 655 q 931 228 987 345 q 770 45 876 110 q 515 -21 664 -21 m 515 117 q 691 164 621 116 q 797 299 762 213 q 833 500 833 385 q 797 700 833 615 q 691 834 762 786 q 515 883 621 882 q 338 836 408 884 q 232 701 267 788 q 196 500 197 615 q 231 300 195 385 q 337 166 266 214 q 515 117 408 118 z "},"Ō":{"ha":1028,"x_min":42,"x_max":987,"o":"m 333 1167 l 333 1283 l 696 1283 l 696 1167 l 333 1167 m 515 -21 q 259 45 365 -21 q 98 228 153 110 q 42 500 42 345 q 98 772 42 655 q 259 955 153 890 q 515 1021 365 1021 q 770 955 664 1021 q 931 772 876 890 q 987 500 987 655 q 931 228 987 345 q 770 45 876 110 q 515 -21 664 -21 m 515 117 q 691 164 621 116 q 797 299 762 213 q 833 500 833 385 q 797 700 833 615 q 691 834 762 786 q 515 883 621 882 q 338 836 408 884 q 232 701 267 788 q 196 500 197 615 q 231 300 195 385 q 337 166 266 214 q 515 117 408 118 z "},"Ø":{"ha":1028,"x_min":42,"x_max":1000,"o":"m 149 -18 l 46 74 l 165 207 l 186 226 l 757 858 l 767 873 l 897 1017 l 1000 924 l 859 767 l 843 755 l 272 122 l 259 104 l 149 -18 m 515 -21 q 259 45 365 -21 q 98 228 153 110 q 42 500 42 345 q 98 772 42 655 q 259 955 153 890 q 515 1021 365 1021 q 770 955 664 1021 q 931 772 876 890 q 987 500 987 655 q 931 228 987 345 q 770 45 876 110 q 515 -21 664 -21 m 515 117 q 691 164 621 116 q 797 299 762 213 q 833 500 833 385 q 797 700 833 615 q 691 834 762 786 q 515 883 621 882 q 338 836 408 884 q 232 701 267 788 q 196 500 197 615 q 231 300 195 385 q 337 166 266 214 q 515 117 408 118 z "},"Õ":{"ha":1028,"x_min":42,"x_max":987,"o":"m 515 -21 q 259 45 365 -21 q 98 228 153 110 q 42 500 42 345 q 98 772 42 655 q 259 955 153 890 q 515 1021 365 1021 q 770 955 664 1021 q 931 772 876 890 q 987 500 987 655 q 931 228 987 345 q 770 45 876 110 q 515 -21 664 -21 m 515 117 q 691 164 621 116 q 797 299 762 213 q 833 500 833 385 q 797 700 833 615 q 691 834 762 786 q 515 883 621 882 q 338 836 408 884 q 232 701 267 788 q 196 500 197 615 q 231 300 195 385 q 337 166 266 214 q 515 117 408 118 m 635 1114 q 574 1128 603 1114 q 518 1159 545 1142 q 467 1191 491 1177 q 423 1205 443 1205 q 391 1182 399 1205 q 392 1130 383 1160 l 297 1130 q 308 1260 279 1207 q 411 1313 337 1313 q 473 1299 443 1313 q 529 1268 502 1285 q 580 1236 556 1250 q 624 1222 604 1222 q 656 1244 647 1222 q 656 1298 665 1266 l 750 1298 q 740 1168 769 1222 q 635 1114 710 1114 z "},"Œ":{"ha":1549,"x_min":42,"x_max":1480,"o":"m 515 -21 q 259 45 365 -21 q 98 228 153 110 q 42 500 42 345 q 98 772 42 655 q 259 955 153 890 q 515 1021 365 1021 q 770 955 664 1021 q 931 772 876 890 q 987 500 987 655 q 931 228 987 345 q 770 45 876 110 q 515 -21 664 -21 m 515 117 q 691 164 621 116 q 797 299 762 213 q 833 500 833 385 q 797 700 833 615 q 691 834 762 786 q 515 883 621 882 q 338 836 408 884 q 232 701 267 788 q 196 500 197 615 q 231 300 195 385 q 337 166 266 214 q 515 117 408 118 m 841 0 l 841 1000 l 1480 1000 l 1480 863 l 986 863 l 986 583 l 1397 583 l 1397 446 l 986 446 l 986 137 l 1480 137 l 1480 0 l 841 0 z "},"P":{"ha":871,"x_min":97,"x_max":829,"o":"m 97 0 l 97 1000 l 501 1000 q 538 999 516 1000 q 578 994 559 998 q 718 938 662 981 q 801 827 774 894 q 829 680 829 760 q 801 532 829 599 q 718 422 774 465 q 578 365 662 378 q 537 360 559 362 q 501 359 515 359 l 242 359 l 242 0 l 97 0 m 242 497 l 496 497 q 527 498 510 497 q 559 503 544 499 q 631 541 603 513 q 669 606 658 569 q 681 680 681 643 q 669 753 681 717 q 631 818 658 790 q 559 856 603 846 q 527 862 544 860 q 496 863 510 863 l 242 863 l 242 497 z "},"Þ":{"ha":859,"x_min":97,"x_max":818,"o":"m 97 0 l 97 1000 l 244 1000 l 244 820 l 494 820 q 597 803 547 820 q 677 764 640 790 q 741 703 715 738 q 797 608 777 661 q 817 500 817 555 q 799 395 818 447 q 747 302 779 344 q 636 214 703 247 q 494 181 569 181 l 244 181 l 244 0 l 97 0 m 244 317 l 493 317 q 566 336 529 317 q 629 387 603 354 q 659 440 648 411 q 669 500 670 469 q 656 567 668 535 q 620 624 644 599 q 562 666 597 649 q 493 683 528 683 l 244 683 l 244 317 z "},"Q":{"ha":1028,"x_min":42,"x_max":987,"o":"m 881 -20 l 602 258 l 695 351 l 973 73 l 881 -20 m 515 -21 q 259 45 365 -21 q 98 228 153 110 q 42 500 42 345 q 98 772 42 655 q 259 955 153 890 q 515 1021 365 1021 q 770 955 664 1021 q 931 772 876 890 q 987 500 987 655 q 931 228 987 345 q 770 45 876 110 q 515 -21 664 -21 m 515 117 q 691 164 621 116 q 797 299 762 213 q 833 500 833 385 q 797 700 833 615 q 691 834 762 786 q 515 883 621 882 q 338 836 408 884 q 232 701 267 788 q 196 500 197 615 q 231 300 195 385 q 337 166 266 214 q 515 117 408 118 z "},"R":{"ha":903,"x_min":97,"x_max":848,"o":"m 97 0 l 97 1000 l 501 1000 q 538 999 516 1000 q 578 994 559 998 q 718 938 662 981 q 801 827 774 894 q 829 680 829 760 q 768 474 829 560 q 585 366 707 388 l 526 359 l 242 359 l 242 0 l 97 0 m 682 0 l 485 407 l 631 444 l 848 0 l 682 0 m 242 497 l 496 497 q 527 498 510 497 q 559 503 544 499 q 631 541 603 513 q 669 606 658 569 q 681 680 681 643 q 669 753 681 717 q 631 818 658 790 q 559 856 603 846 q 527 862 544 860 q 496 863 510 863 l 242 863 l 242 497 z "},"Ŕ":{"ha":903,"x_min":97,"x_max":848,"o":"m 483 1111 l 369 1111 l 468 1354 l 582 1354 l 483 1111 m 97 0 l 97 1000 l 501 1000 q 538 999 516 1000 q 578 994 559 998 q 718 938 662 981 q 801 827 774 894 q 829 680 829 760 q 768 474 829 560 q 585 366 707 388 l 526 359 l 242 359 l 242 0 l 97 0 m 682 0 l 485 407 l 631 444 l 848 0 l 682 0 m 242 497 l 496 497 q 527 498 510 497 q 559 503 544 499 q 631 541 603 513 q 669 606 658 569 q 681 680 681 643 q 669 753 681 717 q 631 818 658 790 q 559 856 603 846 q 527 862 544 860 q 496 863 510 863 l 242 863 l 242 497 z "},"Ř":{"ha":903,"x_min":97,"x_max":848,"o":"m 174 1319 l 313 1319 l 416 1197 l 519 1319 l 658 1319 l 478 1111 l 353 1111 l 174 1319 m 97 0 l 97 1000 l 501 1000 q 538 999 516 1000 q 578 994 559 998 q 718 938 662 981 q 801 827 774 894 q 829 680 829 760 q 768 474 829 560 q 585 366 707 388 l 526 359 l 242 359 l 242 0 l 97 0 m 682 0 l 485 407 l 631 444 l 848 0 l 682 0 m 242 497 l 496 497 q 527 498 510 497 q 559 503 544 499 q 631 541 603 513 q 669 606 658 569 q 681 680 681 643 q 669 753 681 717 q 631 818 658 790 q 559 856 603 846 q 527 862 544 860 q 496 863 510 863 l 242 863 l 242 497 z "},"Ŗ":{"ha":903,"x_min":97,"x_max":848,"o":"m 374 -410 l 374 -343 q 403 -338 383 -343 q 438 -319 422 -333 q 453 -274 454 -304 l 374 -274 l 374 -128 l 520 -128 l 520 -274 q 477 -374 520 -337 q 374 -410 435 -410 m 97 0 l 97 1000 l 501 1000 q 538 999 516 1000 q 578 994 559 998 q 718 938 662 981 q 801 827 774 894 q 829 680 829 760 q 768 474 829 560 q 585 366 707 388 l 526 359 l 242 359 l 242 0 l 97 0 m 682 0 l 485 407 l 631 444 l 848 0 l 682 0 m 242 497 l 496 497 q 527 498 510 497 q 559 503 544 499 q 631 541 603 513 q 669 606 658 569 q 681 680 681 643 q 669 753 681 717 q 631 818 658 790 q 559 856 603 846 q 527 862 544 860 q 496 863 510 863 l 242 863 l 242 497 z "},"S":{"ha":894,"x_min":51,"x_max":843,"o":"m 460 -21 q 266 16 352 -21 q 123 123 179 53 q 51 287 67 192 l 202 310 q 298 167 225 218 q 468 116 371 116 q 579 135 528 116 q 661 190 630 154 q 692 276 692 226 q 682 324 692 303 q 657 360 673 344 q 617 387 640 376 q 566 407 594 399 l 310 483 q 233 511 272 494 q 162 558 194 529 q 110 630 130 587 q 90 733 90 672 q 137 890 90 826 q 266 987 185 954 q 448 1020 347 1020 q 630 984 549 1019 q 763 884 710 949 q 836 727 816 819 l 681 701 q 636 798 670 757 q 553 860 602 838 q 446 883 503 882 q 344 866 390 884 q 270 815 298 848 q 243 740 243 783 q 267 673 243 699 q 327 632 292 647 q 399 608 363 617 l 583 556 q 662 530 618 546 q 748 484 706 513 q 816 407 789 455 q 843 285 843 358 q 813 152 843 210 q 729 57 782 95 q 606 -1 676 18 q 460 -21 537 -21 z "},"Ś":{"ha":894,"x_min":51,"x_max":843,"o":"m 512 1111 l 398 1111 l 497 1354 l 610 1354 l 512 1111 m 460 -21 q 266 16 352 -21 q 123 123 179 53 q 51 287 67 192 l 202 310 q 298 167 225 218 q 468 116 371 116 q 579 135 528 116 q 661 190 630 154 q 692 276 692 226 q 682 324 692 303 q 657 360 673 344 q 617 387 640 376 q 566 407 594 399 l 310 483 q 233 511 272 494 q 162 558 194 529 q 110 630 130 587 q 90 733 90 672 q 137 890 90 826 q 266 987 185 954 q 448 1020 347 1020 q 630 984 549 1019 q 763 884 710 949 q 836 727 816 819 l 681 701 q 636 798 670 757 q 553 860 602 838 q 446 883 503 882 q 344 866 390 884 q 270 815 298 848 q 243 740 243 783 q 267 673 243 699 q 327 632 292 647 q 399 608 363 617 l 583 556 q 662 530 618 546 q 748 484 706 513 q 816 407 789 455 q 843 285 843 358 q 813 152 843 210 q 729 57 782 95 q 606 -1 676 18 q 460 -21 537 -21 z "},"Š":{"ha":894,"x_min":51,"x_max":843,"o":"m 222 1319 l 360 1319 l 464 1197 l 567 1319 l 706 1319 l 526 1111 l 401 1111 l 222 1319 m 460 -21 q 266 16 352 -21 q 123 123 179 53 q 51 287 67 192 l 202 310 q 298 167 225 218 q 468 116 371 116 q 579 135 528 116 q 661 190 630 154 q 692 276 692 226 q 682 324 692 303 q 657 360 673 344 q 617 387 640 376 q 566 407 594 399 l 310 483 q 233 511 272 494 q 162 558 194 529 q 110 630 130 587 q 90 733 90 672 q 137 890 90 826 q 266 987 185 954 q 448 1020 347 1020 q 630 984 549 1019 q 763 884 710 949 q 836 727 816 819 l 681 701 q 636 798 670 757 q 553 860 602 838 q 446 883 503 882 q 344 866 390 884 q 270 815 298 848 q 243 740 243 783 q 267 673 243 699 q 327 632 292 647 q 399 608 363 617 l 583 556 q 662 530 618 546 q 748 484 706 513 q 816 407 789 455 q 843 285 843 358 q 813 152 843 210 q 729 57 782 95 q 606 -1 676 18 q 460 -21 537 -21 z "},"Ş":{"ha":894,"x_min":51,"x_max":843,"o":"m 453 -335 q 403 -328 426 -335 q 360 -310 380 -321 l 393 -222 q 441 -231 423 -231 q 476 -218 464 -231 q 488 -188 488 -204 q 461 -147 488 -160 q 397 -123 433 -134 l 447 19 l 540 20 l 510 -66 q 571 -116 549 -85 q 594 -192 594 -147 q 552 -295 594 -255 q 453 -335 510 -335 m 460 -21 q 266 16 352 -21 q 123 123 179 53 q 51 287 67 192 l 202 310 q 298 167 225 218 q 468 116 371 116 q 579 135 528 116 q 661 190 630 154 q 692 276 692 226 q 682 324 692 303 q 657 360 673 344 q 617 387 640 376 q 566 407 594 399 l 310 483 q 233 511 272 494 q 162 558 194 529 q 110 630 130 587 q 90 733 90 672 q 137 890 90 826 q 266 987 185 954 q 448 1020 347 1020 q 630 984 549 1019 q 763 884 710 949 q 836 727 816 819 l 681 701 q 636 798 670 757 q 553 860 602 838 q 446 883 503 882 q 344 866 390 884 q 270 815 298 848 q 243 740 243 783 q 267 673 243 699 q 327 632 292 647 q 399 608 363 617 l 583 556 q 662 530 618 546 q 748 484 706 513 q 816 407 789 455 q 843 285 843 358 q 813 152 843 210 q 729 57 782 95 q 606 -1 676 18 q 460 -21 537 -21 z "},"Ŝ":{"ha":894,"x_min":51,"x_max":843,"o":"m 216 1111 l 395 1319 l 520 1319 l 700 1111 l 561 1111 l 458 1234 l 355 1111 l 216 1111 m 460 -21 q 266 16 352 -21 q 123 123 179 53 q 51 287 67 192 l 202 310 q 298 167 225 218 q 468 116 371 116 q 579 135 528 116 q 661 190 630 154 q 692 276 692 226 q 682 324 692 303 q 657 360 673 344 q 617 387 640 376 q 566 407 594 399 l 310 483 q 233 511 272 494 q 162 558 194 529 q 110 630 130 587 q 90 733 90 672 q 137 890 90 826 q 266 987 185 954 q 448 1020 347 1020 q 630 984 549 1019 q 763 884 710 949 q 836 727 816 819 l 681 701 q 636 798 670 757 q 553 860 602 838 q 446 883 503 882 q 344 866 390 884 q 270 815 298 848 q 243 740 243 783 q 267 673 243 699 q 327 632 292 647 q 399 608 363 617 l 583 556 q 662 530 618 546 q 748 484 706 513 q 816 407 789 455 q 843 285 843 358 q 813 152 843 210 q 729 57 782 95 q 606 -1 676 18 q 460 -21 537 -21 z "},"Ș":{"ha":894,"x_min":51,"x_max":843,"o":"m 406 -410 l 406 -343 q 435 -338 416 -343 q 471 -319 455 -333 q 486 -274 487 -304 l 406 -274 l 406 -128 l 552 -128 l 552 -274 q 510 -374 552 -337 q 406 -410 467 -410 m 460 -21 q 266 16 352 -21 q 123 123 179 53 q 51 287 67 192 l 202 310 q 298 167 225 218 q 468 116 371 116 q 579 135 528 116 q 661 190 630 154 q 692 276 692 226 q 682 324 692 303 q 657 360 673 344 q 617 387 640 376 q 566 407 594 399 l 310 483 q 233 511 272 494 q 162 558 194 529 q 110 630 130 587 q 90 733 90 672 q 137 890 90 826 q 266 987 185 954 q 448 1020 347 1020 q 630 984 549 1019 q 763 884 710 949 q 836 727 816 819 l 681 701 q 636 798 670 757 q 553 860 602 838 q 446 883 503 882 q 344 866 390 884 q 270 815 298 848 q 243 740 243 783 q 267 673 243 699 q 327 632 292 647 q 399 608 363 617 l 583 556 q 662 530 618 546 q 748 484 706 513 q 816 407 789 455 q 843 285 843 358 q 813 152 843 210 q 729 57 782 95 q 606 -1 676 18 q 460 -21 537 -21 z "},"ẞ":{"ha":1022,"x_min":97,"x_max":939,"o":"m 622 -21 q 542 -15 577 -21 q 480 0 506 -10 l 480 142 q 541 127 510 132 q 603 123 571 123 q 702 141 658 123 q 771 198 745 160 q 796 294 797 236 q 763 397 796 357 q 676 456 731 436 q 555 476 622 475 l 532 572 l 695 842 q 620 871 661 860 q 527 883 578 883 q 354 835 423 883 q 261 701 285 787 q 248 621 252 665 q 244 533 244 577 l 244 0 l 97 0 l 97 577 q 102 684 97 639 q 120 765 108 730 q 211 914 150 858 q 351 995 272 970 q 516 1021 430 1021 q 672 1002 605 1021 q 789 957 738 984 q 878 905 839 931 l 691 578 q 813 531 756 567 q 904 435 869 495 q 939 290 939 375 q 856 64 939 148 q 622 -21 773 -21 z "},"T":{"ha":838,"x_min":14,"x_max":824,"o":"m 347 0 l 347 863 l 14 863 l 14 1000 l 824 1000 l 824 863 l 492 863 l 492 0 l 347 0 z "},"Ŧ":{"ha":838,"x_min":14,"x_max":824,"o":"m 99 427 l 99 573 l 738 573 l 738 427 l 99 427 m 347 0 l 347 863 l 14 863 l 14 1000 l 824 1000 l 824 863 l 492 863 l 492 0 l 347 0 z "},"Ť":{"ha":838,"x_min":14,"x_max":824,"o":"m 175 1319 l 314 1319 l 417 1197 l 520 1319 l 659 1319 l 480 1111 l 355 1111 l 175 1319 m 347 0 l 347 863 l 14 863 l 14 1000 l 824 1000 l 824 863 l 492 863 l 492 0 l 347 0 z "},"Ţ":{"ha":838,"x_min":14,"x_max":824,"o":"m 347 0 l 347 863 l 14 863 l 14 1000 l 824 1000 l 824 863 l 492 863 l 492 0 l 347 0 m 382 -338 q 332 -331 355 -338 q 288 -314 308 -324 l 322 -225 q 369 -235 351 -235 q 405 -221 392 -235 q 417 -192 417 -208 q 389 -150 417 -163 q 326 -126 362 -137 l 376 15 l 468 17 l 438 -69 q 500 -119 477 -88 q 522 -196 522 -151 q 481 -298 522 -258 q 382 -338 439 -338 z "},"Ț":{"ha":838,"x_min":14,"x_max":824,"o":"m 346 -410 l 346 -343 q 375 -338 356 -343 q 410 -319 394 -333 q 426 -274 426 -304 l 346 -274 l 346 -128 l 492 -128 l 492 -274 q 450 -374 492 -337 q 346 -410 407 -410 m 347 0 l 347 863 l 14 863 l 14 1000 l 824 1000 l 824 863 l 492 863 l 492 0 l 347 0 z "},"U":{"ha":992,"x_min":97,"x_max":894,"o":"m 496 -21 q 289 27 378 -21 q 148 163 199 76 q 97 368 97 250 l 97 999 l 244 1000 l 244 376 q 266 263 244 312 q 324 182 288 215 q 405 133 360 149 q 496 116 449 116 q 588 133 543 116 q 669 183 633 150 q 726 264 705 215 q 747 376 747 313 l 747 1000 l 894 1000 l 894 368 q 844 163 894 251 q 703 27 793 76 q 496 -21 613 -21 z "},"Ú":{"ha":992,"x_min":97,"x_max":894,"o":"m 547 1111 l 433 1111 l 532 1354 l 646 1354 l 547 1111 m 496 -21 q 289 27 378 -21 q 148 163 199 76 q 97 368 97 250 l 97 999 l 244 1000 l 244 376 q 266 263 244 312 q 324 182 288 215 q 405 133 360 149 q 496 116 449 116 q 588 133 543 116 q 669 183 633 150 q 726 264 705 215 q 747 376 747 313 l 747 1000 l 894 1000 l 894 368 q 844 163 894 251 q 703 27 793 76 q 496 -21 613 -21 z "},"Ŭ":{"ha":992,"x_min":97,"x_max":894,"o":"m 496 1086 q 395 1113 440 1086 q 323 1185 350 1140 q 296 1286 296 1231 l 411 1286 q 436 1226 411 1251 q 496 1201 461 1201 q 556 1226 531 1201 q 581 1286 581 1251 l 696 1286 q 669 1185 696 1231 q 597 1113 642 1140 q 496 1086 551 1086 m 496 -21 q 289 27 378 -21 q 148 163 199 76 q 97 368 97 250 l 97 999 l 244 1000 l 244 376 q 266 263 244 312 q 324 182 288 215 q 405 133 360 149 q 496 116 449 116 q 588 133 543 116 q 669 183 633 150 q 726 264 705 215 q 747 376 747 313 l 747 1000 l 894 1000 l 894 368 q 844 163 894 251 q 703 27 793 76 q 496 -21 613 -21 z "},"Û":{"ha":992,"x_min":97,"x_max":894,"o":"m 252 1111 l 431 1319 l 556 1319 l 736 1111 l 597 1111 l 494 1234 l 391 1111 l 252 1111 m 496 -21 q 289 27 378 -21 q 148 163 199 76 q 97 368 97 250 l 97 999 l 244 1000 l 244 376 q 266 263 244 312 q 324 182 288 215 q 405 133 360 149 q 496 116 449 116 q 588 133 543 116 q 669 183 633 150 q 726 264 705 215 q 747 376 747 313 l 747 1000 l 894 1000 l 894 368 q 844 163 894 251 q 703 27 793 76 q 496 -21 613 -21 z "},"Ü":{"ha":992,"x_min":97,"x_max":894,"o":"m 566 1126 l 566 1265 l 705 1265 l 705 1126 l 566 1126 m 287 1126 l 287 1265 l 426 1265 l 426 1126 l 287 1126 m 496 -21 q 289 27 378 -21 q 148 163 199 76 q 97 368 97 250 l 97 999 l 244 1000 l 244 376 q 266 263 244 312 q 324 182 288 215 q 405 133 360 149 q 496 116 449 116 q 588 133 543 116 q 669 183 633 150 q 726 264 705 215 q 747 376 747 313 l 747 1000 l 894 1000 l 894 368 q 844 163 894 251 q 703 27 793 76 q 496 -21 613 -21 z "},"Ụ":{"ha":992,"x_min":97,"x_max":894,"o":"m 438 -269 l 438 -128 l 591 -128 l 591 -269 l 438 -269 m 496 -21 q 289 27 378 -21 q 148 163 199 76 q 97 368 97 250 l 97 999 l 244 1000 l 244 376 q 266 263 244 312 q 324 182 288 215 q 405 133 360 149 q 496 116 449 116 q 588 133 543 116 q 669 183 633 150 q 726 264 705 215 q 747 376 747 313 l 747 1000 l 894 1000 l 894 368 q 844 163 894 251 q 703 27 793 76 q 496 -21 613 -21 z "},"Ù":{"ha":992,"x_min":97,"x_max":894,"o":"m 452 1111 l 353 1354 l 467 1354 l 566 1111 l 452 1111 m 496 -21 q 289 27 378 -21 q 148 163 199 76 q 97 368 97 250 l 97 999 l 244 1000 l 244 376 q 266 263 244 312 q 324 182 288 215 q 405 133 360 149 q 496 116 449 116 q 588 133 543 116 q 669 183 633 150 q 726 264 705 215 q 747 376 747 313 l 747 1000 l 894 1000 l 894 368 q 844 163 894 251 q 703 27 793 76 q 496 -21 613 -21 z "},"Ủ":{"ha":992,"x_min":97,"x_max":894,"o":"m 423 1292 l 383 1365 q 466 1408 419 1398 q 558 1401 514 1419 q 624 1332 601 1384 q 639 1255 643 1290 q 614 1190 634 1219 q 564 1143 594 1161 q 502 1118 534 1124 l 471 1180 q 533 1223 510 1194 q 537 1288 555 1251 q 505 1316 525 1311 q 463 1314 485 1321 q 423 1292 441 1306 m 496 -21 q 289 27 378 -21 q 148 163 199 76 q 97 368 97 250 l 97 999 l 244 1000 l 244 376 q 266 263 244 312 q 324 182 288 215 q 405 133 360 149 q 496 116 449 116 q 588 133 543 116 q 669 183 633 150 q 726 264 705 215 q 747 376 747 313 l 747 1000 l 894 1000 l 894 368 q 844 163 894 251 q 703 27 793 76 q 496 -21 613 -21 z "},"Ư":{"ha":992,"x_min":97,"x_max":1062,"o":"m 939 1124 l 1052 1125 q 1046 1009 1062 1056 q 988 937 1030 963 q 901 913 949 914 q 809 917 852 912 l 809 1000 q 839 1000 824 1000 q 869 1003 854 1001 q 930 1049 919 1013 q 939 1124 941 1085 m 496 -21 q 289 27 378 -21 q 148 163 199 76 q 97 368 97 250 l 97 999 l 244 1000 l 244 376 q 266 263 244 312 q 324 182 288 215 q 405 133 360 149 q 496 116 449 116 q 588 133 543 116 q 669 183 633 150 q 726 264 705 215 q 747 376 747 313 l 747 1000 l 894 1000 l 894 368 q 844 163 894 251 q 703 27 793 76 q 496 -21 613 -21 z "},"Ứ":{"ha":992,"x_min":97,"x_max":1062,"o":"m 939 1124 l 1052 1125 q 1046 1009 1062 1056 q 988 937 1030 963 q 901 913 949 914 q 809 917 852 912 l 809 1000 q 839 1000 824 1000 q 869 1003 854 1001 q 930 1049 919 1013 q 939 1124 941 1085 m 547 1111 l 433 1111 l 532 1354 l 646 1354 l 547 1111 m 496 -21 q 289 27 378 -21 q 148 163 199 76 q 97 368 97 250 l 97 999 l 244 1000 l 244 376 q 266 263 244 312 q 324 182 288 215 q 405 133 360 149 q 496 116 449 116 q 588 133 543 116 q 669 183 633 150 q 726 264 705 215 q 747 376 747 313 l 747 1000 l 894 1000 l 894 368 q 844 163 894 251 q 703 27 793 76 q 496 -21 613 -21 z "},"Ự":{"ha":992,"x_min":97,"x_max":1062,"o":"m 423 -269 l 423 -128 l 576 -128 l 576 -269 l 423 -269 m 939 1124 l 1052 1125 q 1046 1009 1062 1056 q 988 937 1030 963 q 901 913 949 914 q 809 917 852 912 l 809 1000 q 839 1000 824 1000 q 869 1003 854 1001 q 930 1049 919 1013 q 939 1124 941 1085 m 496 -21 q 289 27 378 -21 q 148 163 199 76 q 97 368 97 250 l 97 999 l 244 1000 l 244 376 q 266 263 244 312 q 324 182 288 215 q 405 133 360 149 q 496 116 449 116 q 588 133 543 116 q 669 183 633 150 q 726 264 705 215 q 747 376 747 313 l 747 1000 l 894 1000 l 894 368 q 844 163 894 251 q 703 27 793 76 q 496 -21 613 -21 z "},"Ừ":{"ha":992,"x_min":97,"x_max":1062,"o":"m 939 1124 l 1052 1125 q 1046 1009 1062 1056 q 988 937 1030 963 q 901 913 949 914 q 809 917 852 912 l 809 1000 q 839 1000 824 1000 q 869 1003 854 1001 q 930 1049 919 1013 q 939 1124 941 1085 m 452 1111 l 353 1354 l 467 1354 l 566 1111 l 452 1111 m 496 -21 q 289 27 378 -21 q 148 163 199 76 q 97 368 97 250 l 97 999 l 244 1000 l 244 376 q 266 263 244 312 q 324 182 288 215 q 405 133 360 149 q 496 116 449 116 q 588 133 543 116 q 669 183 633 150 q 726 264 705 215 q 747 376 747 313 l 747 1000 l 894 1000 l 894 368 q 844 163 894 251 q 703 27 793 76 q 496 -21 613 -21 z "},"Ử":{"ha":992,"x_min":97,"x_max":1062,"o":"m 939 1124 l 1052 1125 q 1046 1009 1062 1056 q 988 937 1030 963 q 901 913 949 914 q 809 917 852 912 l 809 1000 q 839 1000 824 1000 q 869 1003 854 1001 q 930 1049 919 1013 q 939 1124 941 1085 m 423 1292 l 383 1365 q 466 1408 419 1398 q 558 1401 514 1419 q 624 1332 601 1384 q 639 1255 643 1290 q 614 1190 634 1219 q 564 1143 594 1161 q 502 1118 534 1124 l 471 1180 q 533 1223 510 1194 q 537 1288 555 1251 q 505 1316 525 1311 q 463 1314 485 1321 q 423 1292 441 1306 m 496 -21 q 289 27 378 -21 q 148 163 199 76 q 97 368 97 250 l 97 999 l 244 1000 l 244 376 q 266 263 244 312 q 324 182 288 215 q 405 133 360 149 q 496 116 449 116 q 588 133 543 116 q 669 183 633 150 q 726 264 705 215 q 747 376 747 313 l 747 1000 l 894 1000 l 894 368 q 844 163 894 251 q 703 27 793 76 q 496 -21 613 -21 z "},"Ữ":{"ha":992,"x_min":97,"x_max":1062,"o":"m 939 1124 l 1052 1125 q 1046 1009 1062 1056 q 988 937 1030 963 q 901 913 949 914 q 809 917 852 912 l 809 1000 q 839 1000 824 1000 q 869 1003 854 1001 q 930 1049 919 1013 q 939 1124 941 1085 m 496 -21 q 289 27 378 -21 q 148 163 199 76 q 97 368 97 250 l 97 999 l 244 1000 l 244 376 q 266 263 244 312 q 324 182 288 215 q 405 133 360 149 q 496 116 449 116 q 588 133 543 116 q 669 183 633 150 q 726 264 705 215 q 747 376 747 313 l 747 1000 l 894 1000 l 894 368 q 844 163 894 251 q 703 27 793 76 q 496 -21 613 -21 m 622 1114 q 560 1128 590 1114 q 504 1159 531 1142 q 453 1191 477 1177 q 409 1205 429 1205 q 377 1182 385 1205 q 378 1130 369 1160 l 283 1130 q 294 1260 265 1207 q 397 1313 323 1313 q 459 1299 429 1313 q 515 1268 488 1285 q 566 1236 542 1250 q 610 1222 590 1222 q 642 1244 633 1222 q 642 1298 651 1266 l 736 1298 q 726 1168 755 1222 q 622 1114 697 1114 z "},"Ű":{"ha":992,"x_min":97,"x_max":894,"o":"m 677 1111 l 563 1111 l 663 1354 l 776 1354 l 677 1111 m 400 1111 l 286 1111 l 385 1354 l 499 1354 l 400 1111 m 496 -21 q 289 27 378 -21 q 148 163 199 76 q 97 368 97 250 l 97 999 l 244 1000 l 244 376 q 266 263 244 312 q 324 182 288 215 q 405 133 360 149 q 496 116 449 116 q 588 133 543 116 q 669 183 633 150 q 726 264 705 215 q 747 376 747 313 l 747 1000 l 894 1000 l 894 368 q 844 163 894 251 q 703 27 793 76 q 496 -21 613 -21 z "},"Ū":{"ha":992,"x_min":97,"x_max":894,"o":"m 315 1167 l 315 1283 l 677 1283 l 677 1167 l 315 1167 m 496 -21 q 289 27 378 -21 q 148 163 199 76 q 97 368 97 250 l 97 999 l 244 1000 l 244 376 q 266 263 244 312 q 324 182 288 215 q 405 133 360 149 q 496 116 449 116 q 588 133 543 116 q 669 183 633 150 q 726 264 705 215 q 747 376 747 313 l 747 1000 l 894 1000 l 894 368 q 844 163 894 251 q 703 27 793 76 q 496 -21 613 -21 z "},"Ų":{"ha":992,"x_min":97,"x_max":894,"o":"m 496 -21 q 289 27 378 -21 q 148 163 199 76 q 97 368 97 250 l 97 999 l 244 1000 l 244 376 q 266 263 244 312 q 324 182 288 215 q 405 133 360 149 q 496 116 449 116 q 588 133 543 116 q 669 183 633 150 q 726 264 705 215 q 747 376 747 313 l 747 1000 l 894 1000 l 894 368 q 844 163 894 251 q 703 27 793 76 q 496 -21 613 -21 m 603 -288 q 529 -268 562 -288 q 478 -214 497 -247 q 460 -142 460 -181 q 487 -44 460 -94 q 560 48 514 5 q 664 122 607 91 l 731 45 q 653 -10 689 22 q 597 -74 618 -42 q 576 -132 576 -106 q 590 -165 576 -152 q 621 -178 603 -178 q 648 -170 634 -178 q 676 -151 663 -163 l 731 -221 q 673 -271 707 -253 q 603 -288 639 -288 z "},"Ů":{"ha":992,"x_min":97,"x_max":894,"o":"m 499 1078 q 414 1101 453 1078 q 353 1163 376 1124 q 330 1249 330 1202 q 353 1334 330 1296 q 414 1395 376 1372 q 499 1419 453 1419 q 585 1395 547 1419 q 647 1334 624 1372 q 669 1249 669 1296 q 647 1163 669 1202 q 585 1101 624 1124 q 499 1078 547 1078 m 499 1172 q 554 1195 532 1172 q 576 1249 576 1217 q 554 1303 576 1281 q 499 1325 532 1325 q 445 1303 468 1325 q 423 1249 423 1281 q 445 1195 423 1217 q 499 1172 468 1172 m 496 -21 q 289 27 378 -21 q 148 163 199 76 q 97 368 97 250 l 97 999 l 244 1000 l 244 376 q 266 263 244 312 q 324 182 288 215 q 405 133 360 149 q 496 116 449 116 q 588 133 543 116 q 669 183 633 150 q 726 264 705 215 q 747 376 747 313 l 747 1000 l 894 1000 l 894 368 q 844 163 894 251 q 703 27 793 76 q 496 -21 613 -21 z "},"Ũ":{"ha":992,"x_min":97,"x_max":894,"o":"m 496 -21 q 289 27 378 -21 q 148 163 199 76 q 97 368 97 250 l 97 999 l 244 1000 l 244 376 q 266 263 244 312 q 324 182 288 215 q 405 133 360 149 q 496 116 449 116 q 588 133 543 116 q 669 183 633 150 q 726 264 705 215 q 747 376 747 313 l 747 1000 l 894 1000 l 894 368 q 844 163 894 251 q 703 27 793 76 q 496 -21 613 -21 m 617 1114 q 556 1128 585 1114 q 500 1159 527 1142 q 449 1191 473 1177 q 405 1205 425 1205 q 373 1182 381 1205 q 374 1130 365 1160 l 279 1130 q 290 1260 261 1207 q 393 1313 319 1313 q 455 1299 425 1313 q 511 1268 484 1285 q 562 1236 538 1250 q 606 1222 586 1222 q 638 1244 629 1222 q 638 1298 647 1266 l 732 1298 q 722 1168 751 1222 q 617 1114 692 1114 z "},"V":{"ha":873,"x_min":7,"x_max":866,"o":"m 332 0 l 7 1000 l 158 1000 l 435 147 l 715 1000 l 866 1000 l 541 0 l 332 0 z "},"W":{"ha":1337,"x_min":19,"x_max":1318,"o":"m 309 0 l 19 1000 l 171 1000 l 381 244 l 592 999 l 744 1000 l 955 244 l 1165 1000 l 1318 1000 l 1027 0 l 883 0 l 668 748 l 453 0 l 309 0 z "},"Ẃ":{"ha":1337,"x_min":19,"x_max":1318,"o":"m 733 1111 l 619 1111 l 718 1354 l 832 1354 l 733 1111 m 309 0 l 19 1000 l 171 1000 l 381 244 l 592 999 l 744 1000 l 955 244 l 1165 1000 l 1318 1000 l 1027 0 l 883 0 l 668 748 l 453 0 l 309 0 z "},"Ŵ":{"ha":1337,"x_min":19,"x_max":1318,"o":"m 425 1111 l 605 1319 l 730 1319 l 909 1111 l 770 1111 l 667 1234 l 564 1111 l 425 1111 m 309 0 l 19 1000 l 171 1000 l 381 244 l 592 999 l 744 1000 l 955 244 l 1165 1000 l 1318 1000 l 1027 0 l 883 0 l 668 748 l 453 0 l 309 0 z "},"Ẅ":{"ha":1337,"x_min":19,"x_max":1318,"o":"m 740 1126 l 740 1265 l 878 1265 l 878 1126 l 740 1126 m 460 1126 l 460 1265 l 599 1265 l 599 1126 l 460 1126 m 309 0 l 19 1000 l 171 1000 l 381 244 l 592 999 l 744 1000 l 955 244 l 1165 1000 l 1318 1000 l 1027 0 l 883 0 l 668 748 l 453 0 l 309 0 z "},"Ẁ":{"ha":1337,"x_min":19,"x_max":1318,"o":"m 603 1111 l 505 1354 l 619 1354 l 717 1111 l 603 1111 m 309 0 l 19 1000 l 171 1000 l 381 244 l 592 999 l 744 1000 l 955 244 l 1165 1000 l 1318 1000 l 1027 0 l 883 0 l 668 748 l 453 0 l 309 0 z "},"X":{"ha":888,"x_min":14,"x_max":874,"o":"m 14 0 l 355 506 l 23 1000 l 201 1000 l 444 629 l 687 1000 l 865 1000 l 533 506 l 874 0 l 696 0 l 444 383 l 192 0 l 14 0 z "},"Y":{"ha":824,"x_min":0,"x_max":824,"o":"m 338 0 l 338 413 l 0 1000 l 169 1000 l 412 580 l 654 1000 l 824 1000 l 485 413 l 485 0 l 338 0 z "},"Ý":{"ha":824,"x_min":0,"x_max":824,"o":"m 462 1111 l 348 1111 l 447 1354 l 561 1354 l 462 1111 m 338 0 l 338 413 l 0 1000 l 169 1000 l 412 580 l 654 1000 l 824 1000 l 485 413 l 485 0 l 338 0 z "},"Ŷ":{"ha":824,"x_min":0,"x_max":824,"o":"m 168 1111 l 348 1319 l 473 1319 l 652 1111 l 513 1111 l 410 1234 l 307 1111 l 168 1111 m 338 0 l 338 413 l 0 1000 l 169 1000 l 412 580 l 654 1000 l 824 1000 l 485 413 l 485 0 l 338 0 z "},"Ÿ":{"ha":824,"x_min":0,"x_max":824,"o":"m 483 1126 l 483 1265 l 622 1265 l 622 1126 l 483 1126 m 203 1126 l 203 1265 l 342 1265 l 342 1126 l 203 1126 m 338 0 l 338 413 l 0 1000 l 169 1000 l 412 580 l 654 1000 l 824 1000 l 485 413 l 485 0 l 338 0 z "},"Ỵ":{"ha":824,"x_min":0,"x_max":824,"o":"m 335 -269 l 335 -128 l 489 -128 l 489 -269 l 335 -269 m 338 0 l 338 413 l 0 1000 l 169 1000 l 412 580 l 654 1000 l 824 1000 l 485 413 l 485 0 l 338 0 z "},"Ỳ":{"ha":824,"x_min":0,"x_max":824,"o":"m 358 1111 l 258 1354 l 372 1354 l 472 1111 l 358 1111 m 338 0 l 338 413 l 0 1000 l 169 1000 l 412 580 l 654 1000 l 824 1000 l 485 413 l 485 0 l 338 0 z "},"Ỷ":{"ha":824,"x_min":0,"x_max":824,"o":"m 324 1292 l 284 1365 q 367 1408 319 1398 q 458 1401 415 1419 q 526 1332 502 1384 q 540 1255 544 1290 q 515 1190 535 1219 q 465 1143 494 1161 q 403 1118 435 1124 l 372 1180 q 434 1223 412 1194 q 438 1288 456 1251 q 406 1316 426 1311 q 364 1314 385 1321 q 324 1292 342 1306 m 338 0 l 338 413 l 0 1000 l 169 1000 l 412 580 l 654 1000 l 824 1000 l 485 413 l 485 0 l 338 0 z "},"Ỹ":{"ha":824,"x_min":0,"x_max":824,"o":"m 530 1114 q 469 1128 498 1114 q 413 1159 440 1142 q 361 1191 385 1177 q 317 1205 338 1205 q 285 1182 293 1205 q 286 1130 278 1160 l 192 1130 q 202 1260 173 1207 q 306 1313 231 1313 q 367 1299 338 1313 q 424 1268 397 1285 q 474 1236 451 1250 q 519 1222 498 1222 q 550 1244 541 1222 q 549 1298 559 1266 l 644 1298 q 634 1168 663 1222 q 530 1114 605 1114 m 338 0 l 338 413 l 0 1000 l 169 1000 l 412 580 l 654 1000 l 824 1000 l 485 413 l 485 0 l 338 0 z "},"Z":{"ha":899,"x_min":69,"x_max":829,"o":"m 69 0 l 69 23 l 580 863 l 97 863 l 97 1000 l 829 1000 l 829 976 l 322 138 l 820 138 l 820 0 l 69 0 z "},"Ź":{"ha":899,"x_min":69,"x_max":829,"o":"m 508 1111 l 394 1111 l 493 1354 l 607 1354 l 508 1111 m 69 0 l 69 23 l 580 863 l 97 863 l 97 1000 l 829 1000 l 829 976 l 322 138 l 820 138 l 820 0 l 69 0 z "},"Ž":{"ha":899,"x_min":69,"x_max":829,"o":"m 222 1319 l 360 1319 l 464 1197 l 567 1319 l 706 1319 l 526 1111 l 401 1111 l 222 1319 m 69 0 l 69 23 l 580 863 l 97 863 l 97 1000 l 829 1000 l 829 976 l 322 138 l 820 138 l 820 0 l 69 0 z "},"Ż":{"ha":899,"x_min":69,"x_max":829,"o":"m 399 1152 l 399 1306 l 552 1306 l 552 1152 l 399 1152 m 69 0 l 69 23 l 580 863 l 97 863 l 97 1000 l 829 1000 l 829 976 l 322 138 l 820 138 l 820 0 l 69 0 z "},"a":{"ha":791,"x_min":56,"x_max":708,"o":"m 309 -21 q 169 10 226 -21 q 84 92 113 41 q 56 204 56 143 q 76 304 56 261 q 135 377 96 347 q 233 426 175 408 q 346 452 283 441 q 479 473 409 463 q 617 492 549 483 l 565 463 q 527 594 566 551 q 395 637 489 637 q 287 609 336 637 q 218 519 238 582 l 83 560 q 189 714 110 657 q 397 771 267 771 q 572 736 497 771 q 681 628 647 702 q 703 550 699 591 q 708 462 708 509 l 708 0 l 579 0 l 579 172 l 604 149 q 486 21 558 63 q 309 -21 414 -21 m 335 98 q 441 120 397 98 q 513 176 485 142 q 548 247 540 210 q 561 322 560 280 q 563 388 563 363 l 610 371 q 485 352 542 360 q 384 336 429 344 q 303 317 338 328 q 250 292 273 306 q 213 256 226 277 q 199 206 199 235 q 214 152 199 176 q 258 113 228 127 q 335 98 288 98 z "},"á":{"ha":791,"x_min":56,"x_max":708,"o":"m 464 861 l 350 861 l 449 1104 l 563 1104 l 464 861 m 309 -21 q 169 10 226 -21 q 84 92 113 41 q 56 204 56 143 q 76 304 56 261 q 135 377 96 347 q 233 426 175 408 q 346 452 283 441 q 479 473 409 463 q 617 492 549 483 l 565 463 q 527 594 566 551 q 395 637 489 637 q 287 609 336 637 q 218 519 238 582 l 83 560 q 189 714 110 657 q 397 771 267 771 q 572 736 497 771 q 681 628 647 702 q 703 550 699 591 q 708 462 708 509 l 708 0 l 579 0 l 579 172 l 604 149 q 486 21 558 63 q 309 -21 414 -21 m 335 98 q 441 120 397 98 q 513 176 485 142 q 548 247 540 210 q 561 322 560 280 q 563 388 563 363 l 610 371 q 485 352 542 360 q 384 336 429 344 q 303 317 338 328 q 250 292 273 306 q 213 256 226 277 q 199 206 199 235 q 214 152 199 176 q 258 113 228 127 q 335 98 288 98 z "},"ă":{"ha":791,"x_min":56,"x_max":708,"o":"m 403 836 q 303 863 349 836 q 231 935 258 890 q 203 1036 203 981 l 319 1036 q 344 976 319 1001 q 403 951 369 951 q 464 976 439 951 q 488 1036 488 1001 l 603 1036 q 577 935 603 981 q 505 863 550 890 q 403 836 459 836 m 309 -21 q 169 10 226 -21 q 84 92 113 41 q 56 204 56 143 q 76 304 56 261 q 135 377 96 347 q 233 426 175 408 q 346 452 283 441 q 479 473 409 463 q 617 492 549 483 l 565 463 q 527 594 566 551 q 395 637 489 637 q 287 609 336 637 q 218 519 238 582 l 83 560 q 189 714 110 657 q 397 771 267 771 q 572 736 497 771 q 681 628 647 702 q 703 550 699 591 q 708 462 708 509 l 708 0 l 579 0 l 579 172 l 604 149 q 486 21 558 63 q 309 -21 414 -21 m 335 98 q 441 120 397 98 q 513 176 485 142 q 548 247 540 210 q 561 322 560 280 q 563 388 563 363 l 610 371 q 485 352 542 360 q 384 336 429 344 q 303 317 338 328 q 250 292 273 306 q 213 256 226 277 q 199 206 199 235 q 214 152 199 176 q 258 113 228 127 q 335 98 288 98 z "},"ắ":{"ha":791,"x_min":56,"x_max":708,"o":"m 402 836 q 301 863 347 836 q 229 935 256 890 q 202 1036 202 981 l 317 1036 q 342 976 317 1001 q 402 951 367 951 q 462 976 438 951 q 487 1036 487 1001 l 602 1036 q 575 935 602 981 q 503 863 548 890 q 402 836 458 836 m 460 1090 l 347 1090 l 446 1333 l 560 1333 l 460 1090 m 309 -21 q 169 10 226 -21 q 84 92 113 41 q 56 204 56 143 q 76 304 56 261 q 135 377 96 347 q 233 426 175 408 q 346 452 283 441 q 479 473 409 463 q 617 492 549 483 l 565 463 q 527 594 566 551 q 395 637 489 637 q 287 609 336 637 q 218 519 238 582 l 83 560 q 189 714 110 657 q 397 771 267 771 q 572 736 497 771 q 681 628 647 702 q 703 550 699 591 q 708 462 708 509 l 708 0 l 579 0 l 579 172 l 604 149 q 486 21 558 63 q 309 -21 414 -21 m 335 98 q 441 120 397 98 q 513 176 485 142 q 548 247 540 210 q 561 322 560 280 q 563 388 563 363 l 610 371 q 485 352 542 360 q 384 336 429 344 q 303 317 338 328 q 250 292 273 306 q 213 256 226 277 q 199 206 199 235 q 214 152 199 176 q 258 113 228 127 q 335 98 288 98 z "},"ặ":{"ha":791,"x_min":56,"x_max":708,"o":"m 321 -269 l 321 -128 l 474 -128 l 474 -269 l 321 -269 m 403 836 q 303 863 349 836 q 231 935 258 890 q 203 1036 203 981 l 319 1036 q 344 976 319 1001 q 403 951 369 951 q 464 976 439 951 q 488 1036 488 1001 l 603 1036 q 577 935 603 981 q 505 863 550 890 q 403 836 459 836 m 309 -21 q 169 10 226 -21 q 84 92 113 41 q 56 204 56 143 q 76 304 56 261 q 135 377 96 347 q 233 426 175 408 q 346 452 283 441 q 479 473 409 463 q 617 492 549 483 l 565 463 q 527 594 566 551 q 395 637 489 637 q 287 609 336 637 q 218 519 238 582 l 83 560 q 189 714 110 657 q 397 771 267 771 q 572 736 497 771 q 681 628 647 702 q 703 550 699 591 q 708 462 708 509 l 708 0 l 579 0 l 579 172 l 604 149 q 486 21 558 63 q 309 -21 414 -21 m 335 98 q 441 120 397 98 q 513 176 485 142 q 548 247 540 210 q 561 322 560 280 q 563 388 563 363 l 610 371 q 485 352 542 360 q 384 336 429 344 q 303 317 338 328 q 250 292 273 306 q 213 256 226 277 q 199 206 199 235 q 214 152 199 176 q 258 113 228 127 q 335 98 288 98 z "},"ằ":{"ha":791,"x_min":56,"x_max":708,"o":"m 406 836 q 305 863 351 836 q 233 935 260 890 q 206 1036 206 981 l 321 1036 q 345 976 321 1001 q 406 951 370 951 q 466 976 441 951 q 490 1036 490 1001 l 606 1036 q 579 935 606 981 q 507 863 552 890 q 406 836 461 836 m 347 1090 l 249 1333 l 363 1333 l 461 1090 l 347 1090 m 309 -21 q 169 10 226 -21 q 84 92 113 41 q 56 204 56 143 q 76 304 56 261 q 135 377 96 347 q 233 426 175 408 q 346 452 283 441 q 479 473 409 463 q 617 492 549 483 l 565 463 q 527 594 566 551 q 395 637 489 637 q 287 609 336 637 q 218 519 238 582 l 83 560 q 189 714 110 657 q 397 771 267 771 q 572 736 497 771 q 681 628 647 702 q 703 550 699 591 q 708 462 708 509 l 708 0 l 579 0 l 579 172 l 604 149 q 486 21 558 63 q 309 -21 414 -21 m 335 98 q 441 120 397 98 q 513 176 485 142 q 548 247 540 210 q 561 322 560 280 q 563 388 563 363 l 610 371 q 485 352 542 360 q 384 336 429 344 q 303 317 338 328 q 250 292 273 306 q 213 256 226 277 q 199 206 199 235 q 214 152 199 176 q 258 113 228 127 q 335 98 288 98 z "},"ẳ":{"ha":791,"x_min":56,"x_max":708,"o":"m 421 836 q 320 863 366 836 q 248 935 275 890 q 221 1036 221 981 l 336 1036 q 361 976 336 1001 q 421 951 386 951 q 481 976 456 951 q 506 1036 506 1001 l 621 1036 q 594 935 621 981 q 522 863 567 890 q 421 836 476 836 m 311 1256 l 271 1328 q 355 1372 307 1361 q 446 1365 402 1382 q 513 1295 490 1347 q 527 1218 531 1253 q 502 1153 522 1182 q 452 1106 482 1124 q 390 1081 422 1088 l 359 1143 q 421 1186 399 1158 q 425 1251 443 1215 q 393 1279 413 1274 q 351 1277 373 1284 q 311 1256 329 1269 m 309 -21 q 169 10 226 -21 q 84 92 113 41 q 56 204 56 143 q 76 304 56 261 q 135 377 96 347 q 233 426 175 408 q 346 452 283 441 q 479 473 409 463 q 617 492 549 483 l 565 463 q 527 594 566 551 q 395 637 489 637 q 287 609 336 637 q 218 519 238 582 l 83 560 q 189 714 110 657 q 397 771 267 771 q 572 736 497 771 q 681 628 647 702 q 703 550 699 591 q 708 462 708 509 l 708 0 l 579 0 l 579 172 l 604 149 q 486 21 558 63 q 309 -21 414 -21 m 335 98 q 441 120 397 98 q 513 176 485 142 q 548 247 540 210 q 561 322 560 280 q 563 388 563 363 l 610 371 q 485 352 542 360 q 384 336 429 344 q 303 317 338 328 q 250 292 273 306 q 213 256 226 277 q 199 206 199 235 q 214 152 199 176 q 258 113 228 127 q 335 98 288 98 z "},"ẵ":{"ha":791,"x_min":56,"x_max":708,"o":"m 510 1081 q 449 1095 478 1081 q 392 1126 419 1108 q 342 1158 365 1144 q 297 1172 318 1172 q 266 1149 274 1172 q 267 1097 258 1127 l 172 1097 q 183 1227 153 1174 q 286 1280 212 1280 q 347 1266 318 1280 q 403 1235 376 1253 q 455 1203 431 1217 q 499 1190 478 1190 q 530 1211 522 1190 q 530 1265 539 1233 l 624 1265 q 614 1135 643 1189 q 510 1081 585 1081 m 396 836 q 295 863 340 836 q 223 935 250 890 q 196 1036 196 981 l 311 1036 q 336 976 311 1001 q 396 951 361 951 q 456 976 431 951 q 481 1036 481 1001 l 596 1036 q 569 935 596 981 q 497 863 542 890 q 396 836 451 836 m 309 -21 q 169 10 226 -21 q 84 92 113 41 q 56 204 56 143 q 76 304 56 261 q 135 377 96 347 q 233 426 175 408 q 346 452 283 441 q 479 473 409 463 q 617 492 549 483 l 565 463 q 527 594 566 551 q 395 637 489 637 q 287 609 336 637 q 218 519 238 582 l 83 560 q 189 714 110 657 q 397 771 267 771 q 572 736 497 771 q 681 628 647 702 q 703 550 699 591 q 708 462 708 509 l 708 0 l 579 0 l 579 172 l 604 149 q 486 21 558 63 q 309 -21 414 -21 m 335 98 q 441 120 397 98 q 513 176 485 142 q 548 247 540 210 q 561 322 560 280 q 563 388 563 363 l 610 371 q 485 352 542 360 q 384 336 429 344 q 303 317 338 328 q 250 292 273 306 q 213 256 226 277 q 199 206 199 235 q 214 152 199 176 q 258 113 228 127 q 335 98 288 98 z "},"â":{"ha":791,"x_min":56,"x_max":708,"o":"m 163 861 l 342 1069 l 467 1069 l 647 861 l 508 861 l 405 984 l 302 861 l 163 861 m 309 -21 q 169 10 226 -21 q 84 92 113 41 q 56 204 56 143 q 76 304 56 261 q 135 377 96 347 q 233 426 175 408 q 346 452 283 441 q 479 473 409 463 q 617 492 549 483 l 565 463 q 527 594 566 551 q 395 637 489 637 q 287 609 336 637 q 218 519 238 582 l 83 560 q 189 714 110 657 q 397 771 267 771 q 572 736 497 771 q 681 628 647 702 q 703 550 699 591 q 708 462 708 509 l 708 0 l 579 0 l 579 172 l 604 149 q 486 21 558 63 q 309 -21 414 -21 m 335 98 q 441 120 397 98 q 513 176 485 142 q 548 247 540 210 q 561 322 560 280 q 563 388 563 363 l 610 371 q 485 352 542 360 q 384 336 429 344 q 303 317 338 328 q 250 292 273 306 q 213 256 226 277 q 199 206 199 235 q 214 152 199 176 q 258 113 228 127 q 335 98 288 98 z "},"ấ":{"ha":791,"x_min":56,"x_max":838,"o":"m 169 861 l 349 1069 l 474 1069 l 653 861 l 514 861 l 411 984 l 308 861 l 169 861 m 738 1007 l 624 1007 l 724 1250 l 838 1250 l 738 1007 m 309 -21 q 169 10 226 -21 q 84 92 113 41 q 56 204 56 143 q 76 304 56 261 q 135 377 96 347 q 233 426 175 408 q 346 452 283 441 q 479 473 409 463 q 617 492 549 483 l 565 463 q 527 594 566 551 q 395 637 489 637 q 287 609 336 637 q 218 519 238 582 l 83 560 q 189 714 110 657 q 397 771 267 771 q 572 736 497 771 q 681 628 647 702 q 703 550 699 591 q 708 462 708 509 l 708 0 l 579 0 l 579 172 l 604 149 q 486 21 558 63 q 309 -21 414 -21 m 335 98 q 441 120 397 98 q 513 176 485 142 q 548 247 540 210 q 561 322 560 280 q 563 388 563 363 l 610 371 q 485 352 542 360 q 384 336 429 344 q 303 317 338 328 q 250 292 273 306 q 213 256 226 277 q 199 206 199 235 q 214 152 199 176 q 258 113 228 127 q 335 98 288 98 z "},"ậ":{"ha":791,"x_min":56,"x_max":708,"o":"m 321 -269 l 321 -128 l 474 -128 l 474 -269 l 321 -269 m 163 861 l 342 1069 l 467 1069 l 647 861 l 508 861 l 405 984 l 302 861 l 163 861 m 309 -21 q 169 10 226 -21 q 84 92 113 41 q 56 204 56 143 q 76 304 56 261 q 135 377 96 347 q 233 426 175 408 q 346 452 283 441 q 479 473 409 463 q 617 492 549 483 l 565 463 q 527 594 566 551 q 395 637 489 637 q 287 609 336 637 q 218 519 238 582 l 83 560 q 189 714 110 657 q 397 771 267 771 q 572 736 497 771 q 681 628 647 702 q 703 550 699 591 q 708 462 708 509 l 708 0 l 579 0 l 579 172 l 604 149 q 486 21 558 63 q 309 -21 414 -21 m 335 98 q 441 120 397 98 q 513 176 485 142 q 548 247 540 210 q 561 322 560 280 q 563 388 563 363 l 610 371 q 485 352 542 360 q 384 336 429 344 q 303 317 338 328 q 250 292 273 306 q 213 256 226 277 q 199 206 199 235 q 214 152 199 176 q 258 113 228 127 q 335 98 288 98 z "},"ầ":{"ha":791,"x_min":56,"x_max":742,"o":"m 167 861 l 347 1069 l 472 1069 l 651 861 l 513 861 l 410 984 l 306 861 l 167 861 m 628 1007 l 529 1250 l 643 1250 l 742 1007 l 628 1007 m 309 -21 q 169 10 226 -21 q 84 92 113 41 q 56 204 56 143 q 76 304 56 261 q 135 377 96 347 q 233 426 175 408 q 346 452 283 441 q 479 473 409 463 q 617 492 549 483 l 565 463 q 527 594 566 551 q 395 637 489 637 q 287 609 336 637 q 218 519 238 582 l 83 560 q 189 714 110 657 q 397 771 267 771 q 572 736 497 771 q 681 628 647 702 q 703 550 699 591 q 708 462 708 509 l 708 0 l 579 0 l 579 172 l 604 149 q 486 21 558 63 q 309 -21 414 -21 m 335 98 q 441 120 397 98 q 513 176 485 142 q 548 247 540 210 q 561 322 560 280 q 563 388 563 363 l 610 371 q 485 352 542 360 q 384 336 429 344 q 303 317 338 328 q 250 292 273 306 q 213 256 226 277 q 199 206 199 235 q 214 152 199 176 q 258 113 228 127 q 335 98 288 98 z "},"ẩ":{"ha":791,"x_min":56,"x_max":844,"o":"m 158 861 l 337 1069 l 462 1069 l 642 861 l 503 861 l 399 984 l 297 861 l 158 861 m 624 1042 l 584 1115 q 667 1158 619 1148 q 758 1151 715 1169 q 826 1082 802 1134 q 840 1005 844 1040 q 815 940 835 969 q 765 893 794 911 q 703 868 735 874 l 672 930 q 734 973 712 944 q 738 1038 756 1001 q 706 1066 726 1061 q 664 1064 685 1071 q 624 1042 642 1056 m 309 -21 q 169 10 226 -21 q 84 92 113 41 q 56 204 56 143 q 76 304 56 261 q 135 377 96 347 q 233 426 175 408 q 346 452 283 441 q 479 473 409 463 q 617 492 549 483 l 565 463 q 527 594 566 551 q 395 637 489 637 q 287 609 336 637 q 218 519 238 582 l 83 560 q 189 714 110 657 q 397 771 267 771 q 572 736 497 771 q 681 628 647 702 q 703 550 699 591 q 708 462 708 509 l 708 0 l 579 0 l 579 172 l 604 149 q 486 21 558 63 q 309 -21 414 -21 m 335 98 q 441 120 397 98 q 513 176 485 142 q 548 247 540 210 q 561 322 560 280 q 563 388 563 363 l 610 371 q 485 352 542 360 q 384 336 429 344 q 303 317 338 328 q 250 292 273 306 q 213 256 226 277 q 199 206 199 235 q 214 152 199 176 q 258 113 228 127 q 335 98 288 98 z "},"ẫ":{"ha":791,"x_min":56,"x_max":708,"o":"m 156 861 l 336 1069 l 461 1069 l 641 861 l 502 861 l 399 984 l 295 861 l 156 861 m 517 1104 q 456 1118 485 1104 q 400 1150 427 1132 q 349 1181 373 1167 q 305 1195 325 1195 q 273 1173 281 1195 q 274 1120 265 1150 l 179 1120 q 190 1250 160 1197 q 293 1303 219 1303 q 355 1290 325 1303 q 411 1258 384 1276 q 462 1226 438 1240 q 506 1213 485 1213 q 538 1234 528 1213 q 537 1288 547 1256 l 631 1288 q 622 1158 651 1213 q 517 1104 592 1104 m 309 -21 q 169 10 226 -21 q 84 92 113 41 q 56 204 56 143 q 76 304 56 261 q 135 377 96 347 q 233 426 175 408 q 346 452 283 441 q 479 473 409 463 q 617 492 549 483 l 565 463 q 527 594 566 551 q 395 637 489 637 q 287 609 336 637 q 218 519 238 582 l 83 560 q 189 714 110 657 q 397 771 267 771 q 572 736 497 771 q 681 628 647 702 q 703 550 699 591 q 708 462 708 509 l 708 0 l 579 0 l 579 172 l 604 149 q 486 21 558 63 q 309 -21 414 -21 m 335 98 q 441 120 397 98 q 513 176 485 142 q 548 247 540 210 q 561 322 560 280 q 563 388 563 363 l 610 371 q 485 352 542 360 q 384 336 429 344 q 303 317 338 328 q 250 292 273 306 q 213 256 226 277 q 199 206 199 235 q 214 152 199 176 q 258 113 228 127 q 335 98 288 98 z "},"ä":{"ha":791,"x_min":56,"x_max":708,"o":"m 480 876 l 480 1015 l 619 1015 l 619 876 l 480 876 m 200 876 l 200 1015 l 339 1015 l 339 876 l 200 876 m 309 -21 q 169 10 226 -21 q 84 92 113 41 q 56 204 56 143 q 76 304 56 261 q 135 377 96 347 q 233 426 175 408 q 346 452 283 441 q 479 473 409 463 q 617 492 549 483 l 565 463 q 527 594 566 551 q 395 637 489 637 q 287 609 336 637 q 218 519 238 582 l 83 560 q 189 714 110 657 q 397 771 267 771 q 572 736 497 771 q 681 628 647 702 q 703 550 699 591 q 708 462 708 509 l 708 0 l 579 0 l 579 172 l 604 149 q 486 21 558 63 q 309 -21 414 -21 m 335 98 q 441 120 397 98 q 513 176 485 142 q 548 247 540 210 q 561 322 560 280 q 563 388 563 363 l 610 371 q 485 352 542 360 q 384 336 429 344 q 303 317 338 328 q 250 292 273 306 q 213 256 226 277 q 199 206 199 235 q 214 152 199 176 q 258 113 228 127 q 335 98 288 98 z "},"ạ":{"ha":791,"x_min":56,"x_max":708,"o":"m 321 -269 l 321 -128 l 474 -128 l 474 -269 l 321 -269 m 309 -21 q 169 10 226 -21 q 84 92 113 41 q 56 204 56 143 q 76 304 56 261 q 135 377 96 347 q 233 426 175 408 q 346 452 283 441 q 479 473 409 463 q 617 492 549 483 l 565 463 q 527 594 566 551 q 395 637 489 637 q 287 609 336 637 q 218 519 238 582 l 83 560 q 189 714 110 657 q 397 771 267 771 q 572 736 497 771 q 681 628 647 702 q 703 550 699 591 q 708 462 708 509 l 708 0 l 579 0 l 579 172 l 604 149 q 486 21 558 63 q 309 -21 414 -21 m 335 98 q 441 120 397 98 q 513 176 485 142 q 548 247 540 210 q 561 322 560 280 q 563 388 563 363 l 610 371 q 485 352 542 360 q 384 336 429 344 q 303 317 338 328 q 250 292 273 306 q 213 256 226 277 q 199 206 199 235 q 214 152 199 176 q 258 113 228 127 q 335 98 288 98 z "},"à":{"ha":791,"x_min":56,"x_max":708,"o":"m 348 861 l 249 1104 l 363 1104 l 462 861 l 348 861 m 309 -21 q 169 10 226 -21 q 84 92 113 41 q 56 204 56 143 q 76 304 56 261 q 135 377 96 347 q 233 426 175 408 q 346 452 283 441 q 479 473 409 463 q 617 492 549 483 l 565 463 q 527 594 566 551 q 395 637 489 637 q 287 609 336 637 q 218 519 238 582 l 83 560 q 189 714 110 657 q 397 771 267 771 q 572 736 497 771 q 681 628 647 702 q 703 550 699 591 q 708 462 708 509 l 708 0 l 579 0 l 579 172 l 604 149 q 486 21 558 63 q 309 -21 414 -21 m 335 98 q 441 120 397 98 q 513 176 485 142 q 548 247 540 210 q 561 322 560 280 q 563 388 563 363 l 610 371 q 485 352 542 360 q 384 336 429 344 q 303 317 338 328 q 250 292 273 306 q 213 256 226 277 q 199 206 199 235 q 214 152 199 176 q 258 113 228 127 q 335 98 288 98 z "},"ả":{"ha":791,"x_min":56,"x_max":708,"o":"m 322 1046 l 282 1119 q 365 1162 317 1152 q 456 1155 413 1172 q 524 1085 500 1138 q 538 1008 542 1044 q 513 944 533 972 q 463 897 492 915 q 401 872 433 878 l 369 933 q 432 977 410 948 q 435 1041 453 1006 q 403 1070 424 1065 q 361 1067 383 1074 q 322 1046 340 1060 m 309 -21 q 169 10 226 -21 q 84 92 113 41 q 56 204 56 143 q 76 304 56 261 q 135 377 96 347 q 233 426 175 408 q 346 452 283 441 q 479 473 409 463 q 617 492 549 483 l 565 463 q 527 594 566 551 q 395 637 489 637 q 287 609 336 637 q 218 519 238 582 l 83 560 q 189 714 110 657 q 397 771 267 771 q 572 736 497 771 q 681 628 647 702 q 703 550 699 591 q 708 462 708 509 l 708 0 l 579 0 l 579 172 l 604 149 q 486 21 558 63 q 309 -21 414 -21 m 335 98 q 441 120 397 98 q 513 176 485 142 q 548 247 540 210 q 561 322 560 280 q 563 388 563 363 l 610 371 q 485 352 542 360 q 384 336 429 344 q 303 317 338 328 q 250 292 273 306 q 213 256 226 277 q 199 206 199 235 q 214 152 199 176 q 258 113 228 127 q 335 98 288 98 z "},"ā":{"ha":791,"x_min":56,"x_max":708,"o":"m 242 917 l 242 1033 l 606 1033 l 606 917 l 242 917 m 309 -21 q 169 10 226 -21 q 84 92 113 41 q 56 204 56 143 q 76 304 56 261 q 135 377 96 347 q 233 426 175 408 q 346 452 283 441 q 479 473 409 463 q 617 492 549 483 l 565 463 q 527 594 566 551 q 395 637 489 637 q 287 609 336 637 q 218 519 238 582 l 83 560 q 189 714 110 657 q 397 771 267 771 q 572 736 497 771 q 681 628 647 702 q 703 550 699 591 q 708 462 708 509 l 708 0 l 579 0 l 579 172 l 604 149 q 486 21 558 63 q 309 -21 414 -21 m 335 98 q 441 120 397 98 q 513 176 485 142 q 548 247 540 210 q 561 322 560 280 q 563 388 563 363 l 610 371 q 485 352 542 360 q 384 336 429 344 q 303 317 338 328 q 250 292 273 306 q 213 256 226 277 q 199 206 199 235 q 214 152 199 176 q 258 113 228 127 q 335 98 288 98 z "},"ą":{"ha":791,"x_min":56,"x_max":708,"o":"m 579 -333 q 505 -313 538 -333 q 454 -259 473 -292 q 435 -187 435 -226 q 463 -90 435 -139 q 536 3 490 -40 q 640 76 583 46 l 708 0 q 630 -55 665 -24 q 573 -119 594 -87 q 552 -177 552 -151 q 565 -210 552 -197 q 597 -223 578 -223 q 624 -216 610 -223 q 652 -196 639 -208 l 708 -266 q 649 -316 683 -299 q 579 -333 615 -333 m 309 -21 q 169 10 226 -21 q 84 92 113 41 q 56 204 56 143 q 76 304 56 261 q 135 377 96 347 q 233 426 175 408 q 346 452 283 441 q 479 473 409 463 q 617 492 549 483 l 565 463 q 527 594 566 551 q 395 637 489 637 q 287 609 336 637 q 218 519 238 582 l 83 560 q 189 714 110 657 q 397 771 267 771 q 572 736 497 771 q 681 628 647 702 q 703 550 699 591 q 708 462 708 509 l 708 0 l 579 0 l 579 172 l 604 149 q 486 21 558 63 q 309 -21 414 -21 m 335 98 q 441 120 397 98 q 513 176 485 142 q 548 247 540 210 q 561 322 560 280 q 563 388 563 363 l 610 371 q 485 352 542 360 q 384 336 429 344 q 303 317 338 328 q 250 292 273 306 q 213 256 226 277 q 199 206 199 235 q 214 152 199 176 q 258 113 228 127 q 335 98 288 98 z "},"å":{"ha":791,"x_min":56,"x_max":708,"o":"m 405 828 q 320 851 358 828 q 258 913 281 874 q 235 999 235 952 q 258 1084 235 1046 q 320 1145 281 1122 q 405 1169 358 1169 q 491 1145 452 1169 q 552 1084 529 1122 q 575 999 575 1046 q 552 913 575 952 q 491 851 529 874 q 405 828 452 828 m 405 922 q 459 945 437 922 q 481 999 481 967 q 459 1053 481 1031 q 405 1075 437 1075 q 351 1053 374 1075 q 328 999 328 1031 q 351 945 328 967 q 405 922 374 922 m 309 -21 q 169 10 226 -21 q 84 92 113 41 q 56 204 56 143 q 76 304 56 261 q 135 377 96 347 q 233 426 175 408 q 346 452 283 441 q 479 473 409 463 q 617 492 549 483 l 565 463 q 527 594 566 551 q 395 637 489 637 q 287 609 336 637 q 218 519 238 582 l 83 560 q 189 714 110 657 q 397 771 267 771 q 572 736 497 771 q 681 628 647 702 q 703 550 699 591 q 708 462 708 509 l 708 0 l 579 0 l 579 172 l 604 149 q 486 21 558 63 q 309 -21 414 -21 m 335 98 q 441 120 397 98 q 513 176 485 142 q 548 247 540 210 q 561 322 560 280 q 563 388 563 363 l 610 371 q 485 352 542 360 q 384 336 429 344 q 303 317 338 328 q 250 292 273 306 q 213 256 226 277 q 199 206 199 235 q 214 152 199 176 q 258 113 228 127 q 335 98 288 98 z "},"ã":{"ha":791,"x_min":56,"x_max":708,"o":"m 528 864 q 467 878 497 864 q 411 909 438 892 q 360 941 384 927 q 316 955 336 955 q 284 932 292 955 q 285 880 276 910 l 190 880 q 201 1010 172 957 q 304 1063 230 1063 q 366 1049 336 1063 q 422 1018 395 1035 q 473 986 449 1000 q 517 972 497 972 q 549 994 540 972 q 548 1048 558 1016 l 642 1048 q 633 918 662 972 q 528 864 603 864 m 309 -21 q 169 10 226 -21 q 84 92 113 41 q 56 204 56 143 q 76 304 56 261 q 135 377 96 347 q 233 426 175 408 q 346 452 283 441 q 479 473 409 463 q 617 492 549 483 l 565 463 q 527 594 566 551 q 395 637 489 637 q 287 609 336 637 q 218 519 238 582 l 83 560 q 189 714 110 657 q 397 771 267 771 q 572 736 497 771 q 681 628 647 702 q 703 550 699 591 q 708 462 708 509 l 708 0 l 579 0 l 579 172 l 604 149 q 486 21 558 63 q 309 -21 414 -21 m 335 98 q 441 120 397 98 q 513 176 485 142 q 548 247 540 210 q 561 322 560 280 q 563 388 563 363 l 610 371 q 485 352 542 360 q 384 336 429 344 q 303 317 338 328 q 250 292 273 306 q 213 256 226 277 q 199 206 199 235 q 214 152 199 176 q 258 113 228 127 q 335 98 288 98 z "},"æ":{"ha":1303,"x_min":56,"x_max":1252,"o":"m 924 -21 q 735 30 815 -21 q 613 168 656 80 q 569 369 569 256 q 612 580 569 489 q 732 720 654 670 q 917 771 810 771 q 1106 715 1031 771 q 1217 561 1181 660 q 1245 334 1252 463 l 1108 334 l 1108 387 q 1065 574 1106 506 q 917 642 1024 642 q 800 608 844 642 q 735 513 756 574 q 715 375 715 453 q 766 186 715 257 q 917 116 817 116 q 1026 146 978 116 q 1101 235 1074 176 l 1235 190 q 1160 76 1208 123 q 1052 4 1113 28 q 924 -21 991 -21 m 335 97 q 458 129 403 97 q 535 206 512 162 q 555 263 549 233 q 563 323 562 294 q 564 376 565 353 l 610 351 l 424 338 q 356 331 394 336 q 282 312 318 326 q 223 273 247 299 q 199 206 199 248 q 235 126 199 156 q 335 97 272 97 m 317 -21 q 124 41 192 -21 q 56 202 56 103 q 80 305 56 263 q 142 371 103 346 q 227 410 181 397 q 318 431 273 424 q 398 440 363 437 l 592 455 l 562 428 q 550 547 569 501 q 492 615 531 593 q 397 637 452 637 q 286 610 336 637 q 216 522 237 583 l 83 563 q 149 670 104 624 q 257 744 193 717 q 400 771 321 771 q 593 721 519 771 q 692 582 666 671 q 705 512 703 546 q 708 455 708 478 l 638 167 q 555 57 604 98 q 445 -3 506 15 q 317 -21 385 -21 m 670 334 l 670 451 l 1176 451 l 1176 334 l 670 334 z "},"b":{"ha":844,"x_min":97,"x_max":789,"o":"m 449 -21 q 269 32 342 -21 q 158 174 196 84 q 121 376 121 263 q 158 578 121 488 q 268 719 195 667 q 447 771 340 771 q 629 719 552 771 q 747 578 706 667 q 789 376 789 489 q 748 173 789 263 q 630 31 706 83 q 449 -21 554 -21 m 97 0 l 97 1000 l 242 1000 l 242 540 l 226 540 l 226 0 l 97 0 m 429 110 q 544 146 499 110 q 612 241 590 181 q 635 376 635 301 q 612 509 635 449 q 543 604 590 569 q 424 640 497 640 q 312 606 356 640 q 247 513 268 573 q 226 376 226 453 q 247 238 226 298 q 313 144 267 178 q 429 110 358 110 z "},"c":{"ha":790,"x_min":56,"x_max":745,"o":"m 418 -21 q 222 31 303 -21 q 99 172 142 82 q 56 375 56 261 q 100 580 56 491 q 225 720 144 669 q 420 771 306 771 q 630 710 543 771 q 745 542 717 649 l 601 501 q 530 599 579 564 q 418 634 481 634 q 301 600 347 634 q 233 508 255 567 q 210 375 210 450 q 263 188 210 259 q 418 116 315 116 q 532 148 488 116 q 598 241 575 181 l 745 206 q 624 38 708 97 q 418 -21 539 -21 z "},"ć":{"ha":790,"x_min":56,"x_max":745,"o":"m 481 861 l 367 861 l 466 1104 l 580 1104 l 481 861 m 418 -21 q 222 31 303 -21 q 99 172 142 82 q 56 375 56 261 q 100 580 56 491 q 225 720 144 669 q 420 771 306 771 q 630 710 543 771 q 745 542 717 649 l 601 501 q 530 599 579 564 q 418 634 481 634 q 301 600 347 634 q 233 508 255 567 q 210 375 210 450 q 263 188 210 259 q 418 116 315 116 q 532 148 488 116 q 598 241 575 181 l 745 206 q 624 38 708 97 q 418 -21 539 -21 z "},"č":{"ha":790,"x_min":56,"x_max":745,"o":"m 176 1069 l 315 1069 l 418 947 l 522 1069 l 660 1069 l 481 861 l 356 861 l 176 1069 m 418 -21 q 222 31 303 -21 q 99 172 142 82 q 56 375 56 261 q 100 580 56 491 q 225 720 144 669 q 420 771 306 771 q 630 710 543 771 q 745 542 717 649 l 601 501 q 530 599 579 564 q 418 634 481 634 q 301 600 347 634 q 233 508 255 567 q 210 375 210 450 q 263 188 210 259 q 418 116 315 116 q 532 148 488 116 q 598 241 575 181 l 745 206 q 624 38 708 97 q 418 -21 539 -21 z "},"ç":{"ha":790,"x_min":56,"x_max":745,"o":"m 391 -335 q 341 -328 364 -335 q 297 -310 317 -321 l 331 -222 q 378 -231 360 -231 q 414 -218 401 -231 q 426 -188 426 -204 q 398 -147 426 -160 q 335 -123 371 -134 l 385 19 l 477 20 l 447 -66 q 509 -116 486 -85 q 531 -192 531 -147 q 490 -295 531 -255 q 391 -335 448 -335 m 418 -21 q 222 31 303 -21 q 99 172 142 82 q 56 375 56 261 q 100 580 56 491 q 225 720 144 669 q 420 771 306 771 q 630 710 543 771 q 745 542 717 649 l 601 501 q 530 599 579 564 q 418 634 481 634 q 301 600 347 634 q 233 508 255 567 q 210 375 210 450 q 263 188 210 259 q 418 116 315 116 q 532 148 488 116 q 598 241 575 181 l 745 206 q 624 38 708 97 q 418 -21 539 -21 z "},"ĉ":{"ha":790,"x_min":56,"x_max":745,"o":"m 180 861 l 359 1069 l 484 1069 l 664 861 l 525 861 l 422 984 l 319 861 l 180 861 m 418 -21 q 222 31 303 -21 q 99 172 142 82 q 56 375 56 261 q 100 580 56 491 q 225 720 144 669 q 420 771 306 771 q 630 710 543 771 q 745 542 717 649 l 601 501 q 530 599 579 564 q 418 634 481 634 q 301 600 347 634 q 233 508 255 567 q 210 375 210 450 q 263 188 210 259 q 418 116 315 116 q 532 148 488 116 q 598 241 575 181 l 745 206 q 624 38 708 97 q 418 -21 539 -21 z "},"ċ":{"ha":790,"x_min":56,"x_max":745,"o":"m 360 902 l 360 1056 l 514 1056 l 514 902 l 360 902 m 418 -21 q 222 31 303 -21 q 99 172 142 82 q 56 375 56 261 q 100 580 56 491 q 225 720 144 669 q 420 771 306 771 q 630 710 543 771 q 745 542 717 649 l 601 501 q 530 599 579 564 q 418 634 481 634 q 301 600 347 634 q 233 508 255 567 q 210 375 210 450 q 263 188 210 259 q 418 116 315 116 q 532 148 488 116 q 598 241 575 181 l 745 206 q 624 38 708 97 q 418 -21 539 -21 z "},"d":{"ha":845,"x_min":56,"x_max":748,"o":"m 395 -21 q 214 31 290 -21 q 97 173 138 83 q 56 376 56 263 q 97 578 56 489 q 216 719 139 667 q 398 771 292 771 q 577 719 504 771 q 686 578 649 667 q 724 376 724 488 q 686 174 724 263 q 576 32 649 84 q 395 -21 503 -21 m 415 110 q 532 144 487 110 q 598 238 577 178 q 619 376 619 298 q 598 513 619 453 q 532 606 576 573 q 420 640 488 640 q 301 604 348 640 q 232 509 255 569 q 210 376 210 449 q 232 241 210 301 q 300 146 255 181 q 415 110 346 110 m 619 0 l 619 540 l 602 540 l 602 1000 l 748 1000 l 748 0 l 619 0 z "},"ð":{"ha":822,"x_min":56,"x_max":766,"o":"m 412 -21 q 224 25 304 -22 q 100 155 144 72 q 56 349 56 239 q 101 544 56 460 q 225 674 145 628 q 412 720 305 720 q 522 702 469 720 q 626 644 574 684 q 569 782 615 720 q 450 883 522 844 q 292 928 378 922 l 315 1043 q 511 994 426 1039 q 652 869 597 950 q 719 740 694 810 q 755 576 744 669 q 766 353 766 482 q 723 155 766 239 q 600 24 680 70 q 412 -21 520 -22 m 412 110 q 566 174 512 110 q 619 351 619 238 q 565 526 619 463 q 412 590 510 590 q 256 527 310 590 q 202 350 202 463 q 257 173 202 236 q 412 110 311 110 m 437 758 l 353 831 l 570 1087 l 653 1014 l 437 758 z "},"ď":{"ha":1060,"x_min":56,"x_max":1024,"o":"m 395 -21 q 214 31 290 -21 q 97 173 138 83 q 56 376 56 263 q 97 578 56 489 q 216 719 139 667 q 398 771 292 771 q 577 719 504 771 q 686 578 649 667 q 724 376 724 488 q 686 174 724 263 q 576 32 649 84 q 395 -21 503 -21 m 415 110 q 532 144 487 110 q 598 238 577 178 q 619 376 619 298 q 598 513 619 453 q 532 606 576 573 q 420 640 488 640 q 301 604 348 640 q 232 509 255 569 q 210 376 210 449 q 232 241 210 301 q 300 146 255 181 q 415 110 346 110 m 619 0 l 619 540 l 602 540 l 602 1000 l 748 1000 l 748 0 l 619 0 m 870 671 l 879 735 q 926 747 909 733 q 948 783 942 760 q 950 837 953 807 l 870 837 l 870 1004 l 1024 1004 l 1024 823 q 984 699 1024 741 q 870 671 945 658 z "},"đ":{"ha":845,"x_min":56,"x_max":840,"o":"m 477 815 l 477 931 l 840 931 l 840 815 l 477 815 m 395 -21 q 214 31 290 -21 q 97 173 138 83 q 56 376 56 263 q 97 578 56 489 q 216 719 139 667 q 398 771 292 771 q 577 719 504 771 q 686 578 649 667 q 724 376 724 488 q 686 174 724 263 q 576 32 649 84 q 395 -21 503 -21 m 415 110 q 532 144 487 110 q 598 238 577 178 q 619 376 619 298 q 598 513 619 453 q 532 606 576 573 q 420 640 488 640 q 301 604 348 640 q 232 509 255 569 q 210 376 210 449 q 232 241 210 301 q 300 146 255 181 q 415 110 346 110 m 619 0 l 619 540 l 602 540 l 602 1000 l 748 1000 l 748 0 l 619 0 z "},"e":{"ha":828,"x_min":56,"x_max":778,"o":"m 430 -21 q 234 28 318 -21 q 102 165 149 77 q 56 369 56 253 q 102 582 56 492 q 231 722 148 672 q 423 771 313 771 q 618 718 538 771 q 739 567 699 665 q 770 334 778 469 l 625 334 l 625 387 q 575 580 624 517 q 428 642 527 642 q 265 574 319 642 q 210 375 210 505 q 265 184 210 251 q 423 116 319 116 q 541 147 491 116 q 618 235 590 178 l 760 190 q 628 34 717 90 q 430 -21 539 -21 m 163 334 l 163 447 l 698 447 l 698 334 l 163 334 z "},"é":{"ha":828,"x_min":56,"x_max":778,"o":"m 494 861 l 381 861 l 480 1104 l 594 1104 l 494 861 m 430 -21 q 234 28 318 -21 q 102 165 149 77 q 56 369 56 253 q 102 582 56 492 q 231 722 148 672 q 423 771 313 771 q 618 718 538 771 q 739 567 699 665 q 770 334 778 469 l 625 334 l 625 387 q 575 580 624 517 q 428 642 527 642 q 265 574 319 642 q 210 375 210 505 q 265 184 210 251 q 423 116 319 116 q 541 147 491 116 q 618 235 590 178 l 760 190 q 628 34 717 90 q 430 -21 539 -21 m 163 334 l 163 447 l 698 447 l 698 334 l 163 334 z "},"ě":{"ha":828,"x_min":56,"x_max":778,"o":"m 178 1069 l 317 1069 l 421 947 l 524 1069 l 663 1069 l 483 861 l 358 861 l 178 1069 m 430 -21 q 234 28 318 -21 q 102 165 149 77 q 56 369 56 253 q 102 582 56 492 q 231 722 148 672 q 423 771 313 771 q 618 718 538 771 q 739 567 699 665 q 770 334 778 469 l 625 334 l 625 387 q 575 580 624 517 q 428 642 527 642 q 265 574 319 642 q 210 375 210 505 q 265 184 210 251 q 423 116 319 116 q 541 147 491 116 q 618 235 590 178 l 760 190 q 628 34 717 90 q 430 -21 539 -21 m 163 334 l 163 447 l 698 447 l 698 334 l 163 334 z "},"ê":{"ha":828,"x_min":56,"x_max":778,"o":"m 178 861 l 358 1069 l 483 1069 l 663 861 l 524 861 l 421 984 l 317 861 l 178 861 m 430 -21 q 234 28 318 -21 q 102 165 149 77 q 56 369 56 253 q 102 582 56 492 q 231 722 148 672 q 423 771 313 771 q 618 718 538 771 q 739 567 699 665 q 770 334 778 469 l 625 334 l 625 387 q 575 580 624 517 q 428 642 527 642 q 265 574 319 642 q 210 375 210 505 q 265 184 210 251 q 423 116 319 116 q 541 147 491 116 q 618 235 590 178 l 760 190 q 628 34 717 90 q 430 -21 539 -21 m 163 334 l 163 447 l 698 447 l 698 334 l 163 334 z "},"ế":{"ha":828,"x_min":56,"x_max":856,"o":"m 187 861 l 367 1069 l 492 1069 l 672 861 l 533 861 l 429 984 l 326 861 l 187 861 m 756 1007 l 642 1007 l 742 1250 l 856 1250 l 756 1007 m 430 -21 q 234 28 318 -21 q 102 165 149 77 q 56 369 56 253 q 102 582 56 492 q 231 722 148 672 q 423 771 313 771 q 618 718 538 771 q 739 567 699 665 q 770 334 778 469 l 625 334 l 625 387 q 575 580 624 517 q 428 642 527 642 q 265 574 319 642 q 210 375 210 505 q 265 184 210 251 q 423 116 319 116 q 541 147 491 116 q 618 235 590 178 l 760 190 q 628 34 717 90 q 430 -21 539 -21 m 163 334 l 163 447 l 698 447 l 698 334 l 163 334 z "},"ệ":{"ha":828,"x_min":56,"x_max":778,"o":"m 337 -269 l 337 -128 l 490 -128 l 490 -269 l 337 -269 m 178 861 l 358 1069 l 483 1069 l 663 861 l 524 861 l 421 984 l 317 861 l 178 861 m 430 -21 q 234 28 318 -21 q 102 165 149 77 q 56 369 56 253 q 102 582 56 492 q 231 722 148 672 q 423 771 313 771 q 618 718 538 771 q 739 567 699 665 q 770 334 778 469 l 625 334 l 625 387 q 575 580 624 517 q 428 642 527 642 q 265 574 319 642 q 210 375 210 505 q 265 184 210 251 q 423 116 319 116 q 541 147 491 116 q 618 235 590 178 l 760 190 q 628 34 717 90 q 430 -21 539 -21 m 163 334 l 163 447 l 698 447 l 698 334 l 163 334 z "},"ề":{"ha":828,"x_min":56,"x_max":778,"o":"m 178 861 l 358 1069 l 483 1069 l 663 861 l 524 861 l 421 984 l 317 861 l 178 861 m 640 1007 l 540 1250 l 654 1250 l 753 1007 l 640 1007 m 430 -21 q 234 28 318 -21 q 102 165 149 77 q 56 369 56 253 q 102 582 56 492 q 231 722 148 672 q 423 771 313 771 q 618 718 538 771 q 739 567 699 665 q 770 334 778 469 l 625 334 l 625 387 q 575 580 624 517 q 428 642 527 642 q 265 574 319 642 q 210 375 210 505 q 265 184 210 251 q 423 116 319 116 q 541 147 491 116 q 618 235 590 178 l 760 190 q 628 34 717 90 q 430 -21 539 -21 m 163 334 l 163 447 l 698 447 l 698 334 l 163 334 z "},"ể":{"ha":828,"x_min":56,"x_max":869,"o":"m 183 861 l 362 1069 l 487 1069 l 667 861 l 528 861 l 424 984 l 322 861 l 183 861 m 649 1042 l 609 1115 q 692 1158 644 1148 q 783 1151 740 1169 q 851 1082 827 1134 q 865 1005 869 1040 q 840 940 860 969 q 790 893 819 911 q 728 868 760 874 l 697 930 q 759 973 737 944 q 763 1038 781 1001 q 731 1066 751 1061 q 689 1064 710 1071 q 649 1042 667 1056 m 430 -21 q 234 28 318 -21 q 102 165 149 77 q 56 369 56 253 q 102 582 56 492 q 231 722 148 672 q 423 771 313 771 q 618 718 538 771 q 739 567 699 665 q 770 334 778 469 l 625 334 l 625 387 q 575 580 624 517 q 428 642 527 642 q 265 574 319 642 q 210 375 210 505 q 265 184 210 251 q 423 116 319 116 q 541 147 491 116 q 618 235 590 178 l 760 190 q 628 34 717 90 q 430 -21 539 -21 m 163 334 l 163 447 l 698 447 l 698 334 l 163 334 z "},"ễ":{"ha":828,"x_min":56,"x_max":778,"o":"m 181 861 l 360 1069 l 485 1069 l 665 861 l 526 861 l 423 984 l 319 861 l 181 861 m 542 1104 q 481 1118 510 1104 q 424 1150 451 1132 q 373 1181 397 1167 q 329 1195 349 1195 q 297 1173 305 1195 q 298 1120 290 1150 l 203 1120 q 214 1250 185 1197 q 317 1303 243 1303 q 379 1290 349 1303 q 435 1258 408 1276 q 486 1226 463 1240 q 531 1213 510 1213 q 562 1234 553 1213 q 561 1288 571 1256 l 656 1288 q 646 1158 675 1213 q 542 1104 617 1104 m 430 -21 q 234 28 318 -21 q 102 165 149 77 q 56 369 56 253 q 102 582 56 492 q 231 722 148 672 q 423 771 313 771 q 618 718 538 771 q 739 567 699 665 q 770 334 778 469 l 625 334 l 625 387 q 575 580 624 517 q 428 642 527 642 q 265 574 319 642 q 210 375 210 505 q 265 184 210 251 q 423 116 319 116 q 541 147 491 116 q 618 235 590 178 l 760 190 q 628 34 717 90 q 430 -21 539 -21 m 163 334 l 163 447 l 698 447 l 698 334 l 163 334 z "},"ë":{"ha":828,"x_min":56,"x_max":778,"o":"m 493 876 l 493 1015 l 632 1015 l 632 876 l 493 876 m 213 876 l 213 1015 l 352 1015 l 352 876 l 213 876 m 430 -21 q 234 28 318 -21 q 102 165 149 77 q 56 369 56 253 q 102 582 56 492 q 231 722 148 672 q 423 771 313 771 q 618 718 538 771 q 739 567 699 665 q 770 334 778 469 l 625 334 l 625 387 q 575 580 624 517 q 428 642 527 642 q 265 574 319 642 q 210 375 210 505 q 265 184 210 251 q 423 116 319 116 q 541 147 491 116 q 618 235 590 178 l 760 190 q 628 34 717 90 q 430 -21 539 -21 m 163 334 l 163 447 l 698 447 l 698 334 l 163 334 z "},"ė":{"ha":828,"x_min":56,"x_max":778,"o":"m 347 902 l 347 1056 l 501 1056 l 501 902 l 347 902 m 430 -21 q 234 28 318 -21 q 102 165 149 77 q 56 369 56 253 q 102 582 56 492 q 231 722 148 672 q 423 771 313 771 q 618 718 538 771 q 739 567 699 665 q 770 334 778 469 l 625 334 l 625 387 q 575 580 624 517 q 428 642 527 642 q 265 574 319 642 q 210 375 210 505 q 265 184 210 251 q 423 116 319 116 q 541 147 491 116 q 618 235 590 178 l 760 190 q 628 34 717 90 q 430 -21 539 -21 m 163 334 l 163 447 l 698 447 l 698 334 l 163 334 z "},"ẹ":{"ha":828,"x_min":56,"x_max":778,"o":"m 356 -269 l 356 -128 l 510 -128 l 510 -269 l 356 -269 m 430 -21 q 234 28 318 -21 q 102 165 149 77 q 56 369 56 253 q 102 582 56 492 q 231 722 148 672 q 423 771 313 771 q 618 718 538 771 q 739 567 699 665 q 770 334 778 469 l 625 334 l 625 387 q 575 580 624 517 q 428 642 527 642 q 265 574 319 642 q 210 375 210 505 q 265 184 210 251 q 423 116 319 116 q 541 147 491 116 q 618 235 590 178 l 760 190 q 628 34 717 90 q 430 -21 539 -21 m 163 334 l 163 447 l 698 447 l 698 334 l 163 334 z "},"è":{"ha":828,"x_min":56,"x_max":778,"o":"m 370 861 l 271 1104 l 385 1104 l 484 861 l 370 861 m 430 -21 q 234 28 318 -21 q 102 165 149 77 q 56 369 56 253 q 102 582 56 492 q 231 722 148 672 q 423 771 313 771 q 618 718 538 771 q 739 567 699 665 q 770 334 778 469 l 625 334 l 625 387 q 575 580 624 517 q 428 642 527 642 q 265 574 319 642 q 210 375 210 505 q 265 184 210 251 q 423 116 319 116 q 541 147 491 116 q 618 235 590 178 l 760 190 q 628 34 717 90 q 430 -21 539 -21 m 163 334 l 163 447 l 698 447 l 698 334 l 163 334 z "},"ẻ":{"ha":833,"x_min":56,"x_max":778,"o":"m 342 1046 l 303 1119 q 386 1162 338 1152 q 477 1155 433 1172 q 544 1085 521 1138 q 558 1008 563 1044 q 534 944 554 972 q 484 897 513 915 q 422 872 454 878 l 390 933 q 452 977 431 948 q 456 1041 474 1006 q 424 1070 444 1065 q 382 1067 404 1074 q 342 1046 360 1060 m 430 -21 q 234 28 318 -21 q 102 165 149 77 q 56 369 56 253 q 102 582 56 492 q 231 722 148 672 q 423 771 313 771 q 618 718 538 771 q 739 567 699 665 q 770 334 778 469 l 625 334 l 625 387 q 575 580 624 517 q 428 642 527 642 q 265 574 319 642 q 210 375 210 505 q 265 184 210 251 q 423 116 319 116 q 541 147 491 116 q 618 235 590 178 l 760 190 q 628 34 717 90 q 430 -21 539 -21 m 163 334 l 163 447 l 698 447 l 698 334 l 163 334 z "},"ē":{"ha":828,"x_min":56,"x_max":778,"o":"m 255 917 l 255 1033 l 618 1033 l 618 917 l 255 917 m 430 -21 q 234 28 318 -21 q 102 165 149 77 q 56 369 56 253 q 102 582 56 492 q 231 722 148 672 q 423 771 313 771 q 618 718 538 771 q 739 567 699 665 q 770 334 778 469 l 625 334 l 625 387 q 575 580 624 517 q 428 642 527 642 q 265 574 319 642 q 210 375 210 505 q 265 184 210 251 q 423 116 319 116 q 541 147 491 116 q 618 235 590 178 l 760 190 q 628 34 717 90 q 430 -21 539 -21 m 163 334 l 163 447 l 698 447 l 698 334 l 163 334 z "},"ę":{"ha":828,"x_min":56,"x_max":778,"o":"m 650 -320 q 557 -328 605 -340 q 480 -280 510 -316 q 447 -204 453 -249 q 457 -115 440 -159 q 488 -52 469 -83 q 524 3 507 -21 q 556 47 535 20 q 599 104 576 74 q 641 162 622 134 l 739 151 q 706 95 724 123 q 670 41 688 67 q 639 -6 653 15 q 615 -42 624 -28 q 583 -101 597 -74 q 563 -152 569 -129 q 559 -179 560 -162 q 570 -207 559 -195 q 614 -219 588 -226 q 660 -195 640 -212 l 715 -266 q 688 -297 704 -283 q 650 -320 672 -310 m 430 -21 q 234 28 318 -21 q 102 165 149 77 q 56 369 56 253 q 102 582 56 492 q 231 722 148 672 q 423 771 313 771 q 618 718 538 771 q 739 567 699 665 q 770 334 778 469 l 625 334 l 625 387 q 575 580 624 517 q 428 642 527 642 q 265 574 319 642 q 210 375 210 505 q 265 184 210 251 q 423 116 319 116 q 541 147 491 116 q 618 235 590 178 l 760 190 q 628 34 717 90 q 430 -21 539 -21 m 163 334 l 163 447 l 698 447 l 698 334 l 163 334 z "},"ẽ":{"ha":828,"x_min":56,"x_max":778,"o":"m 544 864 q 483 878 513 864 q 427 909 454 892 q 376 941 400 927 q 332 955 352 955 q 300 932 308 955 q 301 880 292 910 l 206 880 q 217 1010 188 957 q 320 1063 246 1063 q 382 1049 352 1063 q 438 1018 411 1035 q 489 986 465 1000 q 533 972 513 972 q 565 994 556 972 q 565 1048 574 1016 l 659 1048 q 649 918 678 972 q 544 864 619 864 m 430 -21 q 234 28 318 -21 q 102 165 149 77 q 56 369 56 253 q 102 582 56 492 q 231 722 148 672 q 423 771 313 771 q 618 718 538 771 q 739 567 699 665 q 770 334 778 469 l 625 334 l 625 387 q 575 580 624 517 q 428 642 527 642 q 265 574 319 642 q 210 375 210 505 q 265 184 210 251 q 423 116 319 116 q 541 147 491 116 q 618 235 590 178 l 760 190 q 628 34 717 90 q 430 -21 539 -21 m 163 334 l 163 447 l 698 447 l 698 334 l 163 334 z "},"ə":{"ha":828,"x_min":51,"x_max":773,"o":"m 398 771 q 595 722 510 771 q 726 585 679 673 q 773 381 773 497 q 727 168 773 258 q 598 29 681 78 q 406 -21 515 -21 q 210 32 291 -21 q 90 183 130 85 q 58 416 51 281 l 203 416 l 203 363 q 253 170 205 233 q 400 108 301 108 q 564 176 509 108 q 619 375 619 245 q 564 566 619 499 q 406 634 509 634 q 288 603 338 634 q 210 515 238 572 l 68 560 q 201 716 112 660 q 398 771 290 771 m 666 416 l 666 303 l 131 303 l 131 416 l 666 416 z "},"f":{"ha":515,"x_min":42,"x_max":501,"o":"m 166 0 l 166 776 q 168 837 166 805 q 180 901 170 869 q 214 959 190 933 q 276 1003 242 990 q 344 1019 310 1017 q 406 1021 378 1021 l 501 1021 l 501 901 l 413 901 q 336 876 362 901 q 311 804 311 851 l 311 0 l 166 0 m 42 633 l 42 750 l 501 750 l 501 633 l 42 633 z "},"g":{"ha":844,"x_min":56,"x_max":747,"o":"m 406 -354 q 289 -335 346 -354 q 186 -280 233 -317 q 109 -190 140 -244 l 243 -122 q 313 -192 267 -170 q 408 -215 358 -215 q 513 -193 469 -215 q 580 -127 557 -171 q 601 -19 602 -83 l 601 191 l 619 191 l 619 750 l 747 750 l 747 -20 q 745 -77 747 -50 q 738 -131 743 -104 q 677 -256 722 -207 q 563 -330 632 -306 q 406 -354 494 -354 m 395 -21 q 214 31 290 -21 q 97 173 138 83 q 56 376 56 263 q 97 578 56 489 q 216 719 139 667 q 398 771 292 771 q 577 719 504 771 q 686 578 649 667 q 724 376 724 488 q 686 174 724 263 q 576 32 649 84 q 395 -21 503 -21 m 415 110 q 532 144 487 110 q 598 238 577 178 q 619 376 619 298 q 598 513 619 453 q 532 606 576 573 q 420 640 488 640 q 301 604 348 640 q 232 509 255 569 q 210 376 210 449 q 232 241 210 301 q 300 146 255 181 q 415 110 346 110 z "},"ğ":{"ha":844,"x_min":56,"x_max":747,"o":"m 459 836 q 359 863 404 836 q 286 935 313 890 q 259 1036 259 981 l 374 1036 q 399 976 374 1001 q 459 951 424 951 q 519 976 494 951 q 544 1036 544 1001 l 659 1036 q 632 935 659 981 q 560 863 606 890 q 459 836 515 836 m 406 -354 q 289 -335 346 -354 q 186 -280 233 -317 q 109 -190 140 -244 l 243 -122 q 313 -192 267 -170 q 408 -215 358 -215 q 513 -193 469 -215 q 580 -127 557 -171 q 601 -19 602 -83 l 601 191 l 619 191 l 619 750 l 747 750 l 747 -20 q 745 -77 747 -50 q 738 -131 743 -104 q 677 -256 722 -207 q 563 -330 632 -306 q 406 -354 494 -354 m 395 -21 q 214 31 290 -21 q 97 173 138 83 q 56 376 56 263 q 97 578 56 489 q 216 719 139 667 q 398 771 292 771 q 577 719 504 771 q 686 578 649 667 q 724 376 724 488 q 686 174 724 263 q 576 32 649 84 q 395 -21 503 -21 m 415 110 q 532 144 487 110 q 598 238 577 178 q 619 376 619 298 q 598 513 619 453 q 532 606 576 573 q 420 640 488 640 q 301 604 348 640 q 232 509 255 569 q 210 376 210 449 q 232 241 210 301 q 300 146 255 181 q 415 110 346 110 z "},"ĝ":{"ha":844,"x_min":56,"x_max":747,"o":"m 178 861 l 358 1069 l 483 1069 l 663 861 l 524 861 l 420 984 l 317 861 l 178 861 m 406 -354 q 289 -335 346 -354 q 186 -280 233 -317 q 109 -190 140 -244 l 243 -122 q 313 -192 267 -170 q 408 -215 358 -215 q 513 -193 469 -215 q 580 -127 557 -171 q 601 -19 602 -83 l 601 191 l 619 191 l 619 750 l 747 750 l 747 -20 q 745 -77 747 -50 q 738 -131 743 -104 q 677 -256 722 -207 q 563 -330 632 -306 q 406 -354 494 -354 m 395 -21 q 214 31 290 -21 q 97 173 138 83 q 56 376 56 263 q 97 578 56 489 q 216 719 139 667 q 398 771 292 771 q 577 719 504 771 q 686 578 649 667 q 724 376 724 488 q 686 174 724 263 q 576 32 649 84 q 395 -21 503 -21 m 415 110 q 532 144 487 110 q 598 238 577 178 q 619 376 619 298 q 598 513 619 453 q 532 606 576 573 q 420 640 488 640 q 301 604 348 640 q 232 509 255 569 q 210 376 210 449 q 232 241 210 301 q 300 146 255 181 q 415 110 346 110 z "},"ģ":{"ha":844,"x_min":56,"x_max":747,"o":"m 508 1184 l 508 1117 q 478 1113 498 1117 q 443 1093 459 1108 q 428 1048 427 1078 l 508 1048 l 508 902 l 362 902 l 362 1048 q 404 1148 362 1112 q 508 1184 447 1184 m 406 -354 q 289 -335 346 -354 q 186 -280 233 -317 q 109 -190 140 -244 l 243 -122 q 313 -192 267 -170 q 408 -215 358 -215 q 513 -193 469 -215 q 580 -127 557 -171 q 601 -19 602 -83 l 601 191 l 619 191 l 619 750 l 747 750 l 747 -20 q 745 -77 747 -50 q 738 -131 743 -104 q 677 -256 722 -207 q 563 -330 632 -306 q 406 -354 494 -354 m 395 -21 q 214 31 290 -21 q 97 173 138 83 q 56 376 56 263 q 97 578 56 489 q 216 719 139 667 q 398 771 292 771 q 577 719 504 771 q 686 578 649 667 q 724 376 724 488 q 686 174 724 263 q 576 32 649 84 q 395 -21 503 -21 m 415 110 q 532 144 487 110 q 598 238 577 178 q 619 376 619 298 q 598 513 619 453 q 532 606 576 573 q 420 640 488 640 q 301 604 348 640 q 232 509 255 569 q 210 376 210 449 q 232 241 210 301 q 300 146 255 181 q 415 110 346 110 z "},"ġ":{"ha":844,"x_min":56,"x_max":747,"o":"m 374 902 l 374 1056 l 528 1056 l 528 902 l 374 902 m 406 -354 q 289 -335 346 -354 q 186 -280 233 -317 q 109 -190 140 -244 l 243 -122 q 313 -192 267 -170 q 408 -215 358 -215 q 513 -193 469 -215 q 580 -127 557 -171 q 601 -19 602 -83 l 601 191 l 619 191 l 619 750 l 747 750 l 747 -20 q 745 -77 747 -50 q 738 -131 743 -104 q 677 -256 722 -207 q 563 -330 632 -306 q 406 -354 494 -354 m 395 -21 q 214 31 290 -21 q 97 173 138 83 q 56 376 56 263 q 97 578 56 489 q 216 719 139 667 q 398 771 292 771 q 577 719 504 771 q 686 578 649 667 q 724 376 724 488 q 686 174 724 263 q 576 32 649 84 q 395 -21 503 -21 m 415 110 q 532 144 487 110 q 598 238 577 178 q 619 376 619 298 q 598 513 619 453 q 532 606 576 573 q 420 640 488 640 q 301 604 348 640 q 232 509 255 569 q 210 376 210 449 q 232 241 210 301 q 300 146 255 181 q 415 110 346 110 z "},"h":{"ha":854,"x_min":97,"x_max":771,"o":"m 624 0 l 624 369 q 616 459 624 413 q 589 544 609 505 q 531 608 568 584 q 434 633 494 633 q 360 620 395 633 q 300 578 326 607 q 259 503 274 550 q 244 390 244 457 l 153 424 q 192 605 153 526 q 301 726 230 683 q 474 770 373 770 q 605 745 552 770 q 691 680 658 720 q 741 591 724 639 q 765 497 758 543 q 771 417 771 451 l 771 0 l 624 0 m 97 0 l 97 1000 l 226 1000 l 226 460 l 244 460 l 244 0 l 97 0 z "},"ħ":{"ha":854,"x_min":17,"x_max":771,"o":"m 17 815 l 17 931 l 380 931 l 380 815 l 17 815 m 624 0 l 624 369 q 616 459 624 413 q 589 544 609 505 q 531 608 568 584 q 434 633 494 633 q 360 620 395 633 q 300 578 326 607 q 259 503 274 550 q 244 390 244 457 l 153 424 q 192 605 153 526 q 301 726 230 683 q 474 770 373 770 q 605 745 552 770 q 691 680 658 720 q 741 591 724 639 q 765 497 758 543 q 771 417 771 451 l 771 0 l 624 0 m 97 0 l 97 1000 l 226 1000 l 226 460 l 244 460 l 244 0 l 97 0 z "},"ĥ":{"ha":854,"x_min":-83,"x_max":771,"o":"m -83 1111 l 97 1319 l 222 1319 l 401 1111 l 263 1111 l 160 1234 l 56 1111 l -83 1111 m 624 0 l 624 369 q 616 459 624 413 q 589 544 609 505 q 531 608 568 584 q 434 633 494 633 q 360 620 395 633 q 300 578 326 607 q 259 503 274 550 q 244 390 244 457 l 153 424 q 192 605 153 526 q 301 726 230 683 q 474 770 373 770 q 605 745 552 770 q 691 680 658 720 q 741 591 724 639 q 765 497 758 543 q 771 417 771 451 l 771 0 l 624 0 m 97 0 l 97 1000 l 226 1000 l 226 460 l 244 460 l 244 0 l 97 0 z "},"i":{"ha":367,"x_min":111,"x_max":256,"o":"m 111 873 l 111 1014 l 256 1014 l 256 873 l 111 873 m 111 0 l 111 750 l 256 750 l 256 0 l 111 0 z "},"ı":{"ha":367,"x_min":111,"x_max":256,"o":"m 111 0 l 111 750 l 256 750 l 256 0 l 111 0 z "},"í":{"ha":367,"x_min":111,"x_max":342,"o":"m 243 861 l 129 861 l 228 1104 l 342 1104 l 243 861 m 111 0 l 111 750 l 256 750 l 256 0 l 111 0 z "},"î":{"ha":367,"x_min":-51,"x_max":433,"o":"m -51 861 l 128 1069 l 253 1069 l 433 861 l 294 861 l 191 984 l 88 861 l -51 861 m 111 0 l 111 750 l 256 750 l 256 0 l 111 0 z "},"ï":{"ha":367,"x_min":-26,"x_max":393,"o":"m 254 876 l 254 1015 l 393 1015 l 393 876 l 254 876 m -26 876 l -26 1015 l 113 1015 l 113 876 l -26 876 m 111 0 l 111 750 l 256 750 l 256 0 l 111 0 z "},"ị":{"ha":367,"x_min":107,"x_max":260,"o":"m 107 -269 l 107 -128 l 260 -128 l 260 -269 l 107 -269 m 111 873 l 111 1014 l 256 1014 l 256 873 l 111 873 m 111 0 l 111 750 l 256 750 l 256 0 l 111 0 z "},"ì":{"ha":367,"x_min":26,"x_max":256,"o":"m 124 861 l 26 1104 l 140 1104 l 238 861 l 124 861 m 111 0 l 111 750 l 256 750 l 256 0 l 111 0 z "},"ỉ":{"ha":367,"x_min":43,"x_max":303,"o":"m 83 1046 l 43 1119 q 126 1162 78 1152 q 217 1155 174 1172 q 285 1085 261 1138 q 299 1008 303 1044 q 274 944 294 972 q 224 897 253 915 q 163 872 194 878 l 131 933 q 193 977 171 948 q 197 1041 215 1006 q 165 1070 185 1065 q 123 1067 144 1074 q 83 1046 101 1060 m 111 0 l 111 750 l 256 750 l 256 0 l 111 0 z "},"ī":{"ha":367,"x_min":2,"x_max":365,"o":"m 2 917 l 2 1033 l 365 1033 l 365 917 l 2 917 m 111 0 l 111 750 l 256 750 l 256 0 l 111 0 z "},"į":{"ha":367,"x_min":-15,"x_max":256,"o":"m 128 -333 q 55 -313 87 -333 q 3 -259 22 -292 q -15 -187 -15 -226 q 12 -90 -15 -139 q 86 3 40 -40 q 190 76 132 46 l 256 0 q 179 -55 214 -24 q 123 -119 144 -87 q 101 -177 101 -151 q 115 -210 101 -197 q 146 -223 128 -223 q 174 -216 159 -223 q 201 -196 188 -208 l 256 -266 q 198 -316 232 -299 q 128 -333 164 -333 m 111 873 l 111 1014 l 256 1014 l 256 873 l 111 873 m 111 0 l 111 750 l 256 750 l 256 0 l 111 0 z "},"ĩ":{"ha":367,"x_min":-61,"x_max":429,"o":"m 296 864 q 235 878 264 864 q 178 909 206 892 q 127 941 151 927 q 83 955 103 955 q 51 932 59 955 q 52 880 44 910 l -42 880 q -32 1010 -61 957 q 72 1063 -3 1063 q 133 1049 103 1063 q 190 1018 163 1035 q 240 986 217 1000 q 285 972 264 972 q 316 994 307 972 q 315 1048 325 1016 l 410 1048 q 400 918 429 972 q 296 864 371 864 m 111 0 l 111 750 l 256 750 l 256 0 l 111 0 z "},"j":{"ha":383,"x_min":-14,"x_max":281,"o":"m -14 -333 l -14 -196 l 24 -196 q 109 -168 82 -196 q 135 -83 135 -140 l 135 750 l 281 750 l 281 -142 q 231 -283 281 -233 q 87 -333 181 -333 l -14 -333 m 135 873 l 135 1014 l 281 1014 l 281 873 l 135 873 z "},"ĵ":{"ha":383,"x_min":-36,"x_max":448,"o":"m -14 -333 l -14 -196 l 24 -196 q 109 -168 82 -196 q 135 -83 135 -140 l 135 750 l 281 750 l 281 -142 q 231 -283 281 -233 q 87 -333 181 -333 l -14 -333 m -36 861 l 144 1069 l 269 1069 l 448 861 l 309 861 l 206 984 l 103 861 l -36 861 z "},"k":{"ha":728,"x_min":97,"x_max":756,"o":"m 97 0 l 97 1000 l 244 1000 l 244 389 l 539 750 l 724 750 l 413 375 l 756 0 l 558 0 l 244 361 l 244 0 l 97 0 z "},"ķ":{"ha":728,"x_min":97,"x_max":756,"o":"m 330 -410 l 330 -343 q 359 -338 340 -343 q 394 -319 378 -333 q 410 -274 410 -304 l 330 -274 l 330 -128 l 476 -128 l 476 -274 q 433 -374 476 -337 q 330 -410 391 -410 m 97 0 l 97 1000 l 244 1000 l 244 389 l 539 750 l 724 750 l 413 375 l 756 0 l 558 0 l 244 361 l 244 0 l 97 0 z "},"l":{"ha":367,"x_min":111,"x_max":256,"o":"m 111 0 l 111 1021 l 256 1021 l 256 0 l 111 0 z "},"ĺ":{"ha":367,"x_min":111,"x_max":342,"o":"m 243 1111 l 129 1111 l 228 1354 l 342 1354 l 243 1111 m 111 0 l 111 1021 l 256 1021 l 256 0 l 111 0 z "},"ľ":{"ha":559,"x_min":111,"x_max":524,"o":"m 111 0 l 111 1021 l 256 1021 l 256 0 l 111 0 m 370 671 l 379 735 q 426 747 409 733 q 448 783 442 760 q 450 837 453 807 l 370 837 l 370 1004 l 524 1004 l 524 823 q 484 699 524 741 q 370 671 445 658 z "},"ļ":{"ha":367,"x_min":110,"x_max":257,"o":"m 110 -410 l 110 -343 q 140 -338 120 -343 q 175 -319 159 -333 q 191 -274 192 -304 l 110 -274 l 110 -128 l 257 -128 l 257 -274 q 214 -374 257 -337 q 110 -410 172 -410 m 111 0 l 111 1021 l 256 1021 l 256 0 l 111 0 z "},"ł":{"ha":543,"x_min":44,"x_max":499,"o":"m 44 301 l 44 459 l 499 720 l 499 562 l 44 301 m 199 0 l 199 1021 l 344 1021 l 344 0 l 199 0 z "},"m":{"ha":1225,"x_min":97,"x_max":1142,"o":"m 996 0 l 997 467 q 955 594 997 549 q 845 640 913 640 q 769 620 803 640 q 714 564 735 601 q 692 469 692 526 l 622 504 q 656 643 621 583 q 751 736 691 703 q 887 769 812 769 q 1075 696 1008 769 q 1142 502 1142 623 l 1141 0 l 996 0 m 97 0 l 97 750 l 226 750 l 226 533 l 242 533 l 242 0 l 97 0 m 547 0 l 547 465 q 506 593 547 547 q 395 640 465 640 q 284 592 326 640 q 242 469 242 545 l 173 513 q 208 644 173 587 q 304 735 244 702 q 441 769 365 769 q 577 735 521 769 q 663 641 633 701 q 692 501 692 581 l 692 0 l 547 0 z "},"n":{"ha":854,"x_min":97,"x_max":771,"o":"m 624 0 l 624 369 q 616 459 624 413 q 589 544 609 505 q 531 608 568 584 q 434 633 494 633 q 360 620 395 633 q 300 578 326 607 q 259 503 274 550 q 244 390 244 457 l 153 424 q 192 605 153 526 q 301 726 230 683 q 474 770 373 770 q 605 745 552 770 q 691 680 658 720 q 741 591 724 639 q 765 497 758 543 q 771 417 771 451 l 771 0 l 624 0 m 97 0 l 97 750 l 226 750 l 226 533 l 244 533 l 244 0 l 97 0 z "},"ń":{"ha":854,"x_min":97,"x_max":771,"o":"m 494 861 l 381 861 l 480 1104 l 594 1104 l 494 861 m 624 0 l 624 369 q 616 459 624 413 q 589 544 609 505 q 531 608 568 584 q 434 633 494 633 q 360 620 395 633 q 300 578 326 607 q 259 503 274 550 q 244 390 244 457 l 153 424 q 192 605 153 526 q 301 726 230 683 q 474 770 373 770 q 605 745 552 770 q 691 680 658 720 q 741 591 724 639 q 765 497 758 543 q 771 417 771 451 l 771 0 l 624 0 m 97 0 l 97 750 l 226 750 l 226 533 l 244 533 l 244 0 l 97 0 z "},"ň":{"ha":854,"x_min":97,"x_max":771,"o":"m 185 1069 l 324 1069 l 427 947 l 530 1069 l 669 1069 l 490 861 l 365 861 l 185 1069 m 624 0 l 624 369 q 616 459 624 413 q 589 544 609 505 q 531 608 568 584 q 434 633 494 633 q 360 620 395 633 q 300 578 326 607 q 259 503 274 550 q 244 390 244 457 l 153 424 q 192 605 153 526 q 301 726 230 683 q 474 770 373 770 q 605 745 552 770 q 691 680 658 720 q 741 591 724 639 q 765 497 758 543 q 771 417 771 451 l 771 0 l 624 0 m 97 0 l 97 750 l 226 750 l 226 533 l 244 533 l 244 0 l 97 0 z "},"ņ":{"ha":854,"x_min":97,"x_max":771,"o":"m 364 -410 l 364 -343 q 393 -338 374 -343 q 428 -319 413 -333 q 444 -274 444 -304 l 364 -274 l 364 -128 l 510 -128 l 510 -274 q 468 -374 510 -337 q 364 -410 425 -410 m 624 0 l 624 369 q 616 459 624 413 q 589 544 609 505 q 531 608 568 584 q 434 633 494 633 q 360 620 395 633 q 300 578 326 607 q 259 503 274 550 q 244 390 244 457 l 153 424 q 192 605 153 526 q 301 726 230 683 q 474 770 373 770 q 605 745 552 770 q 691 680 658 720 q 741 591 724 639 q 765 497 758 543 q 771 417 771 451 l 771 0 l 624 0 m 97 0 l 97 750 l 226 750 l 226 533 l 244 533 l 244 0 l 97 0 z "},"ŋ":{"ha":854,"x_min":97,"x_max":771,"o":"m 649 -299 q 571 -303 606 -307 q 503 -292 535 -300 l 503 -185 q 547 -187 526 -187 q 586 -179 569 -187 q 613 -149 603 -171 q 624 -87 624 -127 l 624 2 l 771 2 l 771 -126 q 738 -244 771 -200 q 649 -299 706 -287 m 624 0 l 624 369 q 616 459 624 413 q 589 544 609 505 q 531 608 568 584 q 434 633 494 633 q 360 620 395 633 q 300 578 326 607 q 259 503 274 550 q 244 390 244 457 l 153 424 q 192 605 153 526 q 301 726 230 683 q 474 770 373 770 q 605 745 552 770 q 691 680 658 720 q 741 591 724 639 q 765 497 758 543 q 771 417 771 451 l 771 0 l 624 0 m 97 0 l 97 750 l 226 750 l 226 533 l 244 533 l 244 0 l 97 0 z "},"ñ":{"ha":854,"x_min":97,"x_max":771,"o":"m 540 864 q 479 878 508 864 q 422 909 449 892 q 372 941 395 927 q 327 955 348 955 q 296 932 303 955 q 297 880 288 910 l 202 880 q 213 1010 183 957 q 316 1063 242 1063 q 377 1049 348 1063 q 433 1018 406 1035 q 484 986 460 1000 q 528 972 508 972 q 560 994 551 972 q 560 1048 569 1016 l 654 1048 q 644 918 673 972 q 540 864 615 864 m 624 0 l 624 369 q 616 459 624 413 q 589 544 609 505 q 531 608 568 584 q 434 633 494 633 q 360 620 395 633 q 300 578 326 607 q 259 503 274 550 q 244 390 244 457 l 153 424 q 192 605 153 526 q 301 726 230 683 q 474 770 373 770 q 605 745 552 770 q 691 680 658 720 q 741 591 724 639 q 765 497 758 543 q 771 417 771 451 l 771 0 l 624 0 m 97 0 l 97 750 l 226 750 l 226 533 l 244 533 l 244 0 l 97 0 z "},"o":{"ha":847,"x_min":56,"x_max":791,"o":"m 423 -21 q 228 30 310 -21 q 100 170 145 81 q 56 376 56 259 q 101 582 56 493 q 230 721 147 672 q 423 771 313 771 q 618 720 535 771 q 746 581 701 669 q 791 376 791 492 q 745 169 791 258 q 617 30 700 80 q 423 -21 535 -21 m 423 116 q 584 189 531 116 q 637 376 637 261 q 583 564 637 493 q 423 634 529 634 q 303 601 350 634 q 233 510 256 568 q 210 376 210 452 q 264 187 210 258 q 423 116 318 116 z "},"ó":{"ha":847,"x_min":56,"x_max":791,"o":"m 481 861 l 367 861 l 466 1104 l 580 1104 l 481 861 m 423 -21 q 228 30 310 -21 q 100 170 145 81 q 56 376 56 259 q 101 582 56 493 q 230 721 147 672 q 423 771 313 771 q 618 720 535 771 q 746 581 701 669 q 791 376 791 492 q 745 169 791 258 q 617 30 700 80 q 423 -21 535 -21 m 423 116 q 584 189 531 116 q 637 376 637 261 q 583 564 637 493 q 423 634 529 634 q 303 601 350 634 q 233 510 256 568 q 210 376 210 452 q 264 187 210 258 q 423 116 318 116 z "},"ô":{"ha":847,"x_min":56,"x_max":791,"o":"m 180 861 l 359 1069 l 484 1069 l 664 861 l 525 861 l 422 984 l 319 861 l 180 861 m 423 -21 q 228 30 310 -21 q 100 170 145 81 q 56 376 56 259 q 101 582 56 493 q 230 721 147 672 q 423 771 313 771 q 618 720 535 771 q 746 581 701 669 q 791 376 791 492 q 745 169 791 258 q 617 30 700 80 q 423 -21 535 -21 m 423 116 q 584 189 531 116 q 637 376 637 261 q 583 564 637 493 q 423 634 529 634 q 303 601 350 634 q 233 510 256 568 q 210 376 210 452 q 264 187 210 258 q 423 116 318 116 z "},"ố":{"ha":847,"x_min":56,"x_max":857,"o":"m 188 861 l 368 1069 l 493 1069 l 673 861 l 534 861 l 431 984 l 327 861 l 188 861 m 758 1007 l 644 1007 l 743 1250 l 857 1250 l 758 1007 m 423 -21 q 228 30 310 -21 q 100 170 145 81 q 56 376 56 259 q 101 582 56 493 q 230 721 147 672 q 423 771 313 771 q 618 720 535 771 q 746 581 701 669 q 791 376 791 492 q 745 169 791 258 q 617 30 700 80 q 423 -21 535 -21 m 423 116 q 584 189 531 116 q 637 376 637 261 q 583 564 637 493 q 423 634 529 634 q 303 601 350 634 q 233 510 256 568 q 210 376 210 452 q 264 187 210 258 q 423 116 318 116 z "},"ộ":{"ha":847,"x_min":56,"x_max":791,"o":"m 357 -269 l 357 -128 l 510 -128 l 510 -269 l 357 -269 m 180 861 l 359 1069 l 484 1069 l 664 861 l 525 861 l 422 984 l 319 861 l 180 861 m 423 -21 q 228 30 310 -21 q 100 170 145 81 q 56 376 56 259 q 101 582 56 493 q 230 721 147 672 q 423 771 313 771 q 618 720 535 771 q 746 581 701 669 q 791 376 791 492 q 745 169 791 258 q 617 30 700 80 q 423 -21 535 -21 m 423 116 q 584 189 531 116 q 637 376 637 261 q 583 564 637 493 q 423 634 529 634 q 303 601 350 634 q 233 510 256 568 q 210 376 210 452 q 264 187 210 258 q 423 116 318 116 z "},"ồ":{"ha":847,"x_min":56,"x_max":791,"o":"m 192 861 l 372 1069 l 497 1069 l 676 861 l 538 861 l 434 984 l 331 861 l 192 861 m 653 1007 l 554 1250 l 668 1250 l 767 1007 l 653 1007 m 423 -21 q 228 30 310 -21 q 100 170 145 81 q 56 376 56 259 q 101 582 56 493 q 230 721 147 672 q 423 771 313 771 q 618 720 535 771 q 746 581 701 669 q 791 376 791 492 q 745 169 791 258 q 617 30 700 80 q 423 -21 535 -21 m 423 116 q 584 189 531 116 q 637 376 637 261 q 583 564 637 493 q 423 634 529 634 q 303 601 350 634 q 233 510 256 568 q 210 376 210 452 q 264 187 210 258 q 423 116 318 116 z "},"ổ":{"ha":847,"x_min":56,"x_max":865,"o":"m 179 861 l 358 1069 l 483 1069 l 663 861 l 524 861 l 421 984 l 318 861 l 179 861 m 645 1042 l 606 1115 q 689 1158 641 1148 q 780 1151 736 1169 q 847 1082 824 1134 q 861 1005 865 1040 q 836 940 857 969 q 786 893 816 911 q 725 868 757 874 l 693 930 q 755 973 733 944 q 759 1038 777 1001 q 727 1066 747 1061 q 685 1064 707 1071 q 645 1042 663 1056 m 423 -21 q 228 30 310 -21 q 100 170 145 81 q 56 376 56 259 q 101 582 56 493 q 230 721 147 672 q 423 771 313 771 q 618 720 535 771 q 746 581 701 669 q 791 376 791 492 q 745 169 791 258 q 617 30 700 80 q 423 -21 535 -21 m 423 116 q 584 189 531 116 q 637 376 637 261 q 583 564 637 493 q 423 634 529 634 q 303 601 350 634 q 233 510 256 568 q 210 376 210 452 q 264 187 210 258 q 423 116 318 116 z "},"ỗ":{"ha":847,"x_min":56,"x_max":791,"o":"m 195 861 l 374 1069 l 499 1069 l 679 861 l 540 861 l 437 984 l 334 861 l 195 861 m 556 1104 q 494 1118 524 1104 q 438 1150 465 1132 q 387 1181 411 1167 q 343 1195 363 1195 q 311 1173 319 1195 q 312 1120 303 1150 l 217 1120 q 228 1250 199 1197 q 331 1303 257 1303 q 393 1290 363 1303 q 449 1258 422 1276 q 500 1226 476 1240 q 544 1213 524 1213 q 576 1234 567 1213 q 576 1288 585 1256 l 670 1288 q 660 1158 689 1213 q 556 1104 631 1104 m 423 -21 q 228 30 310 -21 q 100 170 145 81 q 56 376 56 259 q 101 582 56 493 q 230 721 147 672 q 423 771 313 771 q 618 720 535 771 q 746 581 701 669 q 791 376 791 492 q 745 169 791 258 q 617 30 700 80 q 423 -21 535 -21 m 423 116 q 584 189 531 116 q 637 376 637 261 q 583 564 637 493 q 423 634 529 634 q 303 601 350 634 q 233 510 256 568 q 210 376 210 452 q 264 187 210 258 q 423 116 318 116 z "},"ö":{"ha":847,"x_min":56,"x_max":791,"o":"m 494 876 l 494 1015 l 633 1015 l 633 876 l 494 876 m 215 876 l 215 1015 l 353 1015 l 353 876 l 215 876 m 423 -21 q 228 30 310 -21 q 100 170 145 81 q 56 376 56 259 q 101 582 56 493 q 230 721 147 672 q 423 771 313 771 q 618 720 535 771 q 746 581 701 669 q 791 376 791 492 q 745 169 791 258 q 617 30 700 80 q 423 -21 535 -21 m 423 116 q 584 189 531 116 q 637 376 637 261 q 583 564 637 494 q 423 634 529 634 q 303 601 350 634 q 233 510 256 568 q 210 376 210 452 q 264 187 210 258 q 423 116 318 116 z "},"ọ":{"ha":847,"x_min":56,"x_max":791,"o":"m 347 -269 l 347 -128 l 500 -128 l 500 -269 l 347 -269 m 423 -21 q 228 30 310 -21 q 100 170 145 81 q 56 376 56 259 q 101 582 56 493 q 230 721 147 672 q 423 771 313 771 q 618 720 535 771 q 746 581 701 669 q 791 376 791 492 q 745 169 791 258 q 617 30 700 80 q 423 -21 535 -21 m 423 116 q 584 189 531 116 q 637 376 637 261 q 583 564 637 493 q 423 634 529 634 q 303 601 350 634 q 233 510 256 568 q 210 376 210 452 q 264 187 210 258 q 423 116 318 116 z "},"ò":{"ha":847,"x_min":56,"x_max":791,"o":"m 358 861 l 260 1104 l 374 1104 l 472 861 l 358 861 m 423 -21 q 228 30 310 -21 q 100 170 145 81 q 56 376 56 259 q 101 582 56 493 q 230 721 147 672 q 423 771 313 771 q 618 720 535 771 q 746 581 701 669 q 791 376 791 492 q 745 169 791 258 q 617 30 700 80 q 423 -21 535 -21 m 423 116 q 584 189 531 116 q 637 376 637 261 q 583 564 637 493 q 423 634 529 634 q 303 601 350 634 q 233 510 256 568 q 210 376 210 452 q 264 187 210 258 q 423 116 318 116 z "},"ỏ":{"ha":847,"x_min":56,"x_max":791,"o":"m 342 1046 l 303 1119 q 386 1162 338 1152 q 477 1155 433 1172 q 544 1085 521 1138 q 558 1008 563 1044 q 534 944 554 972 q 484 897 513 915 q 422 872 454 878 l 390 933 q 452 977 431 948 q 456 1041 474 1006 q 424 1070 444 1065 q 382 1067 404 1074 q 342 1046 360 1060 m 423 -21 q 228 30 310 -21 q 100 170 145 81 q 56 376 56 259 q 101 582 56 493 q 230 721 147 672 q 423 771 313 771 q 618 720 535 771 q 746 581 701 669 q 791 376 791 492 q 745 169 791 258 q 617 30 700 80 q 423 -21 535 -21 m 423 116 q 584 189 531 116 q 637 376 637 261 q 583 564 637 493 q 423 634 529 634 q 303 601 350 634 q 233 510 256 568 q 210 376 210 452 q 264 187 210 258 q 423 116 318 116 z "},"ơ":{"ha":847,"x_min":56,"x_max":797,"o":"m 674 874 l 787 875 q 782 757 797 806 q 722 685 767 709 q 628 665 683 664 q 530 692 573 666 l 530 757 q 585 747 563 749 q 628 754 608 745 q 670 805 664 772 q 674 874 676 838 m 423 -21 q 228 30 310 -21 q 100 170 145 81 q 56 376 56 259 q 101 582 56 493 q 230 721 147 672 q 423 771 313 771 q 618 720 535 771 q 746 581 701 669 q 791 376 791 492 q 745 169 791 258 q 617 30 700 80 q 423 -21 535 -21 m 423 116 q 584 189 531 116 q 637 376 637 261 q 583 564 637 493 q 423 634 529 634 q 303 601 350 634 q 233 510 256 568 q 210 376 210 452 q 264 187 210 258 q 423 116 318 116 z "},"ớ":{"ha":858,"x_min":56,"x_max":797,"o":"m 674 874 l 787 875 q 782 757 797 806 q 722 685 767 709 q 628 665 683 664 q 530 692 573 666 l 530 757 q 585 747 563 749 q 628 754 608 745 q 670 805 664 772 q 674 874 676 838 m 481 861 l 367 861 l 466 1104 l 580 1104 l 481 861 m 423 -21 q 228 30 310 -21 q 100 170 145 81 q 56 376 56 259 q 101 582 56 493 q 230 721 147 672 q 423 771 313 771 q 618 720 535 771 q 746 581 701 669 q 791 376 791 492 q 745 169 791 258 q 617 30 700 80 q 423 -21 535 -21 m 423 116 q 584 189 531 116 q 637 376 637 261 q 583 564 637 493 q 423 634 529 634 q 303 601 350 634 q 233 510 256 568 q 210 376 210 452 q 264 187 210 258 q 423 116 318 116 z "},"ợ":{"ha":847,"x_min":56,"x_max":797,"o":"m 356 -269 l 356 -128 l 510 -128 l 510 -269 l 356 -269 m 674 874 l 787 875 q 782 757 797 806 q 722 685 767 709 q 628 665 683 664 q 530 692 573 666 l 530 757 q 585 747 563 749 q 628 754 608 745 q 670 805 664 772 q 674 874 676 838 m 423 -21 q 228 30 310 -21 q 100 170 145 81 q 56 376 56 259 q 101 582 56 493 q 230 721 147 672 q 423 771 313 771 q 618 720 535 771 q 746 581 701 669 q 791 376 791 492 q 745 169 791 258 q 617 30 700 80 q 423 -21 535 -21 m 423 116 q 584 189 531 116 q 637 376 637 261 q 583 564 637 493 q 423 634 529 634 q 303 601 350 634 q 233 510 256 568 q 210 376 210 452 q 264 187 210 258 q 423 116 318 116 z "},"ờ":{"ha":858,"x_min":56,"x_max":797,"o":"m 674 874 l 787 875 q 782 757 797 806 q 722 685 767 709 q 628 665 683 664 q 530 692 573 666 l 530 757 q 585 747 563 749 q 628 754 608 745 q 670 805 664 772 q 674 874 676 838 m 358 861 l 260 1104 l 374 1104 l 472 861 l 358 861 m 423 -21 q 228 30 310 -21 q 100 170 145 81 q 56 376 56 259 q 101 582 56 493 q 230 721 147 672 q 423 771 313 771 q 618 720 535 771 q 746 581 701 669 q 791 376 791 492 q 745 169 791 258 q 617 30 700 80 q 423 -21 535 -21 m 423 116 q 584 189 531 116 q 637 376 637 261 q 583 564 637 493 q 423 634 529 634 q 303 601 350 634 q 233 510 256 568 q 210 376 210 452 q 264 187 210 258 q 423 116 318 116 z "},"ở":{"ha":847,"x_min":56,"x_max":797,"o":"m 342 1046 l 303 1119 q 386 1162 338 1152 q 477 1155 433 1172 q 544 1085 521 1138 q 558 1008 563 1044 q 534 944 554 972 q 484 897 513 915 q 422 872 454 878 l 390 933 q 452 977 431 948 q 456 1041 474 1006 q 424 1070 444 1065 q 382 1067 404 1074 q 342 1046 360 1060 m 674 874 l 787 875 q 782 757 797 806 q 722 685 767 709 q 628 665 683 664 q 530 692 573 666 l 530 757 q 585 747 563 749 q 628 754 608 745 q 670 805 664 772 q 674 874 676 838 m 423 -21 q 228 30 310 -21 q 100 170 145 81 q 56 376 56 259 q 101 582 56 493 q 230 721 147 672 q 423 771 313 771 q 618 720 535 771 q 746 581 701 669 q 791 376 791 492 q 745 169 791 258 q 617 30 700 80 q 423 -21 535 -21 m 423 116 q 584 189 531 116 q 637 376 637 261 q 583 564 637 493 q 423 634 529 634 q 303 601 350 634 q 233 510 256 568 q 210 376 210 452 q 264 187 210 258 q 423 116 318 116 z "},"ỡ":{"ha":847,"x_min":56,"x_max":797,"o":"m 544 864 q 483 878 513 864 q 427 909 454 892 q 376 941 400 927 q 332 955 352 955 q 300 932 308 955 q 301 880 292 910 l 206 880 q 217 1010 188 957 q 320 1063 246 1063 q 382 1049 352 1063 q 438 1018 411 1035 q 489 986 465 1000 q 533 972 513 972 q 565 994 556 972 q 565 1048 574 1016 l 659 1048 q 649 918 678 972 q 544 864 619 864 m 674 874 l 787 875 q 782 757 797 806 q 722 685 767 709 q 628 665 683 664 q 530 692 573 666 l 530 757 q 585 747 563 749 q 628 754 608 745 q 670 805 664 772 q 674 874 676 838 m 423 -21 q 228 30 310 -21 q 100 170 145 81 q 56 376 56 259 q 101 582 56 493 q 230 721 147 672 q 423 771 313 771 q 618 720 535 771 q 746 581 701 669 q 791 376 791 492 q 745 169 791 258 q 617 30 700 80 q 423 -21 535 -21 m 423 116 q 584 189 531 116 q 637 376 637 261 q 583 564 637 493 q 423 634 529 634 q 303 601 350 634 q 233 510 256 568 q 210 376 210 452 q 264 187 210 258 q 423 116 318 116 z "},"ő":{"ha":847,"x_min":56,"x_max":791,"o":"m 609 861 l 495 861 l 594 1104 l 708 1104 l 609 861 m 332 861 l 218 861 l 317 1104 l 431 1104 l 332 861 m 423 -21 q 228 30 310 -21 q 100 170 145 81 q 56 376 56 259 q 101 582 56 493 q 230 721 147 672 q 423 771 313 771 q 618 720 535 771 q 746 581 701 669 q 791 376 791 492 q 745 169 791 258 q 617 30 700 80 q 423 -21 535 -21 m 423 116 q 584 189 531 116 q 637 376 637 261 q 583 564 637 493 q 423 634 529 634 q 303 601 350 634 q 233 510 256 568 q 210 376 210 452 q 264 187 210 258 q 423 116 318 116 z "},"ō":{"ha":847,"x_min":56,"x_max":791,"o":"m 242 917 l 242 1033 l 605 1033 l 605 917 l 242 917 m 423 -21 q 228 30 310 -21 q 100 170 145 81 q 56 376 56 259 q 101 582 56 493 q 230 721 147 672 q 423 771 313 771 q 618 720 535 771 q 746 581 701 669 q 791 376 791 492 q 745 169 791 258 q 617 30 700 80 q 423 -21 535 -21 m 423 116 q 584 189 531 116 q 637 376 637 261 q 583 564 637 493 q 423 634 529 634 q 303 601 350 634 q 233 510 256 568 q 210 376 210 452 q 264 187 210 258 q 423 116 318 116 z "},"ø":{"ha":847,"x_min":33,"x_max":813,"o":"m 131 -14 l 33 83 l 156 206 l 199 229 l 592 622 l 608 656 l 716 764 l 813 666 l 695 550 l 660 533 l 274 147 l 246 101 l 131 -14 m 423 -21 q 228 30 310 -21 q 100 170 145 81 q 56 376 56 259 q 101 582 56 493 q 230 721 147 672 q 423 771 313 771 q 618 720 535 771 q 746 581 701 669 q 791 376 791 492 q 745 169 791 258 q 617 30 700 80 q 423 -21 535 -21 m 423 116 q 584 189 531 116 q 637 376 637 261 q 583 564 637 493 q 423 634 529 634 q 303 601 350 634 q 233 510 256 568 q 210 376 210 452 q 264 187 210 258 q 423 116 318 116 z "},"õ":{"ha":847,"x_min":56,"x_max":791,"o":"m 535 864 q 475 878 504 864 q 418 909 445 892 q 367 941 391 927 q 323 955 344 955 q 292 932 299 955 q 292 880 284 910 l 198 880 q 208 1010 179 957 q 312 1063 238 1063 q 373 1049 344 1063 q 429 1018 402 1035 q 480 986 456 1000 q 524 972 504 972 q 556 994 547 972 q 556 1048 565 1016 l 650 1048 q 640 918 669 972 q 535 864 610 864 m 423 -21 q 228 30 310 -21 q 100 170 145 81 q 56 376 56 259 q 101 582 56 493 q 230 721 147 672 q 423 771 313 771 q 618 720 535 771 q 746 581 701 669 q 791 376 791 492 q 745 169 791 258 q 617 30 700 80 q 423 -21 535 -21 m 423 116 q 584 189 531 116 q 637 376 637 261 q 583 564 637 493 q 423 634 529 634 q 303 601 350 634 q 233 510 256 568 q 210 376 210 452 q 264 187 210 258 q 423 116 318 116 z "},"œ":{"ha":1410,"x_min":56,"x_max":1360,"o":"m 1011 -21 q 815 28 899 -21 q 684 165 731 77 q 637 369 637 253 q 683 582 637 492 q 812 722 729 672 q 1004 771 894 771 q 1199 718 1119 771 q 1320 567 1280 665 q 1351 334 1360 469 l 1206 334 l 1206 387 q 1157 580 1205 517 q 1010 642 1108 642 q 846 574 901 642 q 791 375 791 505 q 846 184 791 251 q 1004 116 901 116 q 1122 147 1072 116 q 1199 235 1172 178 l 1342 190 q 1209 34 1298 90 q 1011 -21 1120 -21 m 744 334 l 744 447 l 1279 447 l 1279 334 l 744 334 m 423 -21 q 228 30 310 -21 q 100 170 145 81 q 56 376 56 259 q 101 582 56 493 q 230 721 147 672 q 423 771 313 771 q 618 720 535 771 q 746 581 701 669 q 791 376 791 492 q 745 169 791 258 q 617 30 700 80 q 423 -21 535 -21 m 423 116 q 584 189 531 116 q 637 376 637 261 q 583 564 637 493 q 423 634 529 634 q 303 601 350 634 q 233 510 256 568 q 210 376 210 452 q 264 187 210 258 q 423 116 318 116 z "},"p":{"ha":844,"x_min":97,"x_max":789,"o":"m 449 -21 q 269 32 342 -21 q 158 174 196 84 q 121 376 121 263 q 158 578 121 488 q 268 719 195 667 q 447 771 340 771 q 629 719 552 771 q 747 578 706 667 q 789 376 789 489 q 748 173 789 263 q 630 31 706 83 q 449 -21 554 -21 m 97 -333 l 97 750 l 226 750 l 226 210 l 242 210 l 242 -333 l 97 -333 m 429 110 q 544 146 499 110 q 612 241 590 181 q 635 376 635 301 q 612 509 635 449 q 543 604 590 569 q 424 640 497 640 q 312 606 356 640 q 247 513 268 573 q 226 376 226 453 q 247 238 226 298 q 313 144 267 178 q 429 110 358 110 z "},"þ":{"ha":844,"x_min":97,"x_max":789,"o":"m 97 581 l 97 1000 l 244 1000 l 244 581 l 97 581 m 449 -21 q 269 32 342 -21 q 158 174 196 84 q 121 376 121 263 q 158 578 121 488 q 268 719 195 667 q 447 771 340 771 q 629 719 552 771 q 747 578 706 667 q 789 376 789 489 q 748 173 789 263 q 630 31 706 83 q 449 -21 554 -21 m 97 -333 l 97 750 l 226 750 l 226 210 l 242 210 l 242 -333 l 97 -333 m 429 110 q 544 146 499 110 q 612 241 590 181 q 635 376 635 301 q 612 509 635 449 q 543 604 590 569 q 424 640 497 640 q 312 606 356 640 q 247 513 268 573 q 226 376 226 453 q 247 238 226 298 q 313 144 267 178 q 429 110 358 110 z "},"q":{"ha":845,"x_min":56,"x_max":748,"o":"m 395 -21 q 214 31 290 -21 q 97 173 138 83 q 56 376 56 263 q 97 578 56 489 q 216 719 139 667 q 398 771 292 771 q 577 719 504 771 q 686 578 649 667 q 724 376 724 488 q 686 174 724 263 q 576 32 649 84 q 395 -21 503 -21 m 415 110 q 532 144 487 110 q 598 238 577 178 q 619 376 619 298 q 598 513 619 453 q 532 606 576 573 q 420 640 488 640 q 301 604 348 640 q 232 509 255 569 q 210 376 210 449 q 232 241 210 301 q 300 146 255 181 q 415 110 346 110 m 602 -333 l 602 210 l 619 210 l 619 750 l 748 750 l 748 -333 l 602 -333 z "},"r":{"ha":537,"x_min":97,"x_max":502,"o":"m 97 0 l 97 750 l 226 750 l 226 568 l 208 592 q 244 658 222 628 q 296 708 267 688 q 359 740 324 728 q 431 754 394 751 q 502 750 468 756 l 502 614 q 420 619 465 624 q 338 591 376 615 q 282 535 303 568 q 253 463 262 503 q 244 378 244 423 l 244 0 l 97 0 z "},"ŕ":{"ha":537,"x_min":97,"x_max":502,"o":"m 313 861 l 199 861 l 298 1104 l 412 1104 l 313 861 m 97 0 l 97 750 l 226 750 l 226 568 l 208 592 q 244 658 222 628 q 296 708 267 688 q 359 740 324 728 q 431 754 394 751 q 502 750 468 756 l 502 614 q 420 619 465 624 q 338 591 376 615 q 282 535 303 568 q 253 463 262 503 q 244 378 244 423 l 244 0 l 97 0 z "},"ř":{"ha":537,"x_min":56,"x_max":540,"o":"m 56 1069 l 195 1069 l 298 947 l 401 1069 l 540 1069 l 360 861 l 235 861 l 56 1069 m 97 0 l 97 750 l 226 750 l 226 568 l 208 592 q 244 658 222 628 q 296 708 267 688 q 359 740 324 728 q 431 754 394 751 q 502 750 468 756 l 502 614 q 420 619 465 624 q 338 591 376 615 q 282 535 303 568 q 253 463 262 503 q 244 378 244 423 l 244 0 l 97 0 z "},"ŗ":{"ha":537,"x_min":97,"x_max":502,"o":"m 98 -410 l 98 -343 q 127 -338 108 -343 q 163 -319 147 -333 q 178 -274 178 -304 l 98 -274 l 98 -128 l 244 -128 l 244 -274 q 201 -374 244 -337 q 98 -410 159 -410 m 97 0 l 97 750 l 226 750 l 226 568 l 208 592 q 244 658 222 628 q 296 708 267 688 q 359 740 324 728 q 431 754 394 751 q 502 750 468 756 l 502 614 q 420 619 465 624 q 338 591 376 615 q 282 535 303 568 q 253 463 262 503 q 244 378 244 423 l 244 0 l 97 0 z "},"s":{"ha":744,"x_min":56,"x_max":688,"o":"m 384 -20 q 161 40 247 -20 q 56 210 75 101 l 204 233 q 268 141 218 175 q 394 108 319 108 q 500 135 462 108 q 539 212 539 163 q 525 258 539 240 q 469 292 512 276 q 338 331 426 308 q 184 385 241 356 q 104 452 128 414 q 80 546 80 491 q 116 665 80 614 q 218 743 152 715 q 372 771 283 771 q 525 744 458 771 q 634 667 592 717 q 684 551 676 617 l 535 524 q 485 609 528 578 q 373 643 442 640 q 266 621 307 646 q 225 553 225 597 q 241 511 225 528 q 301 478 256 494 q 435 440 347 462 q 585 386 529 415 q 664 316 640 356 q 688 217 688 275 q 607 43 688 106 q 384 -20 526 -20 z "},"ś":{"ha":744,"x_min":56,"x_max":688,"o":"m 430 861 l 316 861 l 415 1104 l 529 1104 l 430 861 m 384 -20 q 161 40 247 -20 q 56 210 75 101 l 204 233 q 268 141 218 175 q 394 108 319 108 q 500 135 462 108 q 539 212 539 163 q 525 258 539 240 q 469 292 512 276 q 338 331 426 308 q 184 385 241 356 q 104 452 128 414 q 80 546 80 491 q 116 665 80 614 q 218 743 152 715 q 372 771 283 771 q 525 744 458 771 q 634 667 592 717 q 684 551 676 617 l 535 524 q 485 609 528 578 q 373 643 442 640 q 266 621 307 646 q 225 553 225 597 q 241 511 225 528 q 301 478 256 494 q 435 440 347 462 q 585 386 529 415 q 664 316 640 356 q 688 217 688 275 q 607 43 688 106 q 384 -20 526 -20 z "},"š":{"ha":744,"x_min":56,"x_max":688,"o":"m 141 1069 l 280 1069 l 383 947 l 487 1069 l 626 1069 l 446 861 l 321 861 l 141 1069 m 384 -20 q 161 40 247 -20 q 56 210 75 101 l 204 233 q 268 141 218 175 q 394 108 319 108 q 500 135 462 108 q 539 212 539 163 q 525 258 539 240 q 469 292 512 276 q 338 331 426 308 q 184 385 241 356 q 104 452 128 414 q 80 546 80 491 q 116 665 80 614 q 218 743 152 715 q 372 771 283 771 q 525 744 458 771 q 634 667 592 717 q 684 551 676 617 l 535 524 q 485 609 528 578 q 373 643 442 640 q 266 621 307 646 q 225 553 225 597 q 241 511 225 528 q 301 478 256 494 q 435 440 347 462 q 585 386 529 415 q 664 316 640 356 q 688 217 688 275 q 607 43 688 106 q 384 -20 526 -20 z "},"ş":{"ha":744,"x_min":56,"x_max":688,"o":"m 363 -335 q 312 -328 335 -335 q 269 -310 289 -321 l 302 -222 q 350 -231 332 -231 q 385 -218 373 -231 q 398 -188 398 -204 q 370 -147 398 -160 q 306 -123 342 -134 l 356 19 l 449 20 l 419 -66 q 481 -116 458 -85 q 503 -192 503 -147 q 461 -295 503 -255 q 363 -335 419 -335 m 384 -20 q 161 40 247 -20 q 56 210 75 101 l 204 233 q 268 141 218 175 q 394 108 319 108 q 500 135 462 108 q 539 212 539 163 q 525 258 539 240 q 469 292 512 276 q 338 331 426 308 q 184 385 241 356 q 104 452 128 414 q 80 546 80 491 q 116 665 80 614 q 218 743 152 715 q 372 771 283 771 q 525 744 458 771 q 634 667 592 717 q 684 551 676 617 l 535 524 q 485 609 528 578 q 373 643 442 640 q 266 621 307 646 q 225 553 225 597 q 241 511 225 528 q 301 478 256 494 q 435 440 347 462 q 585 386 529 415 q 664 316 640 356 q 688 217 688 275 q 607 43 688 106 q 384 -20 526 -20 z "},"ŝ":{"ha":744,"x_min":56,"x_max":688,"o":"m 142 861 l 322 1069 l 447 1069 l 626 861 l 488 861 l 384 984 l 281 861 l 142 861 m 384 -20 q 161 40 247 -20 q 56 210 75 101 l 204 233 q 268 141 218 175 q 394 108 319 108 q 500 135 462 108 q 539 212 539 163 q 525 258 539 240 q 469 292 512 276 q 338 331 426 308 q 184 385 241 356 q 104 452 128 414 q 80 546 80 491 q 116 665 80 614 q 218 743 152 715 q 372 771 283 771 q 525 744 458 771 q 634 667 592 717 q 684 551 676 617 l 535 524 q 485 609 528 578 q 373 643 442 640 q 266 621 307 646 q 225 553 225 597 q 241 511 225 528 q 301 478 256 494 q 435 440 347 462 q 585 386 529 415 q 664 316 640 356 q 688 217 688 275 q 607 43 688 106 q 384 -20 526 -20 z "},"ș":{"ha":744,"x_min":56,"x_max":688,"o":"m 308 -410 l 308 -343 q 337 -338 317 -343 q 372 -319 356 -333 q 388 -274 388 -304 l 308 -274 l 308 -128 l 453 -128 l 453 -274 q 411 -374 453 -337 q 308 -410 369 -410 m 384 -20 q 161 40 247 -20 q 56 210 75 101 l 204 233 q 268 141 218 175 q 394 108 319 108 q 500 135 462 108 q 539 212 539 163 q 525 258 539 240 q 469 292 512 276 q 338 331 426 308 q 184 385 241 356 q 104 452 128 414 q 80 546 80 491 q 116 665 80 614 q 218 743 152 715 q 372 771 283 771 q 525 744 458 771 q 634 667 592 717 q 684 551 676 617 l 535 524 q 485 609 528 578 q 373 643 442 640 q 266 621 307 646 q 225 553 225 597 q 241 511 225 528 q 301 478 256 494 q 435 440 347 462 q 585 386 529 415 q 664 316 640 356 q 688 217 688 275 q 607 43 688 106 q 384 -20 526 -20 z "},"ß":{"ha":865,"x_min":97,"x_max":781,"o":"m 463 -20 q 392 -16 422 -20 q 335 0 362 -11 l 335 142 q 385 128 358 134 q 445 123 412 123 q 582 166 531 123 q 634 293 634 209 q 568 423 634 380 q 397 467 503 466 l 397 595 q 477 617 442 599 q 531 665 511 634 q 550 742 550 697 q 506 847 550 809 q 397 884 461 884 q 316 866 353 884 q 261 805 280 847 q 248 757 252 785 q 244 698 244 728 l 244 0 l 97 0 l 97 737 q 100 793 97 767 q 110 841 103 818 q 174 943 131 903 q 273 1002 216 983 q 397 1021 331 1021 q 550 986 482 1021 q 658 889 619 951 q 698 744 698 826 q 674 631 698 682 q 601 551 650 581 q 668 518 636 540 q 726 462 701 495 q 766 385 751 428 q 781 291 781 342 q 700 64 781 147 q 463 -20 618 -20 z "},"t":{"ha":587,"x_min":14,"x_max":526,"o":"m 526 0 q 388 -12 456 -14 q 266 15 319 -10 q 185 91 213 39 q 159 186 161 138 q 158 295 158 234 l 158 958 l 303 958 l 303 302 q 305 224 303 257 q 319 167 306 190 q 398 118 344 124 q 526 123 453 113 l 526 0 m 14 633 l 14 750 l 526 750 l 526 633 l 14 633 z "},"ŧ":{"ha":615,"x_min":14,"x_max":545,"o":"m 14 326 l 14 443 l 545 443 l 545 326 l 14 326 m 526 0 q 388 -12 456 -14 q 266 15 319 -10 q 185 91 213 39 q 159 186 161 138 q 158 295 158 234 l 158 958 l 303 958 l 303 302 q 305 224 303 257 q 319 167 306 190 q 398 118 344 124 q 526 123 453 113 l 526 0 m 14 633 l 14 750 l 526 750 l 526 633 l 14 633 z "},"ť":{"ha":587,"x_min":14,"x_max":612,"o":"m 526 0 q 388 -12 456 -14 q 266 15 319 -10 q 185 91 213 39 q 159 186 161 138 q 158 295 158 234 l 158 958 l 303 958 l 303 302 q 305 224 303 257 q 319 167 306 190 q 398 118 344 124 q 526 123 453 113 l 526 0 m 14 633 l 14 750 l 526 750 l 526 633 l 14 633 m 458 843 l 467 908 q 513 919 497 906 q 535 956 530 932 q 538 1009 541 979 l 458 1009 l 458 1176 l 611 1176 l 611 995 q 572 872 611 913 q 458 843 533 830 z "},"ţ":{"ha":587,"x_min":14,"x_max":526,"o":"m 313 -335 q 262 -328 285 -335 q 219 -310 239 -321 l 252 -222 q 300 -231 282 -231 q 335 -218 323 -231 q 348 -188 348 -204 q 320 -147 348 -160 q 256 -123 292 -134 l 306 19 l 399 20 l 369 -66 q 431 -116 408 -85 q 453 -192 453 -147 q 411 -295 453 -255 q 313 -335 369 -335 m 526 0 q 388 -12 456 -14 q 266 15 319 -10 q 185 91 213 39 q 159 186 161 138 q 158 295 158 234 l 158 958 l 303 958 l 303 302 q 305 224 303 257 q 319 167 306 190 q 398 118 344 124 q 526 123 453 113 l 526 0 m 14 633 l 14 750 l 526 750 l 526 633 l 14 633 z "},"ț":{"ha":587,"x_min":14,"x_max":526,"o":"m 245 -410 l 245 -343 q 274 -338 255 -343 q 310 -319 294 -333 q 326 -274 326 -304 l 245 -274 l 245 -128 l 392 -128 l 392 -274 q 349 -374 392 -337 q 245 -410 306 -410 m 526 0 q 388 -12 456 -14 q 266 15 319 -10 q 185 91 213 39 q 159 186 161 138 q 158 295 158 234 l 158 958 l 303 958 l 303 302 q 305 224 303 257 q 319 167 306 190 q 398 118 344 124 q 526 123 453 113 l 526 0 m 14 633 l 14 750 l 526 750 l 526 633 l 14 633 z "},"u":{"ha":854,"x_min":83,"x_max":757,"o":"m 380 -20 q 249 5 302 -20 q 164 70 197 30 q 113 159 131 111 q 90 253 96 207 q 83 333 83 299 l 83 750 l 231 750 l 231 381 q 238 291 231 338 q 266 206 245 245 q 323 142 286 166 q 420 117 360 117 q 494 130 459 117 q 555 172 528 143 q 595 247 581 200 q 610 360 610 293 l 701 326 q 663 145 701 224 q 553 24 624 67 q 380 -20 481 -20 m 628 0 l 628 217 l 610 217 l 610 750 l 757 750 l 757 0 l 628 0 z "},"ú":{"ha":854,"x_min":83,"x_max":757,"o":"m 471 861 l 357 861 l 456 1104 l 570 1104 l 471 861 m 380 -20 q 249 5 302 -20 q 164 70 197 30 q 113 159 131 111 q 90 253 96 207 q 83 333 83 299 l 83 750 l 231 750 l 231 381 q 238 291 231 338 q 266 206 245 245 q 323 142 286 166 q 420 117 360 117 q 494 130 459 117 q 555 172 528 143 q 595 247 581 200 q 610 360 610 293 l 701 326 q 663 145 701 224 q 553 24 624 67 q 380 -20 481 -20 m 628 0 l 628 217 l 610 217 l 610 750 l 757 750 l 757 0 l 628 0 z "},"ŭ":{"ha":854,"x_min":83,"x_max":757,"o":"m 420 836 q 319 863 365 836 q 247 935 274 890 q 220 1036 220 981 l 335 1036 q 360 976 335 1001 q 420 951 385 951 q 480 976 456 951 q 505 1036 505 1001 l 620 1036 q 593 935 620 981 q 521 863 566 890 q 420 836 476 836 m 380 -20 q 249 5 302 -20 q 164 70 197 30 q 113 159 131 111 q 90 253 96 207 q 83 333 83 299 l 83 750 l 231 750 l 231 381 q 238 291 231 338 q 266 206 245 245 q 323 142 286 166 q 420 117 360 117 q 494 130 459 117 q 555 172 528 143 q 595 247 581 200 q 610 360 610 293 l 701 326 q 663 145 701 224 q 553 24 624 67 q 380 -20 481 -20 m 628 0 l 628 217 l 610 217 l 610 750 l 757 750 l 757 0 l 628 0 z "},"û":{"ha":854,"x_min":83,"x_max":757,"o":"m 176 861 l 356 1069 l 481 1069 l 660 861 l 522 861 l 418 984 l 315 861 l 176 861 m 380 -20 q 249 5 302 -20 q 164 70 197 30 q 113 159 131 111 q 90 253 96 207 q 83 333 83 299 l 83 750 l 231 750 l 231 381 q 238 291 231 338 q 266 206 245 245 q 323 142 286 166 q 420 117 360 117 q 494 130 459 117 q 555 172 528 143 q 595 247 581 200 q 610 360 610 293 l 701 326 q 663 145 701 224 q 553 24 624 67 q 380 -20 481 -20 m 628 0 l 628 217 l 610 217 l 610 750 l 757 750 l 757 0 l 628 0 z "},"ü":{"ha":854,"x_min":83,"x_max":757,"o":"m 490 876 l 490 1015 l 629 1015 l 629 876 l 490 876 m 210 876 l 210 1015 l 349 1015 l 349 876 l 210 876 m 380 -20 q 249 5 302 -20 q 164 70 197 30 q 113 159 131 111 q 90 253 96 207 q 83 333 83 299 l 83 750 l 231 750 l 231 381 q 238 291 231 338 q 266 206 245 245 q 323 142 286 166 q 420 117 360 117 q 494 130 459 117 q 555 172 528 143 q 595 247 581 200 q 610 360 610 293 l 701 326 q 663 145 701 224 q 553 24 624 67 q 380 -20 481 -20 m 628 0 l 628 217 l 610 217 l 610 750 l 757 750 l 757 0 l 628 0 z "},"ụ":{"ha":854,"x_min":83,"x_max":757,"o":"m 349 -269 l 349 -128 l 503 -128 l 503 -269 l 349 -269 m 380 -20 q 249 5 302 -20 q 164 70 197 30 q 113 159 131 111 q 90 253 96 207 q 83 333 83 299 l 83 750 l 231 750 l 231 381 q 238 291 231 338 q 266 206 245 245 q 323 142 286 166 q 420 117 360 117 q 494 130 459 117 q 555 172 528 143 q 595 247 581 200 q 610 360 610 293 l 701 326 q 663 145 701 224 q 553 24 624 67 q 380 -20 481 -20 m 628 0 l 628 217 l 610 217 l 610 750 l 757 750 l 757 0 l 628 0 z "},"ù":{"ha":854,"x_min":83,"x_max":757,"o":"m 368 861 l 269 1104 l 383 1104 l 482 861 l 368 861 m 380 -20 q 249 5 302 -20 q 164 70 197 30 q 113 159 131 111 q 90 253 96 207 q 83 333 83 299 l 83 750 l 231 750 l 231 381 q 238 291 231 338 q 266 206 245 245 q 323 142 286 166 q 420 117 360 117 q 494 130 459 117 q 555 172 528 143 q 595 247 581 200 q 610 360 610 293 l 701 326 q 663 145 701 224 q 553 24 624 67 q 380 -20 481 -20 m 628 0 l 628 217 l 610 217 l 610 750 l 757 750 l 757 0 l 628 0 z "},"ủ":{"ha":854,"x_min":83,"x_max":757,"o":"m 342 1046 l 303 1119 q 386 1162 338 1152 q 477 1155 433 1172 q 544 1085 521 1138 q 558 1008 563 1044 q 534 944 554 972 q 484 897 513 915 q 422 872 454 878 l 390 933 q 452 977 431 948 q 456 1041 474 1006 q 424 1070 444 1065 q 382 1067 404 1074 q 342 1046 360 1060 m 380 -20 q 249 5 302 -20 q 164 70 197 30 q 113 159 131 111 q 90 253 96 207 q 83 333 83 299 l 83 750 l 231 750 l 231 381 q 238 291 231 338 q 266 206 245 245 q 323 142 286 166 q 420 117 360 117 q 494 130 459 117 q 555 172 528 143 q 595 247 581 200 q 610 360 610 293 l 701 326 q 663 145 701 224 q 553 24 624 67 q 380 -20 481 -20 m 628 0 l 628 217 l 610 217 l 610 750 l 757 750 l 757 0 l 628 0 z "},"ư":{"ha":854,"x_min":83,"x_max":897,"o":"m 774 874 l 887 875 q 881 759 897 806 q 823 687 865 713 q 735 663 784 664 q 644 667 687 662 l 644 750 q 674 750 659 750 q 703 753 689 751 q 765 799 754 763 q 774 874 776 835 m 380 -20 q 249 5 302 -20 q 164 70 197 30 q 113 159 131 111 q 90 253 96 207 q 83 333 83 299 l 83 750 l 231 750 l 231 381 q 238 291 231 338 q 266 206 245 245 q 323 142 286 166 q 420 117 360 117 q 494 130 459 117 q 555 172 528 143 q 595 247 581 200 q 610 360 610 293 l 701 326 q 663 145 701 224 q 553 24 624 67 q 380 -20 481 -20 m 628 0 l 628 217 l 610 217 l 610 750 l 757 750 l 757 0 l 628 0 z "},"ứ":{"ha":854,"x_min":83,"x_max":897,"o":"m 774 874 l 887 875 q 881 759 897 806 q 823 687 865 713 q 735 663 784 664 q 644 667 687 662 l 644 750 q 674 750 659 750 q 703 753 689 751 q 765 799 754 763 q 774 874 776 835 m 471 861 l 357 861 l 456 1104 l 570 1104 l 471 861 m 380 -20 q 249 5 302 -20 q 164 70 197 30 q 113 159 131 111 q 90 253 96 207 q 83 333 83 299 l 83 750 l 231 750 l 231 381 q 238 291 231 338 q 266 206 245 245 q 323 142 286 166 q 420 117 360 117 q 494 130 459 117 q 555 172 528 143 q 595 247 581 200 q 610 360 610 293 l 701 326 q 663 145 701 224 q 553 24 624 67 q 380 -20 481 -20 m 628 0 l 628 217 l 610 217 l 610 750 l 757 750 l 757 0 l 628 0 z "},"ự":{"ha":854,"x_min":83,"x_max":897,"o":"m 774 874 l 888 875 q 881 759 897 806 q 824 687 865 713 q 736 663 785 664 q 644 667 688 662 l 644 750 q 674 750 660 750 q 703 753 689 751 q 765 799 755 763 q 774 874 776 835 m 356 -269 l 356 -128 l 510 -128 l 510 -269 l 356 -269 m 380 -20 q 249 5 302 -20 q 164 70 197 30 q 113 159 131 111 q 90 253 96 207 q 83 333 83 299 l 83 750 l 231 750 l 231 381 q 238 291 231 338 q 266 206 245 245 q 323 142 286 166 q 420 117 360 117 q 494 130 459 117 q 555 172 528 143 q 595 247 581 200 q 610 360 610 293 l 701 326 q 663 145 701 224 q 553 24 624 67 q 380 -20 481 -20 m 628 0 l 628 217 l 610 217 l 610 750 l 757 750 l 757 0 l 628 0 z "},"ừ":{"ha":854,"x_min":83,"x_max":897,"o":"m 774 874 l 887 874 q 881 758 897 805 q 823 686 865 712 q 735 662 784 663 q 644 666 687 661 l 644 749 q 674 750 659 749 q 703 753 689 750 q 765 798 754 762 q 774 874 776 833 m 368 861 l 269 1104 l 383 1104 l 482 861 l 368 861 m 380 -20 q 249 5 302 -20 q 164 70 197 30 q 113 159 131 111 q 90 253 96 207 q 83 333 83 299 l 83 750 l 231 750 l 231 381 q 238 291 231 338 q 266 206 245 245 q 323 142 286 166 q 420 117 360 117 q 494 130 459 117 q 555 172 528 143 q 595 247 581 200 q 610 360 610 293 l 701 326 q 663 145 701 224 q 553 24 624 67 q 380 -20 481 -20 m 628 0 l 628 217 l 610 217 l 610 750 l 757 750 l 757 0 l 628 0 z "},"ử":{"ha":854,"x_min":83,"x_max":897,"o":"m 774 874 l 887 875 q 881 759 897 806 q 823 687 865 713 q 735 663 784 664 q 644 667 687 662 l 644 750 q 674 750 659 750 q 703 753 689 751 q 765 799 754 763 q 774 874 776 835 m 342 1046 l 303 1119 q 386 1162 338 1152 q 477 1155 433 1172 q 544 1085 521 1138 q 558 1008 563 1044 q 534 944 554 972 q 484 897 513 915 q 422 872 454 878 l 390 933 q 452 977 431 948 q 456 1041 474 1006 q 424 1070 444 1065 q 382 1067 404 1074 q 342 1046 360 1060 m 380 -20 q 249 5 302 -20 q 164 70 197 30 q 113 159 131 111 q 90 253 96 207 q 83 333 83 299 l 83 750 l 231 750 l 231 381 q 238 291 231 338 q 266 206 245 245 q 323 142 286 166 q 420 117 360 117 q 494 130 459 117 q 555 172 528 143 q 595 247 581 200 q 610 360 610 293 l 701 326 q 663 145 701 224 q 553 24 624 67 q 380 -20 481 -20 m 628 0 l 628 217 l 610 217 l 610 750 l 757 750 l 757 0 l 628 0 z "},"ữ":{"ha":854,"x_min":83,"x_max":897,"o":"m 774 874 l 887 875 q 881 759 897 806 q 823 687 865 713 q 735 663 784 664 q 644 667 687 662 l 644 750 q 674 750 659 750 q 703 753 689 751 q 765 799 754 763 q 774 874 776 835 m 544 864 q 483 878 513 864 q 427 909 454 892 q 376 941 400 927 q 332 955 352 955 q 300 932 308 955 q 301 880 292 910 l 206 880 q 217 1010 188 957 q 320 1063 246 1063 q 382 1049 352 1063 q 438 1018 411 1035 q 489 986 465 1000 q 533 972 513 972 q 565 994 556 972 q 565 1048 574 1016 l 659 1048 q 649 918 678 972 q 544 864 619 864 m 380 -20 q 249 5 302 -20 q 164 70 197 30 q 113 159 131 111 q 90 253 96 207 q 83 333 83 299 l 83 750 l 231 750 l 231 381 q 238 291 231 338 q 266 206 245 245 q 323 142 286 166 q 420 117 360 117 q 494 130 459 117 q 555 172 528 143 q 595 247 581 200 q 610 360 610 293 l 701 326 q 663 145 701 224 q 553 24 624 67 q 380 -20 481 -20 m 628 0 l 628 217 l 610 217 l 610 750 l 757 750 l 757 0 l 628 0 z "},"ű":{"ha":854,"x_min":83,"x_max":757,"o":"m 608 861 l 494 861 l 593 1104 l 707 1104 l 608 861 m 331 861 l 217 861 l 315 1104 l 429 1104 l 331 861 m 380 -20 q 249 5 302 -20 q 164 70 197 30 q 113 159 131 111 q 90 253 96 207 q 83 333 83 299 l 83 750 l 231 750 l 231 381 q 238 291 231 338 q 266 206 245 245 q 323 142 286 166 q 420 117 360 117 q 494 130 459 117 q 555 172 528 143 q 595 247 581 200 q 610 360 610 293 l 701 326 q 663 145 701 224 q 553 24 624 67 q 380 -20 481 -20 m 628 0 l 628 217 l 610 217 l 610 750 l 757 750 l 757 0 l 628 0 z "},"ū":{"ha":854,"x_min":83,"x_max":757,"o":"m 238 917 l 238 1033 l 601 1033 l 601 917 l 238 917 m 380 -20 q 249 5 302 -20 q 164 70 197 30 q 113 159 131 111 q 90 253 96 207 q 83 333 83 299 l 83 750 l 231 750 l 231 381 q 238 291 231 338 q 266 206 245 245 q 323 142 286 166 q 420 117 360 117 q 494 130 459 117 q 555 172 528 143 q 595 247 581 200 q 610 360 610 293 l 701 326 q 663 145 701 224 q 553 24 624 67 q 380 -20 481 -20 m 628 0 l 628 217 l 610 217 l 610 750 l 757 750 l 757 0 l 628 0 z "},"ų":{"ha":854,"x_min":83,"x_max":757,"o":"m 628 -333 q 555 -313 588 -333 q 504 -259 522 -292 q 485 -187 485 -226 q 513 -90 485 -139 q 586 3 540 -40 q 690 76 633 46 l 757 0 q 679 -55 715 -24 q 623 -119 644 -87 q 602 -177 602 -151 q 615 -210 602 -197 q 647 -223 628 -223 q 674 -216 660 -223 q 702 -196 688 -208 l 757 -266 q 699 -316 733 -299 q 628 -333 665 -333 m 380 -20 q 249 5 302 -20 q 164 70 197 30 q 113 159 131 111 q 90 253 96 207 q 83 333 83 299 l 83 750 l 231 750 l 231 381 q 238 291 231 338 q 266 206 245 245 q 323 142 286 166 q 420 117 360 117 q 494 130 459 117 q 555 172 528 143 q 595 247 581 200 q 610 360 610 293 l 701 326 q 663 145 701 224 q 553 24 624 67 q 380 -20 481 -20 m 628 0 l 628 217 l 610 217 l 610 750 l 757 750 l 757 0 l 628 0 z "},"ů":{"ha":854,"x_min":83,"x_max":757,"o":"m 420 828 q 335 851 374 828 q 274 913 297 874 q 251 999 251 952 q 274 1084 251 1046 q 335 1145 297 1122 q 420 1169 374 1169 q 506 1145 467 1169 q 567 1084 544 1122 q 590 999 590 1046 q 567 913 590 952 q 506 851 544 874 q 420 828 467 828 m 420 922 q 475 945 453 922 q 497 999 497 967 q 475 1053 497 1031 q 420 1075 453 1075 q 366 1053 389 1075 q 344 999 344 1031 q 366 945 344 967 q 420 922 389 922 m 380 -20 q 249 5 302 -20 q 164 70 197 30 q 113 159 131 111 q 90 253 96 207 q 83 333 83 299 l 83 750 l 231 750 l 231 381 q 238 291 231 338 q 266 206 245 245 q 323 142 286 166 q 420 117 360 117 q 494 130 459 117 q 555 172 528 143 q 595 247 581 200 q 610 360 610 293 l 701 326 q 663 145 701 224 q 553 24 624 67 q 380 -20 481 -20 m 628 0 l 628 217 l 610 217 l 610 750 l 757 750 l 757 0 l 628 0 z "},"ũ":{"ha":854,"x_min":83,"x_max":757,"o":"m 380 -20 q 249 5 302 -20 q 164 70 197 30 q 113 159 131 111 q 90 253 96 207 q 83 333 83 299 l 83 750 l 231 750 l 231 381 q 238 291 231 338 q 266 206 245 245 q 323 142 286 166 q 420 117 360 117 q 494 130 459 117 q 555 172 528 143 q 595 247 581 200 q 610 360 610 293 l 701 326 q 663 145 701 224 q 553 24 624 67 q 380 -20 481 -20 m 628 0 l 628 217 l 610 217 l 610 750 l 757 750 l 757 0 l 628 0 m 547 864 q 485 878 515 864 q 429 909 456 892 q 378 941 402 927 q 334 955 354 955 q 302 932 310 955 q 303 880 294 910 l 208 880 q 219 1010 190 957 q 322 1063 248 1063 q 384 1049 354 1063 q 440 1018 413 1035 q 491 986 467 1000 q 535 972 515 972 q 567 994 558 972 q 567 1048 576 1016 l 661 1048 q 651 918 680 972 q 547 864 622 864 z "},"v":{"ha":747,"x_min":28,"x_max":719,"o":"m 300 0 l 28 750 l 174 750 l 374 182 l 573 750 l 719 750 l 447 0 l 300 0 z "},"w":{"ha":1098,"x_min":28,"x_max":1070,"o":"m 257 0 l 28 751 l 172 750 l 328 235 l 487 750 l 612 750 l 770 235 l 927 750 l 1070 750 l 841 0 l 724 0 l 549 543 l 374 0 l 257 0 z "},"ẃ":{"ha":1098,"x_min":28,"x_max":1070,"o":"m 614 861 l 500 861 l 599 1104 l 713 1104 l 614 861 m 257 0 l 28 751 l 172 750 l 328 235 l 487 750 l 612 750 l 770 235 l 927 750 l 1070 750 l 841 0 l 724 0 l 549 543 l 374 0 l 257 0 z "},"ŵ":{"ha":1098,"x_min":28,"x_max":1070,"o":"m 305 861 l 485 1069 l 610 1069 l 790 861 l 651 861 l 547 984 l 444 861 l 305 861 m 257 0 l 28 751 l 172 750 l 328 235 l 487 750 l 612 750 l 770 235 l 927 750 l 1070 750 l 841 0 l 724 0 l 549 543 l 374 0 l 257 0 z "},"ẅ":{"ha":1098,"x_min":28,"x_max":1070,"o":"m 619 876 l 619 1015 l 758 1015 l 758 876 l 619 876 m 340 876 l 340 1015 l 478 1015 l 478 876 l 340 876 m 257 0 l 28 751 l 172 750 l 328 235 l 487 750 l 612 750 l 770 235 l 927 750 l 1070 750 l 841 0 l 724 0 l 549 543 l 374 0 l 257 0 z "},"ẁ":{"ha":1098,"x_min":28,"x_max":1070,"o":"m 485 861 l 385 1104 l 499 1104 l 599 861 l 485 861 m 257 0 l 28 751 l 172 750 l 328 235 l 487 750 l 612 750 l 770 235 l 927 750 l 1070 750 l 841 0 l 724 0 l 549 543 l 374 0 l 257 0 z "},"x":{"ha":757,"x_min":14,"x_max":743,"o":"m 14 0 l 294 379 l 20 750 l 192 750 l 379 492 l 564 750 l 736 750 l 462 379 l 743 0 l 570 0 l 379 266 l 187 0 l 14 0 z "},"y":{"ha":762,"x_min":19,"x_max":751,"o":"m 199 -333 l 344 62 l 346 -55 l 19 750 l 170 750 l 415 128 l 370 128 l 603 750 l 751 750 l 337 -333 l 199 -333 z "},"ý":{"ha":762,"x_min":19,"x_max":751,"o":"m 444 861 l 330 861 l 429 1104 l 543 1104 l 444 861 m 199 -333 l 344 62 l 346 -55 l 19 750 l 170 750 l 415 128 l 370 128 l 603 750 l 751 750 l 337 -333 l 199 -333 z "},"ŷ":{"ha":762,"x_min":19,"x_max":751,"o":"m 148 861 l 328 1069 l 453 1069 l 633 861 l 494 861 l 390 984 l 287 861 l 148 861 m 199 -333 l 344 62 l 346 -55 l 19 750 l 170 750 l 415 128 l 370 128 l 603 750 l 751 750 l 337 -333 l 199 -333 z "},"ÿ":{"ha":762,"x_min":19,"x_max":751,"o":"m 460 876 l 460 1015 l 599 1015 l 599 876 l 460 876 m 180 876 l 180 1015 l 319 1015 l 319 876 l 180 876 m 199 -333 l 344 62 l 346 -55 l 19 750 l 170 750 l 415 128 l 370 128 l 603 750 l 751 750 l 337 -333 l 199 -333 z "},"ỵ":{"ha":762,"x_min":19,"x_max":751,"o":"m 526 -269 l 526 -128 l 680 -128 l 680 -269 l 526 -269 m 199 -333 l 344 62 l 346 -55 l 19 750 l 170 750 l 415 128 l 370 128 l 603 750 l 751 750 l 337 -333 l 199 -333 z "},"ỳ":{"ha":762,"x_min":19,"x_max":751,"o":"m 336 861 l 237 1104 l 351 1104 l 450 861 l 336 861 m 199 -333 l 344 62 l 346 -55 l 19 750 l 170 750 l 415 128 l 370 128 l 603 750 l 751 750 l 337 -333 l 199 -333 z "},"ỷ":{"ha":762,"x_min":19,"x_max":751,"o":"m 301 1046 l 261 1119 q 344 1162 297 1152 q 435 1155 392 1172 q 503 1085 479 1138 q 517 1008 521 1044 q 492 944 513 972 q 442 897 472 915 q 381 872 413 878 l 349 933 q 411 977 389 948 q 415 1041 433 1006 q 383 1070 403 1065 q 341 1067 363 1074 q 301 1046 319 1060 m 199 -333 l 344 62 l 346 -55 l 19 750 l 170 750 l 415 128 l 370 128 l 603 750 l 751 750 l 337 -333 l 199 -333 z "},"ỹ":{"ha":762,"x_min":19,"x_max":751,"o":"m 199 -333 l 344 62 l 346 -55 l 19 750 l 170 750 l 415 128 l 370 128 l 603 750 l 751 750 l 337 -333 l 199 -333 m 501 864 q 440 878 469 864 q 383 909 410 892 q 332 941 356 927 q 288 955 308 955 q 257 932 265 955 q 257 880 249 910 l 163 880 q 173 1010 144 957 q 276 1063 202 1063 q 338 1049 308 1063 q 394 1018 367 1035 q 445 986 422 1000 q 490 972 469 972 q 521 994 513 972 q 521 1048 530 1016 l 615 1048 q 605 918 634 972 q 501 864 576 864 z "},"z":{"ha":740,"x_min":28,"x_max":684,"o":"m 28 0 l 28 23 l 453 620 l 67 620 l 67 750 l 684 750 l 684 726 l 259 130 l 663 130 l 663 0 l 28 0 z "},"ź":{"ha":740,"x_min":28,"x_max":684,"o":"m 442 861 l 328 861 l 426 1104 l 540 1104 l 442 861 m 28 0 l 28 23 l 453 620 l 67 620 l 67 750 l 684 750 l 684 726 l 259 130 l 663 130 l 663 0 l 28 0 z "},"ž":{"ha":740,"x_min":28,"x_max":684,"o":"m 140 1069 l 279 1069 l 383 947 l 485 1069 l 624 1069 l 445 861 l 320 861 l 140 1069 m 28 0 l 28 23 l 453 620 l 67 620 l 67 750 l 684 750 l 684 726 l 259 130 l 663 130 l 663 0 l 28 0 z "},"ż":{"ha":740,"x_min":28,"x_max":684,"o":"m 306 902 l 306 1056 l 459 1056 l 459 902 l 306 902 m 28 0 l 28 23 l 453 620 l 67 620 l 67 750 l 684 750 l 684 726 l 259 130 l 663 130 l 663 0 l 28 0 z "},"":{"ha":969,"x_min":42,"x_max":955,"o":"m 166 0 l 166 776 q 168 837 166 805 q 180 901 170 869 q 214 959 190 933 q 276 1003 242 990 q 344 1019 310 1017 q 406 1021 378 1021 l 501 1021 l 501 901 l 413 901 q 336 876 362 901 q 311 804 311 851 l 311 0 l 166 0 m 42 633 l 42 750 l 501 750 l 501 633 l 42 633 m 620 0 l 620 776 q 622 837 620 805 q 634 901 624 869 q 668 959 644 933 q 731 1003 697 990 q 798 1019 765 1017 q 860 1021 832 1021 l 955 1021 l 955 901 l 867 901 q 791 876 816 901 q 765 804 765 851 l 765 0 l 620 0 m 496 633 l 496 750 l 955 750 l 955 633 l 496 633 z "},"":{"ha":1381,"x_min":42,"x_max":1270,"o":"m 940 633 l 940 750 l 1134 750 l 1134 633 l 940 633 m 620 0 l 620 776 q 622 837 620 805 q 634 901 624 869 q 668 959 644 933 q 731 1003 697 990 q 798 1019 765 1017 q 860 1021 832 1021 l 955 1021 l 955 901 l 867 901 q 791 876 816 901 q 765 804 765 851 l 765 0 l 620 0 m 496 633 l 496 750 l 955 750 l 955 633 l 496 633 m 1125 0 l 1125 1021 l 1270 1021 l 1270 0 l 1125 0 m 166 0 l 166 776 q 168 837 166 805 q 180 901 170 869 q 214 959 190 933 q 276 1003 242 990 q 344 1019 310 1017 q 406 1021 378 1021 l 501 1021 l 501 901 l 413 901 q 336 876 362 901 q 311 804 311 851 l 311 0 l 166 0 m 42 633 l 42 750 l 501 750 l 501 633 l 42 633 z "},"ﬁ":{"ha":903,"x_min":42,"x_max":792,"o":"m 166 0 l 166 776 q 168 837 166 805 q 180 901 170 869 q 214 959 190 933 q 276 1003 242 990 q 344 1019 310 1017 q 406 1021 378 1021 l 501 1021 l 501 901 l 413 901 q 336 876 362 901 q 311 804 311 851 l 311 0 l 166 0 m 42 633 l 42 750 l 501 750 l 501 633 l 42 633 m 647 873 l 647 1014 l 792 1014 l 792 873 l 647 873 m 647 0 l 647 750 l 792 750 l 792 0 l 647 0 z "},"ﬂ":{"ha":927,"x_min":42,"x_max":816,"o":"m 485 633 l 485 750 l 680 750 l 680 633 l 485 633 m 166 0 l 166 776 q 168 837 166 805 q 180 901 170 869 q 214 959 190 933 q 276 1003 242 990 q 344 1019 310 1017 q 406 1021 378 1021 l 501 1021 l 501 901 l 413 901 q 336 876 362 901 q 311 804 311 851 l 311 0 l 166 0 m 42 633 l 42 750 l 501 750 l 501 633 l 42 633 m 671 0 l 671 1021 l 816 1021 l 816 0 l 671 0 z "},"":{"ha":1090,"x_min":14,"x_max":1030,"o":"m 526 0 q 388 -12 456 -14 q 266 15 319 -10 q 185 91 213 39 q 159 186 161 138 q 158 295 158 234 l 158 958 l 303 958 l 303 302 q 305 224 303 257 q 319 167 306 190 q 398 118 344 124 q 526 123 453 113 l 526 0 m 14 633 l 14 750 l 526 750 l 526 633 l 14 633 m 1030 0 q 891 -12 959 -14 q 769 15 823 -10 q 689 91 716 39 q 663 186 665 138 q 661 295 661 234 l 661 958 l 807 958 l 807 302 q 808 224 807 257 q 822 167 809 190 q 902 118 847 124 q 1030 123 956 113 l 1030 0 m 517 633 l 517 750 l 1030 750 l 1030 633 l 517 633 z "},"ª":{"ha":442,"x_min":56,"x_max":386,"o":"m 181 375 q 88 409 120 375 q 56 488 56 442 q 76 557 56 529 q 141 601 97 585 q 225 619 175 612 q 334 635 276 626 l 304 613 q 288 675 306 655 q 227 694 271 694 q 178 683 202 694 q 146 642 155 671 l 69 666 q 122 742 83 713 q 228 771 162 771 q 316 755 278 771 q 372 701 353 738 q 384 661 382 681 q 386 615 386 640 l 386 385 l 313 385 l 313 467 l 324 452 q 265 393 299 412 q 181 375 232 375 m 198 442 q 265 463 240 442 q 294 504 289 485 q 302 541 301 520 q 303 574 303 563 l 330 567 q 239 552 272 557 q 183 539 206 547 q 149 519 161 531 q 138 490 138 508 q 153 455 138 469 q 198 442 168 442 z "},"º":{"ha":485,"x_min":56,"x_max":429,"o":"m 242 375 q 107 431 158 375 q 56 574 56 486 q 107 716 56 661 q 242 771 159 771 q 378 715 327 771 q 429 574 429 660 q 378 430 429 485 q 242 375 326 375 m 242 453 q 316 487 292 453 q 341 574 341 520 q 316 660 341 628 q 242 692 292 692 q 168 659 192 692 q 144 573 144 626 q 169 486 144 518 q 242 453 193 453 z "},"А":{"ha":915,"x_min":28,"x_max":887,"o":"m 28 0 l 353 1000 l 562 1000 l 887 0 l 736 0 l 437 913 l 474 913 l 178 0 l 28 0 m 197 226 l 197 362 l 719 362 l 719 226 l 197 226 z "},"Б":{"ha":871,"x_min":97,"x_max":829,"o":"m 97 0 l 97 1000 l 749 1000 l 749 863 l 242 863 l 242 622 l 501 622 q 537 621 515 622 q 578 617 559 620 q 716 565 660 608 q 800 456 772 522 q 829 311 829 390 q 801 167 829 233 q 716 58 772 101 q 578 5 660 15 q 538 1 559 2 q 501 0 516 0 l 97 0 m 242 137 l 496 137 q 527 138 510 137 q 559 142 544 140 q 654 206 626 156 q 681 311 681 256 q 654 416 681 367 q 559 480 626 466 q 527 484 544 483 q 496 485 510 485 l 242 485 l 242 137 z "},"В":{"ha":868,"x_min":97,"x_max":827,"o":"m 97 0 l 97 1000 l 490 1000 q 650 961 585 1000 q 747 861 715 922 q 780 731 780 799 q 739 590 780 649 q 630 509 699 531 l 628 543 q 776 451 724 519 q 827 292 827 383 q 792 138 827 203 q 690 36 757 73 q 528 0 623 0 l 97 0 m 244 138 l 506 138 q 594 157 555 138 q 656 211 633 176 q 678 294 678 246 q 659 376 678 340 q 602 434 639 413 q 515 455 565 455 l 244 455 l 244 138 m 244 592 l 488 592 q 561 608 528 592 q 612 655 593 624 q 631 730 631 686 q 592 826 631 788 q 488 863 553 863 l 244 863 l 244 592 z "},"Г":{"ha":750,"x_min":97,"x_max":736,"o":"m 97 0 l 97 1000 l 736 1000 l 736 863 l 242 863 l 242 0 l 97 0 z "},"Ѓ":{"ha":750,"x_min":97,"x_max":736,"o":"m 396 1111 l 282 1111 l 381 1354 l 495 1354 l 396 1111 m 97 0 l 97 1000 l 736 1000 l 736 863 l 242 863 l 242 0 l 97 0 z "},"Ґ":{"ha":764,"x_min":97,"x_max":750,"o":"m 97 0 l 97 1000 l 605 1000 l 605 1148 l 750 1148 l 750 863 l 242 863 l 242 0 l 97 0 z "},"Д":{"ha":1038,"x_min":47,"x_max":983,"o":"m 47 -167 l 47 137 q 131 163 98 137 q 184 234 165 189 q 215 338 204 280 q 231 461 226 397 q 245 632 240 549 q 257 806 251 716 q 268 1001 262 895 l 908 1000 l 908 137 l 983 137 l 983 -167 l 837 -167 l 837 0 l 192 0 l 192 -167 l 47 -167 m 285 137 l 763 137 l 763 863 l 402 864 q 394 719 397 788 q 385 580 390 650 q 372 431 380 510 q 356 301 365 354 q 332 209 348 248 q 285 137 315 170 z "},"Е":{"ha":806,"x_min":97,"x_max":736,"o":"m 97 0 l 97 1000 l 736 1000 l 736 863 l 242 863 l 242 583 l 653 583 l 653 446 l 242 446 l 242 137 l 736 137 l 736 0 l 97 0 z "},"Ѐ":{"ha":806,"x_min":97,"x_max":736,"o":"m 376 1111 l 277 1354 l 391 1354 l 490 1111 l 376 1111 m 97 0 l 97 1000 l 736 1000 l 736 863 l 242 863 l 242 583 l 653 583 l 653 446 l 242 446 l 242 137 l 736 137 l 736 0 l 97 0 z "},"Ё":{"ha":806,"x_min":97,"x_max":736,"o":"m 479 1126 l 479 1265 l 618 1265 l 618 1126 l 479 1126 m 199 1126 l 199 1265 l 338 1265 l 338 1126 l 199 1126 m 97 0 l 97 1000 l 736 1000 l 736 863 l 242 863 l 242 583 l 653 583 l 653 446 l 242 446 l 242 137 l 736 137 l 736 0 l 97 0 z "},"Ж":{"ha":1260,"x_min":14,"x_max":1247,"o":"m 14 0 l 413 512 l 47 1000 l 222 1000 l 558 542 l 558 1000 l 703 1000 l 703 542 l 1038 1000 l 1214 1000 l 848 512 l 1247 0 l 1065 0 l 703 469 l 703 0 l 558 0 l 558 469 l 195 0 l 14 0 z "},"З":{"ha":877,"x_min":51,"x_max":826,"o":"m 440 -21 q 258 10 335 -21 q 130 89 181 40 q 51 194 78 138 l 177 276 q 227 199 194 235 q 315 140 261 163 q 446 117 369 117 q 573 141 523 117 q 648 203 623 164 q 672 292 672 242 q 642 381 672 349 q 562 425 612 413 q 453 440 512 438 q 383 443 405 442 q 355 444 362 444 q 341 444 347 444 l 341 581 q 368 581 349 581 q 408 582 387 581 q 442 583 428 582 q 581 625 528 587 q 634 733 634 663 q 582 844 634 803 q 447 884 531 884 q 309 848 367 884 q 220 758 251 811 l 113 858 q 250 974 163 928 q 451 1021 337 1021 q 576 1004 515 1021 q 684 952 636 987 q 760 864 732 917 q 788 738 788 811 q 759 606 788 665 q 680 513 729 547 q 788 432 749 487 q 826 291 826 376 q 776 125 826 195 q 639 17 726 56 q 440 -21 551 -21 z "},"И":{"ha":981,"x_min":97,"x_max":884,"o":"m 884 0 l 737 0 l 737 744 l 244 0 l 97 0 l 97 1000 l 244 1000 l 244 257 l 737 1000 l 884 1000 l 884 0 z "},"Й":{"ha":981,"x_min":97,"x_max":884,"o":"m 97 0 l 97 1000 l 244 1000 l 244 257 l 737 1000 l 884 1000 l 884 0 l 737 0 l 737 744 l 244 0 l 97 0 m 493 1086 q 392 1113 438 1086 q 320 1185 347 1140 q 293 1286 293 1231 l 408 1286 q 433 1226 408 1251 q 493 1201 458 1201 q 553 1226 528 1201 q 578 1286 578 1251 l 693 1286 q 666 1185 693 1231 q 593 1113 639 1140 q 493 1086 548 1086 z "},"Ѝ":{"ha":981,"x_min":97,"x_max":884,"o":"m 97 0 l 97 1000 l 244 1000 l 244 257 l 737 1000 l 884 1000 l 884 0 l 737 0 l 737 744 l 244 0 l 97 0 m 449 1111 l 351 1354 l 465 1354 l 563 1111 l 449 1111 z "},"К":{"ha":874,"x_min":97,"x_max":874,"o":"m 97 0 l 97 1000 l 242 1000 l 242 533 l 661 1000 l 842 1000 l 399 512 l 874 0 l 688 0 l 242 478 l 242 0 l 97 0 z "},"Ќ":{"ha":874,"x_min":97,"x_max":874,"o":"m 97 0 l 97 1000 l 242 1000 l 242 533 l 661 1000 l 842 1000 l 399 512 l 874 0 l 688 0 l 242 478 l 242 0 l 97 0 m 504 1111 l 390 1111 l 490 1354 l 603 1354 l 504 1111 z "},"Л":{"ha":992,"x_min":28,"x_max":895,"o":"m 28 0 l 28 124 q 86 128 63 121 q 126 157 110 135 q 153 221 142 179 q 176 328 165 263 q 201 501 191 413 q 219 678 212 590 q 231 848 226 766 q 239 1000 236 930 l 895 1000 l 895 0 l 750 0 l 750 863 l 375 863 q 367 739 372 808 q 355 593 362 670 q 338 434 348 516 q 313 269 328 352 q 282 142 300 199 q 233 47 264 85 q 153 -4 203 9 q 28 0 104 -17 z "},"М":{"ha":1181,"x_min":97,"x_max":1084,"o":"m 97 0 l 97 1000 l 228 1000 l 591 248 l 951 1000 l 1084 1000 l 1084 1 l 947 1 l 947 685 l 624 0 l 558 0 l 234 685 l 234 0 l 97 0 z "},"Н":{"ha":985,"x_min":97,"x_max":888,"o":"m 97 0 l 97 1000 l 242 1000 l 242 569 l 742 569 l 742 1000 l 888 1000 l 888 0 l 742 0 l 742 432 l 242 432 l 242 0 l 97 0 z "},"О":{"ha":1028,"x_min":42,"x_max":987,"o":"m 515 -21 q 259 45 365 -21 q 98 228 153 110 q 42 500 42 345 q 98 772 42 655 q 259 955 153 890 q 515 1021 365 1021 q 770 955 664 1021 q 931 772 876 890 q 987 500 987 655 q 931 228 987 345 q 770 45 876 110 q 515 -21 664 -21 m 515 117 q 691 164 621 116 q 797 299 762 213 q 833 500 833 385 q 797 700 833 615 q 691 834 762 786 q 515 883 621 882 q 338 836 408 884 q 232 701 267 788 q 196 500 197 615 q 231 300 195 385 q 337 166 266 214 q 515 117 408 118 z "},"П":{"ha":990,"x_min":97,"x_max":892,"o":"m 97 0 l 97 1000 l 892 1000 l 892 0 l 747 0 l 747 863 l 242 863 l 242 0 l 97 0 z "},"Р":{"ha":871,"x_min":97,"x_max":829,"o":"m 97 0 l 97 1000 l 501 1000 q 538 999 516 1000 q 578 994 559 998 q 718 938 662 981 q 801 827 774 894 q 829 680 829 760 q 801 532 829 599 q 718 422 774 465 q 578 365 662 378 q 537 360 559 362 q 501 359 515 359 l 242 359 l 242 0 l 97 0 m 242 497 l 496 497 q 527 498 510 497 q 559 503 544 499 q 631 541 603 513 q 669 606 658 569 q 681 680 681 643 q 669 753 681 717 q 631 818 658 790 q 559 856 603 846 q 527 862 544 860 q 496 863 510 863 l 242 863 l 242 497 z "},"С":{"ha":1015,"x_min":42,"x_max":959,"o":"m 515 -21 q 259 45 365 -21 q 98 228 153 110 q 42 500 42 345 q 98 772 42 655 q 259 955 153 890 q 515 1021 365 1021 q 801 933 688 1021 q 959 698 915 846 l 812 658 q 708 823 783 763 q 515 883 633 883 q 338 835 408 883 q 231 701 267 787 q 195 500 195 615 q 230 299 194 385 q 337 165 266 213 q 515 117 408 117 q 708 177 633 117 q 812 342 783 238 l 959 302 q 801 67 915 154 q 515 -21 688 -21 z "},"Т":{"ha":838,"x_min":14,"x_max":824,"o":"m 347 0 l 347 863 l 14 863 l 14 1000 l 824 1000 l 824 863 l 492 863 l 492 0 l 347 0 z "},"У":{"ha":878,"x_min":19,"x_max":866,"o":"m 241 0 l 367 259 l 19 1000 l 182 1000 l 443 413 l 711 1000 l 866 1000 l 398 0 l 241 0 z "},"Ў":{"ha":878,"x_min":19,"x_max":866,"o":"m 448 1086 q 347 1113 392 1086 q 275 1185 301 1140 q 248 1286 248 1231 l 363 1286 q 388 1226 363 1251 q 448 1201 413 1201 q 508 1226 483 1201 q 533 1286 533 1251 l 648 1286 q 621 1185 648 1231 q 548 1113 594 1140 q 448 1086 503 1086 m 241 0 l 367 259 l 19 1000 l 182 1000 l 443 413 l 711 1000 l 866 1000 l 398 0 l 241 0 z "},"Ф":{"ha":1013,"x_min":42,"x_max":972,"o":"m 434 0 l 434 140 q 286 146 357 126 q 161 215 216 165 q 74 344 106 265 q 42 529 42 424 q 74 715 42 635 q 161 845 106 794 q 286 916 216 896 q 434 924 357 937 l 434 1000 l 578 1000 l 578 924 q 726 916 656 937 q 852 845 797 896 q 939 715 907 794 q 972 529 972 635 q 939 344 972 424 q 852 215 907 265 q 726 146 797 165 q 578 140 656 126 l 578 0 l 434 0 m 434 274 l 434 791 q 325 783 372 801 q 249 727 279 765 q 205 638 219 689 q 190 529 190 587 q 205 422 190 472 q 249 335 219 372 q 325 282 279 299 q 434 274 372 265 m 578 274 q 687 282 641 265 q 763 335 733 299 q 808 420 793 371 q 823 526 823 470 q 808 633 823 581 q 763 723 793 684 q 687 782 733 763 q 578 791 641 801 l 578 274 z "},"Х":{"ha":888,"x_min":14,"x_max":874,"o":"m 14 0 l 355 506 l 23 1000 l 201 1000 l 444 629 l 687 1000 l 865 1000 l 533 506 l 874 0 l 696 0 l 444 383 l 192 0 l 14 0 z "},"Ч":{"ha":926,"x_min":97,"x_max":828,"o":"m 682 0 l 682 453 l 709 409 q 597 355 667 375 q 444 335 526 335 q 241 384 317 335 q 131 519 165 433 q 97 717 97 606 l 97 1000 l 244 1000 l 244 764 q 253 654 244 706 q 285 561 261 602 q 353 498 308 521 q 472 474 399 474 q 617 502 556 474 q 703 560 677 529 l 682 477 l 682 1000 l 828 1000 l 828 0 l 682 0 z "},"Ц":{"ha":1026,"x_min":97,"x_max":1012,"o":"m 867 -148 l 867 0 l 97 0 l 97 1000 l 242 1000 l 242 131 l 758 131 l 758 981 l 903 981 l 903 131 l 1012 131 l 1012 -148 l 867 -148 z "},"Ш":{"ha":1297,"x_min":97,"x_max":1199,"o":"m 97 0 l 97 1000 l 242 1000 l 242 137 l 576 137 l 576 1000 l 721 1000 l 721 137 l 1053 137 l 1053 1000 l 1199 1000 l 1199 0 l 97 0 z "},"Щ":{"ha":1322,"x_min":97,"x_max":1308,"o":"m 1163 -148 l 1163 0 l 1066 0 l 1066 131 l 1308 131 l 1308 -148 l 1163 -148 m 97 0 l 97 1000 l 242 1000 l 242 137 l 576 137 l 576 1000 l 721 1000 l 721 137 l 1053 137 l 1053 1000 l 1199 1000 l 1199 0 l 97 0 z "},"Џ":{"ha":1051,"x_min":97,"x_max":953,"o":"m 453 -167 l 453 0 l 97 0 l 97 1000 l 242 1000 l 242 137 l 808 137 l 808 1000 l 953 1000 l 953 0 l 598 0 l 598 -167 l 453 -167 z "},"Ь":{"ha":884,"x_min":97,"x_max":828,"o":"m 97 0 l 97 1000 l 242 1000 l 242 641 l 501 641 q 536 640 515 641 q 577 635 558 639 q 716 578 660 622 q 800 468 772 535 q 828 320 828 401 q 801 173 828 240 q 717 63 773 106 q 577 6 661 19 q 537 1 558 3 q 501 0 515 0 l 97 0 m 242 137 l 495 137 q 525 138 508 137 q 558 144 542 140 q 630 182 603 154 q 668 247 656 210 q 681 320 681 283 q 668 394 681 357 q 630 459 656 431 q 558 497 603 487 q 525 502 542 501 q 495 503 508 503 l 242 503 l 242 137 z "},"Ъ":{"ha":896,"x_min":-5,"x_max":862,"o":"m 130 0 l 130 883 l -5 883 l -5 1000 l 275 1000 l 275 641 l 534 641 q 570 640 548 641 q 610 635 592 639 q 750 578 694 622 q 834 468 806 535 q 862 320 862 401 q 834 173 862 240 q 750 63 806 106 q 610 6 694 19 q 570 1 592 3 q 534 0 549 0 l 130 0 m 275 137 l 528 137 q 559 138 542 137 q 591 144 576 140 q 663 182 636 154 q 702 247 690 210 q 714 320 714 283 q 702 394 714 357 q 663 459 690 431 q 591 497 636 487 q 559 502 576 501 q 528 503 542 503 l 275 503 l 275 137 z "},"Ы":{"ha":1170,"x_min":97,"x_max":1073,"o":"m 97 0 l 97 1000 l 242 1000 l 242 641 l 501 641 q 536 640 515 641 q 577 635 558 639 q 716 578 660 622 q 800 468 772 535 q 828 320 828 401 q 801 173 828 240 q 717 63 773 106 q 577 6 661 19 q 537 1 558 3 q 501 0 515 0 l 97 0 m 242 137 l 495 137 q 525 138 508 137 q 558 144 542 140 q 630 182 603 154 q 668 247 656 210 q 681 320 681 283 q 668 394 681 357 q 630 459 656 431 q 558 497 603 487 q 525 502 542 501 q 495 503 508 503 l 242 503 l 242 137 m 927 0 l 927 1000 l 1072 1000 l 1072 0 l 927 0 z "},"Љ":{"ha":1523,"x_min":14,"x_max":1467,"o":"m 735 0 l 735 1000 l 881 1000 l 881 641 l 1140 641 q 1175 640 1153 641 q 1216 635 1197 639 q 1355 578 1299 622 q 1439 468 1411 535 q 1467 320 1467 401 q 1440 173 1467 240 q 1356 63 1412 106 q 1216 6 1300 19 q 1176 1 1197 3 q 1140 0 1154 0 l 735 0 m 881 137 l 1134 137 q 1164 138 1147 137 q 1197 144 1181 140 q 1268 182 1242 154 q 1307 247 1295 210 q 1319 320 1319 283 q 1307 394 1319 357 q 1268 459 1295 431 q 1197 497 1242 487 q 1164 502 1181 501 q 1134 503 1147 503 l 881 503 l 881 137 m 14 0 l 14 124 q 73 128 49 121 q 112 157 96 135 q 139 221 128 179 q 162 328 151 263 q 188 501 177 413 q 205 678 198 590 q 217 848 213 766 q 225 1000 222 930 l 881 1000 l 881 0 l 736 0 l 736 863 l 361 863 q 353 739 358 808 q 341 593 348 670 q 324 434 334 516 q 299 269 314 352 q 268 142 286 199 q 219 47 250 85 q 140 -4 189 9 q 14 0 90 -17 z "},"Њ":{"ha":1510,"x_min":97,"x_max":1455,"o":"m 97 0 l 97 1000 l 242 1000 l 242 640 l 794 640 l 794 503 l 242 503 l 242 0 l 97 0 m 723 0 l 723 1000 l 869 1000 l 869 641 l 1127 641 q 1163 640 1142 641 q 1204 635 1185 639 q 1343 578 1288 622 q 1427 468 1399 535 q 1455 320 1455 401 q 1427 173 1455 240 q 1344 63 1400 106 q 1204 6 1288 19 q 1163 1 1185 3 q 1127 0 1142 0 l 723 0 m 869 137 l 1122 137 q 1152 138 1135 137 q 1185 144 1169 140 q 1256 182 1229 154 q 1295 247 1283 210 q 1308 320 1308 283 q 1295 394 1308 357 q 1256 459 1283 431 q 1185 497 1229 487 q 1152 502 1169 501 q 1122 503 1135 503 l 869 503 l 869 137 z "},"Ѕ":{"ha":894,"x_min":51,"x_max":843,"o":"m 460 -21 q 266 16 352 -21 q 123 123 179 53 q 51 287 67 192 l 202 310 q 298 167 225 218 q 468 116 371 116 q 579 135 528 116 q 661 190 630 154 q 692 276 692 226 q 682 324 692 303 q 657 360 673 344 q 617 387 640 376 q 566 407 594 399 l 310 483 q 233 511 272 494 q 162 558 194 529 q 110 630 130 587 q 90 733 90 672 q 137 890 90 826 q 266 987 185 954 q 448 1020 347 1020 q 630 984 549 1019 q 763 884 710 949 q 836 727 816 819 l 681 701 q 636 798 670 757 q 553 860 602 838 q 446 883 503 882 q 344 866 390 884 q 270 815 298 848 q 243 740 243 783 q 267 673 243 699 q 327 632 292 647 q 399 608 363 617 l 583 556 q 662 530 618 546 q 748 484 706 513 q 816 407 789 455 q 843 285 843 358 q 813 152 843 210 q 729 57 782 95 q 606 -1 676 18 q 460 -21 537 -21 z "},"Є":{"ha":1001,"x_min":50,"x_max":959,"o":"m 515 -21 q 263 49 367 -21 q 105 236 159 118 q 51 500 50 354 q 108 773 52 656 q 267 955 163 890 q 515 1021 370 1021 q 806 931 690 1021 q 959 677 922 841 l 813 656 q 711 820 787 760 q 524 883 635 881 q 363 844 430 884 q 257 733 296 804 q 208 569 218 663 l 567 569 l 567 432 l 209 432 q 230 326 214 377 q 280 228 245 274 q 386 145 322 172 q 524 117 451 119 q 705 175 629 116 q 810 333 781 235 l 952 297 q 862 122 923 192 q 714 15 801 51 q 515 -21 626 -21 z "},"Э":{"ha":992,"x_min":42,"x_max":951,"o":"m 485 -21 q 287 15 375 -21 q 139 122 199 51 q 49 297 78 192 l 191 333 q 296 175 221 235 q 477 117 372 116 q 615 145 550 119 q 721 228 679 172 q 772 326 756 274 q 792 432 788 377 l 434 432 l 434 569 l 793 569 q 744 733 783 663 q 638 844 705 804 q 477 883 571 884 q 290 820 366 881 q 188 656 215 760 l 42 677 q 195 931 79 841 q 485 1021 312 1021 q 735 955 631 1021 q 893 773 838 890 q 950 500 949 656 q 897 236 951 354 q 738 49 842 118 q 485 -21 633 -21 z "},"І":{"ha":367,"x_min":111,"x_max":256,"o":"m 111 0 l 111 1000 l 256 1000 l 256 0 l 111 0 z "},"Ї":{"ha":367,"x_min":-26,"x_max":393,"o":"m 254 1126 l 254 1265 l 393 1265 l 393 1126 l 254 1126 m -26 1126 l -26 1265 l 113 1265 l 113 1126 l -26 1126 m 111 0 l 111 1000 l 256 1000 l 256 0 l 111 0 z "},"Ј":{"ha":678,"x_min":0,"x_max":567,"o":"m 288 -20 q 103 38 178 -20 q 0 195 28 97 l 144 229 q 193 150 153 183 q 283 117 233 117 q 351 133 315 117 q 403 188 386 150 q 417 245 415 213 q 419 320 419 277 l 419 1000 l 567 1000 l 567 320 q 566 241 567 276 q 559 176 566 206 q 534 113 553 145 q 430 12 494 44 q 288 -20 365 -20 z "},"Ћ":{"ha":926,"x_min":0,"x_max":828,"o":"m 0 869 l 0 1000 l 458 1000 l 458 869 l 0 869 m 244 1000 l 244 547 l 216 591 q 330 645 260 626 q 481 665 400 665 q 685 616 608 665 q 795 481 761 567 q 828 283 828 394 l 828 0 l 681 0 l 681 236 q 673 346 681 294 q 641 439 665 398 q 572 502 617 479 q 453 526 527 526 q 309 499 369 526 q 222 440 249 472 l 244 523 l 244 0 l 97 0 l 97 1000 l 244 1000 z "},"Ю":{"ha":1301,"x_min":97,"x_max":1259,"o":"m 97 0 l 97 1000 l 242 1000 l 242 573 l 462 573 l 462 427 l 242 427 l 242 0 l 97 0 m 845 -21 q 668 17 745 -21 q 538 125 591 56 q 458 291 485 195 q 431 500 431 386 q 458 710 431 615 q 538 875 485 805 q 668 982 591 944 q 845 1020 745 1020 q 1022 982 944 1020 q 1151 875 1099 944 q 1232 710 1204 805 q 1259 500 1259 615 q 1232 289 1259 384 q 1151 124 1204 193 q 1022 17 1099 54 q 845 -21 944 -21 m 845 117 q 959 146 910 117 q 1040 227 1008 175 q 1089 349 1072 279 q 1105 500 1105 419 q 1090 651 1106 581 q 1041 773 1074 721 q 960 853 1009 824 q 845 883 910 883 q 730 853 779 883 q 649 773 681 824 q 601 651 617 721 q 585 500 585 581 q 601 349 585 419 q 649 227 617 279 q 730 146 681 175 q 845 117 779 117 z "},"Я":{"ha":903,"x_min":56,"x_max":806,"o":"m 806 0 l 660 0 l 660 359 l 378 359 l 319 366 q 135 474 197 388 q 74 680 74 560 q 102 827 74 760 q 185 938 130 894 q 325 994 241 981 q 366 999 344 998 q 402 1000 388 1000 l 806 1000 l 806 0 m 222 0 l 56 0 l 272 444 l 419 407 l 222 0 m 660 497 l 660 863 l 408 863 q 377 862 394 863 q 344 856 360 860 q 273 818 300 846 q 234 753 246 790 q 222 680 222 717 q 234 606 222 643 q 273 541 246 569 q 344 503 300 513 q 377 498 360 499 q 408 497 394 497 l 660 497 z "},"Ђ":{"ha":925,"x_min":0,"x_max":869,"o":"m 106 0 l 106 869 l 0 869 l 0 1000 l 458 1000 l 458 869 l 235 869 l 235 665 q 352 745 282 719 q 511 771 422 771 q 776 675 683 771 q 869 390 869 578 q 831 184 869 272 q 711 48 792 97 q 504 0 630 0 l 504 147 q 631 179 583 147 q 700 265 678 210 q 722 392 722 320 q 694 531 722 478 q 614 606 665 583 q 492 630 562 630 q 345 594 401 630 q 268 492 288 558 q 256 423 259 460 q 253 350 253 385 l 253 0 l 106 0 z "},"Ү":{"ha":824,"x_min":0,"x_max":824,"o":"m 338 0 l 338 413 l 0 1000 l 169 1000 l 412 580 l 654 1000 l 824 1000 l 485 413 l 485 0 l 338 0 z "},"Һ":{"ha":926,"x_min":97,"x_max":828,"o":"m 244 1000 l 244 547 l 216 591 q 330 645 260 626 q 481 665 400 665 q 685 616 608 665 q 795 481 761 567 q 828 283 828 394 l 828 0 l 681 0 l 681 236 q 673 346 681 294 q 641 439 665 398 q 572 502 617 479 q 453 526 527 526 q 309 499 369 526 q 222 440 249 472 l 244 523 l 244 0 l 97 0 l 97 1000 l 244 1000 z "},"Ө":{"ha":1056,"x_min":42,"x_max":987,"o":"m 165 427 l 165 573 l 882 573 l 882 427 l 165 427 m 515 -21 q 259 45 365 -21 q 98 228 153 110 q 42 500 42 345 q 98 772 42 655 q 259 955 153 890 q 515 1021 365 1021 q 770 955 664 1021 q 931 772 876 890 q 987 500 987 655 q 931 228 987 345 q 770 45 876 110 q 515 -21 664 -21 m 515 117 q 691 164 621 116 q 797 299 762 213 q 833 500 833 385 q 797 700 833 615 q 691 834 762 786 q 515 883 621 882 q 338 836 408 884 q 232 701 267 788 q 196 500 197 615 q 231 300 195 385 q 337 166 266 214 q 515 117 408 118 z "},"а":{"ha":791,"x_min":56,"x_max":708,"o":"m 309 -21 q 169 10 226 -21 q 84 92 113 41 q 56 204 56 143 q 76 304 56 261 q 135 377 96 347 q 233 426 175 408 q 346 452 283 441 q 479 473 409 463 q 617 492 549 483 l 565 463 q 527 594 566 551 q 395 637 489 637 q 287 609 336 637 q 218 519 238 582 l 83 560 q 189 714 110 657 q 397 771 267 771 q 572 736 497 771 q 681 628 647 702 q 703 550 699 591 q 708 462 708 509 l 708 0 l 579 0 l 579 172 l 604 149 q 486 21 558 63 q 309 -21 414 -21 m 335 98 q 441 120 397 98 q 513 176 485 142 q 548 247 540 210 q 561 322 560 280 q 563 388 563 363 l 610 371 q 485 352 542 360 q 384 336 429 344 q 303 317 338 328 q 250 292 273 306 q 213 256 226 277 q 199 206 199 235 q 214 152 199 176 q 258 113 228 127 q 335 98 288 98 z "},"б":{"ha":824,"x_min":54,"x_max":769,"o":"m 406 -22 q 224 25 299 -21 q 107 157 149 71 q 58 366 65 244 q 58 497 54 425 q 74 636 63 569 q 103 749 85 703 q 158 841 124 799 q 235 911 193 883 q 333 959 279 942 q 447 985 388 976 q 567 1002 506 995 q 685 1021 628 1010 l 699 891 q 609 876 661 882 q 502 864 558 871 q 397 844 447 857 q 310 809 347 832 q 231 716 258 777 q 198 583 203 655 q 308 677 241 649 q 446 706 374 706 q 618 659 546 706 q 730 531 691 612 q 769 347 769 449 q 723 152 769 235 q 596 23 678 69 q 406 -22 514 -23 m 413 115 q 564 177 513 115 q 615 342 615 239 q 563 508 615 447 q 413 568 510 568 q 264 508 315 568 q 212 342 212 447 q 264 175 212 235 q 413 115 316 115 z "},"в":{"ha":766,"x_min":97,"x_max":724,"o":"m 97 0 l 97 750 l 426 750 q 492 746 459 750 q 549 735 524 742 q 647 672 606 719 q 687 545 687 624 q 673 469 687 500 q 635 416 659 438 q 611 399 624 406 q 586 387 599 391 q 637 369 612 383 q 700 311 675 349 q 724 210 724 273 q 688 83 724 134 q 583 13 651 32 q 524 3 557 6 q 458 0 491 0 l 97 0 m 244 115 l 449 115 q 483 117 464 115 q 516 125 501 120 q 561 160 547 135 q 574 215 574 186 q 553 279 574 255 q 501 310 533 303 q 470 315 487 315 q 442 316 453 316 l 244 316 l 244 115 m 244 433 l 406 433 q 447 435 426 433 q 483 444 468 438 q 524 479 510 454 q 537 533 537 503 q 522 590 537 565 q 478 624 508 615 q 432 632 458 631 q 399 633 406 633 l 244 633 l 244 433 z "},"г":{"ha":660,"x_min":97,"x_max":625,"o":"m 97 0 l 97 750 l 625 750 l 625 613 l 242 613 l 242 0 l 97 0 z "},"ѓ":{"ha":660,"x_min":97,"x_max":625,"o":"m 378 861 l 264 861 l 363 1104 l 476 1104 l 378 861 m 97 0 l 97 750 l 625 750 l 625 613 l 242 613 l 242 0 l 97 0 z "},"ґ":{"ha":660,"x_min":97,"x_max":625,"o":"m 97 0 l 97 750 l 480 750 l 480 898 l 625 898 l 625 613 l 242 613 l 242 0 l 97 0 z "},"д":{"ha":863,"x_min":42,"x_max":822,"o":"m 42 -167 l 42 117 q 130 158 103 117 q 173 299 157 199 q 189 427 183 359 q 201 575 196 495 q 210 750 206 654 l 748 750 l 748 117 l 822 117 l 822 -167 l 684 -167 l 684 0 l 180 0 l 180 -167 l 42 -167 m 249 117 l 602 117 l 602 633 l 340 633 q 334 539 337 588 q 327 442 331 490 q 318 351 323 394 q 307 272 313 307 q 287 180 299 217 q 249 117 276 143 z "}}}
